<?xml version="1.0" encoding="UTF-8" standalone="no"?>
<svg width="20px" height="20px" viewBox="0 0 20 20" version="1.1" xmlns="http://www.w3.org/2000/svg" xmlns:xlink="http://www.w3.org/1999/xlink">
    <!-- Generator: Sketch 39.1 (31720) - http://www.bohemiancoding.com/sketch -->
    <title>create-record</title>
    <desc>Created with Sketch.</desc>
    <defs></defs>
    <g id="Symbols---Button-icons" stroke="none" stroke-width="1" fill="none" fill-rule="evenodd">
        <g id="create-record">
            <g id="file-copy" fill="#444B51">
                <path d="M15,5 L15,14 L3,14 L3,10 L3,0 L10,0 L10,5 L15,5 Z M5,7 L13,7 L13,8 L5,8 L5,7 L5,7 Z M5,9 L13,9 L13,10 L5,10 L5,9 L5,9 Z M5,11 L13,11 L13,12 L5,12 L5,11 L5,11 Z M11,0 L11,4 L15,4 L11,0 L11,0 Z" id="file"></path>
                <rect id="Rectangle-9" x="1" y="1" width="1" height="15"></rect>
                <polygon id="Rectangle-9-Copy" points="14 15 14 16 1 16 1 15"></polygon>
            </g>
            <circle id="Oval-36" fill="#FFFFFF" cx="14.5" cy="14.5" r="5.5"></circle>
            <path d="M14.5,10 C11.9999999,10 10,11.9999999 10,14.5 C10,17.0000001 11.9999999,19 14.5,19 C17.0000001,19 19,17.0000001 19,14.5 C19,11.9999999 17.0000001,10 14.5,10 L14.5,10 L14.5,10 Z M17.1666666,15.1666666 L15.1666666,15.1666666 L15.1666666,17.1666666 L13.8333334,17.1666666 L13.8333334,15.1666666 L11.8333334,15.1666666 L11.8333334,13.8333334 L13.8333334,13.8333334 L13.8333334,11.8333334 L15.1666666,11.8333334 L15.1666666,13.8333334 L17.1666666,13.8333334 L17.1666666,15.1666666 L17.1666666,15.1666666 L17.1666666,15.1666666 Z" id="add" fill="#59ACAA"></path>
        </g>
    </g>
</svg>