<?xml version="1.0" encoding="UTF-8" standalone="no"?>
<svg width="16px" height="16px" viewBox="0 0 16 16" version="1.1" xmlns="http://www.w3.org/2000/svg" xmlns:xlink="http://www.w3.org/1999/xlink">
    <!-- Generator: Sketch 3.6.1 (26313) - http://www.bohemiancoding.com/sketch -->
    <title>delete</title>
    <desc>Created with Sketch.</desc>
    <defs></defs>
    <g id="assets" stroke="none" stroke-width="1" fill="none" fill-rule="evenodd">
        <g id="icon-fonts" transform="translate(-172.000000, -152.000000)" fill="#444B51">
            <path d="M184.494629,167 L185.394629,158 L175.625024,158 L176.525024,167 L184.494629,167 L184.494629,167 Z M182,160 C182,160.178172 182.223873,160 182,160 C182.775103,160 183,160.178172 183,160 L183,165 C183,164.820999 182.775615,165 182,165 C182.223873,165 182,164.820999 182,165 L182,160 L182,160 L182,160 Z M180,160 C180,160.178172 180.224385,160 181,160 C180.776127,160 181,160.178172 181,160 L181,165 C181,164.820999 180.776127,165 181,165 C180.224897,165 180,164.820999 180,165 L180,160 L180,160 L180,160 Z M178,160 C178,160.178172 178.224385,160 179,160 C178.776127,160 179,160.178172 179,160 L179,165 C179,164.820999 178.776127,165 179,165 C178.224897,165 178,164.820999 178,165 L178,160 L178,160 Z M184,155 L184,154 C183.746061,153.635594 183.111274,153 182,153 L179,153 C177.88825,153 177.253462,153.635594 177,154 L177,155 C177,155 175,155.01502 175,155 L175,157 L186,157 L186,155 C186,155.01502 184,155 184,155 L184,155 Z M178,155 C178,155 178.284357,154.001276 179.25,154 L181.75,154 C182.543335,154 182.999331,154.271046 183,155 L178,155 L178,155 Z" id="trash"></path>
        </g>
    </g>
</svg>