<?xml version="1.0" encoding="UTF-8" standalone="no"?>
<svg width="16px" height="17px" viewBox="0 0 16 17" version="1.1" xmlns="http://www.w3.org/2000/svg" xmlns:xlink="http://www.w3.org/1999/xlink">
    <!-- Generator: Sketch 3.6.1 (26313) - http://www.bohemiancoding.com/sketch -->
    <title>document</title>
    <desc>Created with Sketch.</desc>
    <defs></defs>
    <g id="assets" stroke="none" stroke-width="1" fill="none" fill-rule="evenodd">
        <g id="icon-fonts" transform="translate(-772.000000, -227.000000)" fill="#444B51">
            <path d="M781,232 L786,232 L786,243 L774,243 L774,237 L774,227 L781,227 L781,232 L781,232 L781,232 Z M776,235 L784,235 L784,236 L776,236 L776,235 L776,235 Z M776,237 L784,237 L784,238 L776,238 L776,237 L776,237 Z M776,239 L784,239 L784,240 L776,240 L776,239 L776,239 Z M782,227 L782,231 L786,231 L782,227 L782,227 Z" id="file"></path>
        </g>
    </g>
</svg>