<svg width="24" height="24" viewBox="0 0 24 24" fill="none" xmlns="http://www.w3.org/2000/svg">
<path d="M20.2678 3.73223L20.9749 3.02513V3.02513L20.2678 3.73223ZM6.50006 21.0355V22.0355C6.76528 22.0355 7.01963 21.9301 7.20717 21.7426L6.50006 21.0355ZM3.00006 21.0355H2.00006C2.00006 21.5878 2.44778 22.0355 3.00006 22.0355V21.0355ZM3.00006 17.4644L2.29295 16.7573C2.10542 16.9448 2.00006 17.1992 2.00006 17.4644H3.00006ZM17.4393 4.43934C18.0251 3.85355 18.9749 3.85355 19.5607 4.43934L20.9749 3.02513C19.608 1.65829 17.392 1.65829 16.0251 3.02513L17.4393 4.43934ZM19.5607 4.43934C20.1465 5.02513 20.1465 5.97487 19.5607 6.56066L20.9749 7.97487C22.3417 6.60804 22.3417 4.39196 20.9749 3.02513L19.5607 4.43934ZM19.5607 6.56066L5.79295 20.3284L7.20717 21.7426L20.9749 7.97487L19.5607 6.56066ZM6.50006 20.0355H3.00006V22.0355H6.50006V20.0355ZM16.0251 3.02513L2.29295 16.7573L3.70717 18.1715L17.4393 4.43934L16.0251 3.02513ZM2.00006 17.4644V21.0355H4.00006V17.4644H2.00006ZM14.5251 5.93934L18.0607 9.47487L19.4749 8.06066L15.9393 4.52513L14.5251 5.93934Z" fill="#111827"/>
</svg>
