<svg width="24" height="24" viewBox="0 0 24 24" fill="none" xmlns="http://www.w3.org/2000/svg">
<path d="M10 14H5.23607C3.74931 14 2.78231 12.4354 3.44722 11.1056L6.94722 4.10557C7.286 3.42801 7.97853 3 8.73607 3H12.7538C12.9173 3 13.0802 3.02005 13.2389 3.05972L17 4M10 14V19C10 20.1046 10.8954 21 12 21H12.0955C12.595 21 13 20.595 13 20.0955C13 19.3812 13.2114 18.6828 13.6077 18.0885L17 13V4M10 14H12M17 4H19C20.1046 4 21 4.89543 21 6V12C21 13.1046 20.1046 14 19 14H16.5" stroke="#111827" stroke-width="2" stroke-linecap="round" stroke-linejoin="round"/>
</svg>
