<svg width="24" height="24" viewBox="0 0 24 24" fill="none" xmlns="http://www.w3.org/2000/svg">
<path d="M7.00001 18C6.74401 18 6.48801 17.902 6.29301 17.707C5.90201 17.316 5.90201 16.684 6.29301 16.293L16.293 6.29301C16.684 5.90201 17.316 5.90201 17.707 6.29301C18.098 6.68401 18.098 7.31601 17.707 7.70701L7.70701 17.707C7.51201 17.902 7.25601 18 7.00001 18Z" fill="black"/>
<path d="M17 18H7C6.448 18 6 17.553 6 17V7C6 6.448 6.448 6 7 6C7.552 6 8 6.448 8 7V16H17C17.553 16 18 16.447 18 17C18 17.553 17.553 18 17 18Z" fill="black"/>
</svg>
