<svg width="24" height="24" viewBox="0 0 24 24" fill="none" xmlns="http://www.w3.org/2000/svg">
<path d="M12 23C5.935 23 1 18.065 1 12C1 5.935 5.935 1 12 1C18.065 1 23 5.935 23 12C23 18.065 18.065 23 12 23ZM12 3C7.038 3 3 7.038 3 12C3 16.963 7.038 21 12 21C16.963 21 21 16.963 21 12C21 7.038 16.963 3 12 3Z" fill="black"/>
<path d="M12 16.9998C11.744 16.9998 11.488 16.9018 11.293 16.7068L7.29301 12.7068C6.90201 12.3158 6.90201 11.6838 7.29301 11.2928C7.68401 10.9018 8.31601 10.9018 8.70701 11.2928L12 14.5858L15.293 11.2928C15.684 10.9018 16.316 10.9018 16.707 11.2928C17.098 11.6838 17.098 12.3158 16.707 12.7068L12.707 16.7068C12.512 16.9018 12.256 16.9998 12 16.9998Z" fill="black"/>
<path d="M12 17C11.448 17 11 16.553 11 16V8C11 7.448 11.448 7 12 7C12.552 7 13 7.448 13 8V16C13 16.553 12.552 17 12 17Z" fill="black"/>
</svg>
