<svg width="24" height="24" viewBox="0 0 24 24" fill="none" xmlns="http://www.w3.org/2000/svg">
<path d="M12 20C11.448 20 11 19.553 11 19V5C11 4.448 11.448 4 12 4C12.552 4 13 4.448 13 5V19C13 19.553 12.552 20 12 20Z" fill="black"/>
<path d="M12 20C11.744 20 11.488 19.902 11.293 19.707L4.29301 12.707C3.90201 12.316 3.90201 11.684 4.29301 11.293C4.68401 10.902 5.31601 10.902 5.70701 11.293L12 17.586L18.293 11.293C18.684 10.902 19.316 10.902 19.707 11.293C20.098 11.684 20.098 12.316 19.707 12.707L12.707 19.707C12.512 19.902 12.256 20 12 20Z" fill="black"/>
</svg>
