<svg width="24" height="24" viewBox="0 0 24 24" fill="none" xmlns="http://www.w3.org/2000/svg">
<path d="M19 13H5C4.448 13 4 12.552 4 12C4 11.448 4.448 11 5 11H19C19.553 11 20 11.448 20 12C20 12.552 19.553 13 19 13Z" fill="black"/>
<path d="M12 20C11.744 20 11.488 19.902 11.293 19.707L4.29301 12.707C3.90201 12.316 3.90201 11.684 4.29301 11.293L11.293 4.29301C11.684 3.90201 12.316 3.90201 12.707 4.29301C13.098 4.68401 13.098 5.31601 12.707 5.70701L6.41401 12L12.707 18.293C13.098 18.684 13.098 19.316 12.707 19.707C12.512 19.902 12.256 20 12 20Z" fill="black"/>
</svg>
