<svg width="24" height="24" viewBox="0 0 24 24" fill="none" xmlns="http://www.w3.org/2000/svg">
<path d="M19 13H5C4.448 13 4 12.552 4 12C4 11.448 4.448 11 5 11H19C19.553 11 20 11.448 20 12C20 12.552 19.553 13 19 13Z" fill="black"/>
<path d="M12 20C11.744 20 11.488 19.902 11.293 19.707C10.902 19.316 10.902 18.684 11.293 18.293L17.586 12L11.293 5.70701C10.902 5.31601 10.902 4.68401 11.293 4.29301C11.684 3.90201 12.316 3.90201 12.707 4.29301L19.707 11.293C20.098 11.684 20.098 12.316 19.707 12.707L12.707 19.707C12.512 19.902 12.256 20 12 20Z" fill="black"/>
</svg>
