<svg width="24" height="24" viewBox="0 0 24 24" fill="none" xmlns="http://www.w3.org/2000/svg">
<path d="M12 20C11.448 20 11 19.553 11 19V5C11 4.448 11.448 4 12 4C12.552 4 13 4.448 13 5V19C13 19.553 12.552 20 12 20Z" fill="black"/>
<path d="M19 13C18.744 13 18.488 12.902 18.293 12.707L12 6.41401L5.70701 12.707C5.31601 13.098 4.68401 13.098 4.29301 12.707C3.90201 12.316 3.90201 11.684 4.29301 11.293L11.293 4.29301C11.684 3.90201 12.316 3.90201 12.707 4.29301L19.707 11.293C20.098 11.684 20.098 12.316 19.707 12.707C19.512 12.902 19.256 13 19 13Z" fill="black"/>
</svg>
