<svg width="24" height="24" viewBox="0 0 24 24" fill="none" xmlns="http://www.w3.org/2000/svg">
<path d="M17 18C16.744 18 16.488 17.902 16.293 17.707L6.29301 7.70701C5.90201 7.31601 5.90201 6.68401 6.29301 6.29301C6.68401 5.90201 7.31601 5.90201 7.70701 6.29301L17.707 16.293C18.098 16.684 18.098 17.316 17.707 17.707C17.512 17.902 17.256 18 17 18Z" fill="black"/>
<path d="M17 18H7C6.448 18 6 17.553 6 17C6 16.447 6.448 16 7 16H16V7C16 6.448 16.447 6 17 6C17.553 6 18 6.448 18 7V17C18 17.553 17.553 18 17 18Z" fill="black"/>
</svg>
