<svg width="24" height="24" viewBox="0 0 24 24" fill="none" xmlns="http://www.w3.org/2000/svg">
<path d="M17 12C16.744 12 16.488 11.902 16.293 11.707L12 7.41401L7.70701 11.707C7.31601 12.098 6.68401 12.098 6.29301 11.707C5.90201 11.316 5.90201 10.684 6.29301 10.293L11.293 5.29301C11.684 4.90201 12.316 4.90201 12.707 5.29301L17.707 10.293C18.098 10.684 18.098 11.316 17.707 11.707C17.512 11.902 17.256 12 17 12Z" fill="black"/>
<path d="M17 19C16.744 19 16.488 18.902 16.293 18.707L12 14.414L7.70701 18.707C7.31601 19.098 6.68401 19.098 6.29301 18.707C5.90201 18.316 5.90201 17.684 6.29301 17.293L11.293 12.293C11.684 11.902 12.316 11.902 12.707 12.293L17.707 17.293C18.098 17.684 18.098 18.316 17.707 18.707C17.512 18.902 17.256 19 17 19Z" fill="black"/>
</svg>
