<svg width="24" height="24" viewBox="0 0 24 24" fill="none" xmlns="http://www.w3.org/2000/svg">
<path d="M12 19C11.744 19 11.488 18.902 11.293 18.707L6.29301 13.707C5.90201 13.316 5.90201 12.684 6.29301 12.293C6.68401 11.902 7.31601 11.902 7.70701 12.293L12 16.586L16.293 12.293C16.684 11.902 17.316 11.902 17.707 12.293C18.098 12.684 18.098 13.316 17.707 13.707L12.707 18.707C12.512 18.902 12.256 19 12 19Z" fill="black"/>
<path d="M12 12C11.744 12 11.488 11.902 11.293 11.707L6.29301 6.70701C5.90201 6.31601 5.90201 5.68401 6.29301 5.29301C6.68401 4.90201 7.31601 4.90201 7.70701 5.29301L12 9.58601L16.293 5.29301C16.684 4.90201 17.316 4.90201 17.707 5.29301C18.098 5.68401 18.098 6.31601 17.707 6.70701L12.707 11.707C12.512 11.902 12.256 12 12 12Z" fill="black"/>
</svg>
