<svg width="24" height="24" viewBox="0 0 24 24" fill="none" xmlns="http://www.w3.org/2000/svg">
<path d="M11 18C10.744 18 10.488 17.902 10.293 17.707L5.29301 12.707C4.90201 12.316 4.90201 11.684 5.29301 11.293L10.293 6.29301C10.684 5.90201 11.316 5.90201 11.707 6.29301C12.098 6.68401 12.098 7.31601 11.707 7.70701L7.41401 12L11.707 16.293C12.098 16.684 12.098 17.316 11.707 17.707C11.512 17.902 11.256 18 11 18Z" fill="black"/>
<path d="M18 18C17.744 18 17.488 17.902 17.293 17.707L12.293 12.707C11.902 12.316 11.902 11.684 12.293 11.293L17.293 6.29301C17.684 5.90201 18.316 5.90201 18.707 6.29301C19.098 6.68401 19.098 7.31601 18.707 7.70701L14.414 12L18.707 16.293C19.098 16.684 19.098 17.316 18.707 17.707C18.512 17.902 18.256 18 18 18Z" fill="black"/>
</svg>
