<svg width="24" height="24" viewBox="0 0 24 24" fill="none" xmlns="http://www.w3.org/2000/svg">
<path d="M13 18C12.744 18 12.488 17.902 12.293 17.707C11.902 17.316 11.902 16.684 12.293 16.293L16.586 12L12.293 7.70701C11.902 7.31601 11.902 6.68401 12.293 6.29301C12.684 5.90201 13.316 5.90201 13.707 6.29301L18.707 11.293C19.098 11.684 19.098 12.316 18.707 12.707L13.707 17.707C13.512 17.902 13.256 18 13 18Z" fill="black"/>
<path d="M6.00001 18C5.74401 18 5.48801 17.902 5.29301 17.707C4.90201 17.316 4.90201 16.684 5.29301 16.293L9.58601 12L5.29301 7.70701C4.90201 7.31601 4.90201 6.68401 5.29301 6.29301C5.68401 5.90201 6.31601 5.90201 6.70701 6.29301L11.707 11.293C12.098 11.684 12.098 12.316 11.707 12.707L6.70701 17.707C6.51201 17.902 6.25601 18 6.00001 18Z" fill="black"/>
</svg>
