<svg width="24" height="24" viewBox="0 0 24 24" fill="none" xmlns="http://www.w3.org/2000/svg">
<path d="M15 22C14.569 22 14.188 21.725 14.052 21.316L9 6.162L6.949 12.316C6.812 12.725 6.431 13 6 13H2C1.448 13 1 12.552 1 12C1 11.448 1.448 11 2 11H5.279L8.051 2.684C8.188 2.275 8.569 2 9 2C9.431 2 9.812 2.275 9.949 2.684L15 17.838L17.052 11.684C17.188 11.275 17.569 11 18 11H22C22.553 11 23 11.448 23 12C23 12.552 22.553 13 22 13H18.721L15.949 21.316C15.812 21.725 15.431 22 15 22Z" fill="black"/>
</svg>
