<svg width="24" height="24" viewBox="0 0 24 24" fill="none" xmlns="http://www.w3.org/2000/svg">
<path d="M16.14 23H7.86C7.595 23 7.34 22.895 7.153 22.707L1.293 16.847C1.105 16.659 1 16.405 1 16.14V7.86C1 7.595 1.105 7.34 1.293 7.153L7.153 1.293C7.34 1.105 7.595 1 7.86 1H16.14C16.406 1 16.66 1.105 16.847 1.293L22.707 7.153C22.895 7.34 23 7.595 23 7.86V16.14C23 16.406 22.895 16.66 22.707 16.847L16.847 22.707C16.659 22.895 16.405 23 16.14 23ZM8.274 21H15.726L21 15.726V8.274L15.726 3H8.274L3 8.274V15.726L8.274 21Z" fill="black"/>
<path d="M12 13C11.448 13 11 12.552 11 12V8C11 7.448 11.448 7 12 7C12.552 7 13 7.448 13 8V12C13 12.552 12.552 13 12 13Z" fill="black"/>
<path d="M12 16.9999C11.87 16.9999 11.74 16.9699 11.62 16.9199C11.5 16.8699 11.39 16.7999 11.29 16.7099C11.1 16.5199 11 16.2699 11 15.9999C11 15.8699 11.03 15.7399 11.08 15.6199C11.13 15.4999 11.2 15.3899 11.29 15.2899C11.39 15.1999 11.49 15.1299 11.62 15.0799C11.86 14.9789 12.14 14.9789 12.38 15.0799C12.51 15.1299 12.61 15.1999 12.71 15.2899C12.8 15.3899 12.87 15.4999 12.92 15.6199C12.97 15.7399 13 15.8699 13 15.9999C13 16.2699 12.9 16.5199 12.71 16.7099C12.52 16.8989 12.27 16.9999 12 16.9999Z" fill="black"/>
</svg>
