<svg width="24" height="24" viewBox="0 0 24 24" fill="none" xmlns="http://www.w3.org/2000/svg">
<path d="M3.52992 21.9999C3.00392 21.9939 2.49692 21.8549 2.05192 21.5989C0.619917 20.7709 0.126917 18.9329 0.953917 17.4999L9.43192 3.34593C9.43292 3.34393 9.43392 3.34193 9.43492 3.34093C9.68492 2.92893 10.0339 2.57993 10.4449 2.33193C11.1279 1.91693 11.9339 1.79093 12.7129 1.98393C13.4909 2.17393 14.1489 2.65593 14.5639 3.34093L23.0369 17.4869C23.3029 17.9469 23.4419 18.4539 23.4479 18.9669C23.4569 19.7699 23.1519 20.5259 22.5919 21.0989C22.0309 21.6709 21.2809 21.9919 20.4809 21.9999H3.52992ZM11.1459 4.37693L2.67792 18.5139C2.40992 18.9779 2.57492 19.5909 3.05292 19.8669C3.19992 19.9519 3.36892 19.9979 3.54092 19.9999H20.4699C20.7269 19.9969 20.9759 19.8909 21.1629 19.6989C21.3499 19.5089 21.4509 19.2559 21.4479 18.9889C21.4459 18.8179 21.3989 18.6489 21.3129 18.4999L12.8519 4.37393C12.5679 3.90793 11.9519 3.75493 11.4819 4.04293C11.3449 4.12493 11.2289 4.24093 11.1459 4.37693Z" fill="black"/>
<path d="M12 14C11.448 14 11 13.553 11 13V9C11 8.448 11.448 8 12 8C12.552 8 13 8.448 13 9V13C13 13.553 12.552 14 12 14Z" fill="black"/>
<path d="M12 18C11.73 18 11.48 17.8989 11.29 17.7099C11.1 17.5199 11 17.27 11 17C11 16.87 11.03 16.74 11.08 16.62C11.13 16.49 11.2 16.39 11.29 16.29C11.66 15.92 12.33 15.92 12.71 16.29C12.8 16.39 12.87 16.5 12.92 16.62C12.97 16.74 13 16.87 13 17C13 17.13 12.97 17.2599 12.92 17.3799C12.87 17.4999 12.8 17.6089 12.71 17.7099C12.52 17.8989 12.27 18 12 18Z" fill="black"/>
</svg>
