<svg width="24" height="24" viewBox="0 0 24 24" fill="none" xmlns="http://www.w3.org/2000/svg">
<path d="M21 22H3C2.448 22 2 21.553 2 21V8C2 7.448 2.448 7 3 7C3.552 7 4 7.448 4 8V20H20V8C20 7.448 20.447 7 21 7C21.553 7 22 7.448 22 8V21C22 21.553 21.553 22 21 22Z" fill="black"/>
<path d="M23 9H1C0.448 9 0 8.552 0 8V3C0 2.448 0.448 2 1 2H23C23.553 2 24 2.448 24 3V8C24 8.552 23.553 9 23 9ZM2 7H22V4H2V7Z" fill="black"/>
<path d="M14 13H10C9.448 13 9 12.552 9 12C9 11.448 9.448 11 10 11H14C14.553 11 15 11.448 15 12C15 12.552 14.553 13 14 13Z" fill="black"/>
</svg>
