<svg width="24" height="24" viewBox="0 0 24 24" fill="none" xmlns="http://www.w3.org/2000/svg">
<path d="M18 21C17.447 21 17 20.553 17 20V10C17 9.448 17.447 9 18 9C18.553 9 19 9.448 19 10V20C19 20.553 18.553 21 18 21Z" fill="black"/>
<path d="M12 21C11.448 21 11 20.553 11 20V4C11 3.448 11.448 3 12 3C12.552 3 13 3.448 13 4V20C13 20.553 12.552 21 12 21Z" fill="black"/>
<path d="M6 21C5.448 21 5 20.553 5 20V14C5 13.447 5.448 13 6 13C6.552 13 7 13.447 7 14V20C7 20.553 6.552 21 6 21Z" fill="black"/>
</svg>
