<svg width="24" height="24" viewBox="0 0 24 24" fill="none" xmlns="http://www.w3.org/2000/svg">
<g clip-path="url(#clip0)">
<path d="M11.995 22.9949C11.484 22.9949 10.968 22.8649 10.495 22.5919C10.043 22.3289 9.666 21.9519 9.405 21.5009C9.128 21.0229 9.291 20.4109 9.769 20.1349C10.248 19.8569 10.858 20.0219 11.136 20.4989C11.223 20.6479 11.348 20.7739 11.499 20.8609C11.976 21.1389 12.589 20.9729 12.866 20.4979C13.144 20.0199 13.756 19.8589 14.233 20.1359C14.711 20.4129 14.874 21.0249 14.595 21.5019C14.039 22.4599 13.03 22.9949 11.995 22.9949ZM17 17.9999H2C1.448 17.9999 1 17.5529 1 16.9999C1 16.4469 1.448 15.9999 2 15.9999C3.103 15.9999 4 15.1029 4 13.9999V8.99994C3.999 7.72694 4.307 6.45494 4.891 5.32094C5.144 4.82994 5.748 4.63694 6.238 4.89094C6.729 5.14394 6.922 5.74694 6.668 6.23794C6.23 7.08794 5.999 8.04294 6 8.99894V13.9999C6 14.7279 5.805 15.4109 5.463 15.9999H17C17.553 15.9999 18 16.4469 18 16.9999C18 17.5529 17.553 17.9999 17 17.9999ZM19 13.9999C18.447 13.9999 18 13.5529 18 12.9999V8.99994C18.001 7.96794 17.733 6.94694 17.226 6.04794C15.6 3.16694 11.933 2.14494 9.052 3.77094C8.57 4.04294 7.961 3.87294 7.689 3.39194C7.418 2.90994 7.587 2.29994 8.068 2.02894C11.91 -0.138064 16.799 1.22294 18.967 5.06494C19.644 6.26494 20 7.62594 19.999 9.00094V12.9999C20 13.5529 19.553 13.9999 19 13.9999Z" fill="black"/>
<path d="M23 24C22.744 24 22.488 23.902 22.293 23.707L0.293006 1.70701C-0.0979941 1.31601 -0.0979941 0.684006 0.293006 0.293006C0.684006 -0.0979941 1.31601 -0.0979941 1.70701 0.293006L23.707 22.293C24.098 22.684 24.098 23.316 23.707 23.707C23.512 23.902 23.256 24 23 24Z" fill="black"/>
</g>
<defs>
<clipPath id="clip0">
<rect width="24" height="24" fill="white"/>
</clipPath>
</defs>
</svg>
