<svg width="24" height="24" viewBox="0 0 24 24" fill="none" xmlns="http://www.w3.org/2000/svg">
<path d="M11.995 22.995C11.484 22.995 10.968 22.865 10.495 22.592C10.043 22.329 9.666 21.952 9.405 21.501C9.128 21.023 9.291 20.411 9.769 20.135C10.248 19.857 10.858 20.022 11.136 20.499C11.223 20.648 11.348 20.774 11.499 20.861C11.976 21.139 12.589 20.973 12.866 20.498C13.144 20.02 13.756 19.859 14.233 20.136C14.711 20.413 14.874 21.025 14.595 21.502C14.039 22.46 13.03 22.995 11.995 22.995ZM22 18H2C1.448 18 1 17.553 1 17C1 16.447 1.448 16 2 16C3.103 16 4 15.103 4 14V9C4 4.589 7.589 1 12 1C16.411 1 20 4.589 20 9V14C20 15.103 20.897 16 22 16C22.553 16 23 16.447 23 17C23 17.553 22.553 18 22 18ZM5.463 16H18.537C18.195 15.411 18 14.728 18 14V9C18 5.691 15.309 3 12 3C8.691 3 6 5.691 6 9V14C6 14.728 5.805 15.411 5.463 16Z" fill="black"/>
</svg>
