<svg width="24" height="24" viewBox="0 0 24 24" fill="none" xmlns="http://www.w3.org/2000/svg">
<path d="M4 20.5C3.448 20.5 3 20.053 3 19.5C3 17.57 4.57 16 6.5 16H20C20.553 16 21 16.447 21 17C21 17.553 20.553 18 20 18H6.5C5.673 18 5 18.673 5 19.5C5 20.053 4.552 20.5 4 20.5Z" fill="black"/>
<path d="M20 23H6.5C4.57 23 3 21.43 3 19.5V4.5C3 2.57 4.57 1 6.5 1H20C20.553 1 21 1.448 21 2V22C21 22.553 20.553 23 20 23ZM6.5 3C5.673 3 5 3.673 5 4.5V19.5C5 20.327 5.673 21 6.5 21H19V3H6.5Z" fill="black"/>
</svg>
