<svg width="24" height="24" viewBox="0 0 24 24" fill="none" xmlns="http://www.w3.org/2000/svg">
<path d="M19 22C18.795 22 18.592 21.938 18.419 21.813L12 17.229L5.581 21.814C5.277 22.033 4.875 22.062 4.542 21.89C4.209 21.718 4 21.375 4 21V5C4 3.346 5.346 2 7 2H17C18.654 2 20 3.346 20 5V21C20 21.375 19.791 21.718 19.458 21.89C19.313 21.963 19.156 22 19 22ZM12 15C12.204 15 12.407 15.062 12.581 15.187L18 19.057V5C18 4.449 17.552 4 17 4H7C6.449 4 6 4.449 6 5V19.057L11.419 15.187C11.593 15.062 11.796 15 12 15Z" fill="black"/>
</svg>
