<svg width="24" height="24" viewBox="0 0 24 24" fill="none" xmlns="http://www.w3.org/2000/svg">
<path d="M12 22C11.448 22 11 21.553 11 21C11 19.897 10.103 19 9 19H2C1.448 19 1 18.553 1 18V3C1 2.448 1.448 2 2 2H8C10.757 2 13 4.243 13 7V21C13 21.553 12.552 22 12 22ZM3 17H9C9.728 17 10.411 17.195 11 17.537V7C11 5.346 9.654 4 8 4H3V17Z" fill="black"/>
<path d="M12 22C11.448 22 11 21.553 11 21V7C11 4.243 13.243 2 16 2H22C22.553 2 23 2.448 23 3V18C23 18.553 22.553 19 22 19H15C13.897 19 13 19.897 13 21C13 21.553 12.552 22 12 22ZM16 4C14.346 4 13 5.346 13 7V17.537C13.589 17.195 14.272 17 15 17H21V4H16Z" fill="black"/>
</svg>
