<svg width="24" height="24" viewBox="0 0 24 24" fill="none" xmlns="http://www.w3.org/2000/svg">
<path d="M11.9951 23.7699C11.5341 23.7699 11.0731 23.6649 10.6521 23.4549L2.65207 19.4549C1.62507 18.9369 0.992075 17.9009 1.00007 16.7529V7.23993C1.00107 6.09293 1.63907 5.06393 2.66507 4.55393L10.6631 0.554932C11.5011 0.137932 12.4991 0.138932 13.3361 0.553932L13.3371 0.554932L21.3371 4.55493C22.3611 5.06393 23.0001 6.09393 23.0001 7.23993V16.7689C23.0001 17.9159 22.3611 18.9459 21.3341 19.4549L13.3371 23.4539C12.9171 23.6639 12.4571 23.7699 11.9951 23.7699ZM12.0001 2.24193C11.8471 2.24193 11.6941 2.27693 11.5551 2.34593L3.55707 6.34493C3.21307 6.51593 3.00007 6.85793 3.00007 7.24093V16.7599C2.99707 17.1499 3.20807 17.4939 3.55007 17.6659L11.5481 21.6649C11.8281 21.8059 12.1631 21.8059 12.4431 21.6649L20.4431 17.6649C20.7871 17.4939 21.0001 17.1509 21.0001 16.7699V7.23993C21.0001 6.85793 20.7871 6.51493 20.4451 6.34493L12.4431 2.34393C12.3041 2.27593 12.1521 2.24193 12.0001 2.24193Z" fill="black"/>
<path d="M11.9999 12C11.8469 12 11.6929 11.965 11.5529 11.895L1.87291 7.05502C1.37791 6.80802 1.17791 6.20702 1.42491 5.71302C1.67191 5.22002 2.27191 5.01802 2.76691 5.26602L11.9999 9.88202L21.2319 5.26602C21.7259 5.01802 22.3269 5.22002 22.5739 5.71302C22.8209 6.20702 22.6209 6.80802 22.1269 7.05502L12.4469 11.895C12.3069 11.965 12.1529 12 11.9999 12Z" fill="black"/>
<path d="M12 23.76C11.448 23.76 11 23.313 11 22.76V11C11 10.448 11.448 10 12 10C12.552 10 13 10.448 13 11V22.76C13 23.312 12.552 23.76 12 23.76Z" fill="black"/>
</svg>
