<svg width="24" height="24" viewBox="0 0 24 24" fill="none" xmlns="http://www.w3.org/2000/svg">
<path d="M20 22H4C2.346 22 1 20.654 1 19V9C1 7.346 2.346 6 4 6H20C21.654 6 23 7.346 23 9V19C23 20.654 21.654 22 20 22ZM4 8C3.449 8 3 8.449 3 9V19C3 19.552 3.449 20 4 20H20C20.552 20 21 19.552 21 19V9C21 8.449 20.552 8 20 8H4Z" fill="black"/>
<path d="M16 22C15.447 22 15 21.553 15 21V5C15 4.449 14.552 4 14 4H10C9.449 4 9 4.449 9 5V21C9 21.553 8.552 22 8 22C7.448 22 7 21.553 7 21V5C7 3.346 8.346 2 10 2H14C15.654 2 17 3.346 17 5V21C17 21.553 16.553 22 16 22Z" fill="black"/>
</svg>
