<svg width="24" height="24" viewBox="0 0 24 24" fill="none" xmlns="http://www.w3.org/2000/svg">
<path d="M19 23H5C3.346 23 2 21.654 2 20V6C2 4.346 3.346 3 5 3H19C20.654 3 22 4.346 22 6V20C22 21.654 20.654 23 19 23ZM5 5C4.449 5 4 5.449 4 6V20C4 20.552 4.449 21 5 21H19C19.552 21 20 20.552 20 20V6C20 5.449 19.552 5 19 5H5Z" fill="black"/>
<path d="M16 7C15.447 7 15 6.552 15 6V2C15 1.448 15.447 1 16 1C16.553 1 17 1.448 17 2V6C17 6.552 16.553 7 16 7Z" fill="black"/>
<path d="M8 7C7.448 7 7 6.552 7 6V2C7 1.448 7.448 1 8 1C8.552 1 9 1.448 9 2V6C9 6.552 8.552 7 8 7Z" fill="black"/>
<path d="M21 11H3C2.448 11 2 10.552 2 10C2 9.448 2.448 9 3 9H21C21.553 9 22 9.448 22 10C22 10.552 21.553 11 21 11Z" fill="black"/>
</svg>
