<svg width="24" height="24" viewBox="0 0 24 24" fill="none" xmlns="http://www.w3.org/2000/svg">
<g clip-path="url(#clip0)">
<path d="M23 24C22.744 24 22.488 23.902 22.293 23.707L0.293006 1.70701C-0.0979941 1.31601 -0.0979941 0.684006 0.293006 0.293006C0.684006 -0.0979941 1.31601 -0.0979941 1.70701 0.293006L23.707 22.293C24.098 22.684 24.098 23.316 23.707 23.707C23.512 23.902 23.256 24 23 24Z" fill="black"/>
<path d="M21 22H3C1.346 22 0 20.654 0 19V8C0 6.346 1.346 5 3 5H6C6.552 5 7 5.448 7 6C7 6.552 6.552 7 6 7H3C2.449 7 2 7.449 2 8V19C2 19.552 2.449 20 3 20H21C21.553 20 22 20.447 22 21C22 21.553 21.553 22 21 22ZM23 18.34C22.447 18.34 22 17.893 22 17.34V8C22 7.449 21.552 7 21 7H17C16.666 7 16.354 6.833 16.168 6.555L14.465 4H9C8.448 4 8 3.552 8 3C8 2.448 8.448 2 9 2H15C15.334 2 15.646 2.167 15.832 2.445L17.535 5H21C22.654 5 24 6.346 24 8V17.34C24 17.893 23.553 18.34 23 18.34ZM11.968 18.022C10.97 18.022 9.996 17.723 9.155 17.147C8.053 16.393 7.31 15.255 7.064 13.942C6.818 12.63 7.098 11.3 7.853 10.197C8.205 9.684 8.643 9.245 9.156 8.894C9.613 8.583 10.235 8.7 10.546 9.155C10.858 9.611 10.741 10.233 10.285 10.545C9.977 10.755 9.714 11.018 9.503 11.326C9.05 11.987 8.883 12.785 9.03 13.573C9.178 14.36 9.623 15.044 10.284 15.496C10.946 15.949 11.743 16.118 12.531 15.969C13.319 15.822 14.001 15.376 14.454 14.715C14.765 14.259 15.39 14.142 15.844 14.454C16.3 14.766 16.416 15.389 16.105 15.844C15.35 16.947 14.212 17.689 12.899 17.935C12.589 17.994 12.278 18.022 11.968 18.022Z" fill="black"/>
</g>
<defs>
<clipPath id="clip0">
<rect width="24" height="24" fill="white"/>
</clipPath>
</defs>
</svg>
