<svg width="24" height="24" viewBox="0 0 24 24" fill="none" xmlns="http://www.w3.org/2000/svg">
<path d="M21 22H3C1.346 22 0 20.654 0 19V8C0 6.346 1.346 5 3 5H6.465L8.168 2.445C8.354 2.167 8.666 2 9 2H15C15.334 2 15.646 2.167 15.832 2.445L17.535 5H21C22.654 5 24 6.346 24 8V19C24 20.654 22.654 22 21 22ZM3 7C2.449 7 2 7.449 2 8V19C2 19.552 2.449 20 3 20H21C21.552 20 22 19.552 22 19V8C22 7.449 21.552 7 21 7H17C16.666 7 16.354 6.833 16.168 6.555L14.465 4H9.535L7.832 6.555C7.646 6.833 7.334 7 7 7H3Z" fill="black"/>
<path d="M12 18C9.243 18 7 15.757 7 13C7 10.243 9.243 8 12 8C14.757 8 17 10.243 17 13C17 15.757 14.757 18 12 18ZM12 10C10.346 10 9 11.346 9 13C9 14.654 10.346 16 12 16C13.654 16 15 14.654 15 13C15 11.346 13.654 10 12 10Z" fill="black"/>
</svg>
