<svg width="24" height="24" viewBox="0 0 24 24" fill="none" xmlns="http://www.w3.org/2000/svg">
<path d="M12 22.9939C11.998 22.9939 11.996 22.9939 11.994 22.9939C5.929 22.9909 0.997001 18.0539 1 11.9879C1.003 5.9249 5.938 0.993896 12 0.993896C12.002 0.993896 12.004 0.993896 12.006 0.993896C13.556 0.994896 15.061 1.3149 16.477 1.9459C16.981 2.1709 17.208 2.7619 16.983 3.2659C16.759 3.7699 16.17 3.9959 15.663 3.7729C14.505 3.2569 13.273 2.9949 12.005 2.9939C12.003 2.9939 12.002 2.9939 12 2.9939C7.039 2.9939 3.002 7.0279 3 11.9889C2.998 16.9519 7.032 20.9909 11.995 20.9939C11.996 20.9939 11.998 20.9939 12 20.9939C16.96 20.9939 20.998 16.9599 21 11.9989V11.0799C21 10.5279 21.447 10.0799 22 10.0799C22.553 10.0799 23 10.5279 23 11.0799V11.9999C22.997 18.0629 18.062 22.9939 12 22.9939Z" fill="black"/>
<path d="M12 15.01C11.735 15.01 11.48 14.905 11.293 14.717L8.29301 11.717C7.90201 11.326 7.90201 10.694 8.29301 10.303C8.68401 9.91202 9.31601 9.91202 9.70701 10.303L12 12.595L21.293 3.29302C21.684 2.90102 22.316 2.90202 22.707 3.29202C23.098 3.68302 23.098 4.31502 22.707 4.70602L12.707 14.716C12.52 14.904 12.266 15.01 12 15.01Z" fill="black"/>
</svg>
