<svg width="24" height="24" viewBox="0 0 24 24" fill="none" xmlns="http://www.w3.org/2000/svg">
<path d="M12 15C11.744 15 11.488 14.902 11.293 14.707L8.29301 11.707C7.90201 11.316 7.90201 10.684 8.29301 10.293C8.68401 9.90201 9.31601 9.90201 9.70701 10.293L12 12.586L21.293 3.29301C21.684 2.90201 22.316 2.90201 22.707 3.29301C23.098 3.68401 23.098 4.31601 22.707 4.70701L12.707 14.707C12.512 14.902 12.256 15 12 15Z" fill="black"/>
<path d="M19 22H5C3.346 22 2 20.654 2 19V5C2 3.346 3.346 2 5 2H16C16.553 2 17 2.448 17 3C17 3.552 16.553 4 16 4H5C4.449 4 4 4.449 4 5V19C4 19.552 4.449 20 5 20H19C19.552 20 20 19.552 20 19V12C20 11.448 20.447 11 21 11C21.553 11 22 11.448 22 12V19C22 20.654 20.654 22 19 22Z" fill="black"/>
</svg>
