<svg width="24" height="24" viewBox="0 0 24 24" fill="none" xmlns="http://www.w3.org/2000/svg">
<path d="M18 23H6C4.346 23 3 21.654 3 20V6C3 4.346 4.346 3 6 3H8C8.552 3 9 3.448 9 4C9 4.552 8.552 5 8 5H6C5.449 5 5 5.449 5 6V20C5 20.552 5.449 21 6 21H18C18.552 21 19 20.552 19 20V6C19 5.449 18.552 5 18 5H16C15.447 5 15 4.552 15 4C15 3.448 15.447 3 16 3H18C19.654 3 21 4.346 21 6V20C21 21.654 19.654 23 18 23Z" fill="black"/>
<path d="M15 7H9C7.897 7 7 6.103 7 5V3C7 1.897 7.897 1 9 1H15C16.103 1 17 1.897 17 3V5C17 6.103 16.103 7 15 7ZM9 3H8.999L9 5H15V3H9Z" fill="black"/>
</svg>
