<svg width="24" height="24" viewBox="0 0 24 24" fill="none" xmlns="http://www.w3.org/2000/svg">
<path d="M12 23C5.935 23 1 18.065 1 12C1 5.935 5.935 1 12 1C18.065 1 23 5.935 23 12C23 18.065 18.065 23 12 23ZM12 3C7.038 3 3 7.038 3 12C3 16.963 7.038 21 12 21C16.963 21 21 16.963 21 12C21 7.038 16.963 3 12 3Z" fill="black"/>
<path d="M15.999 15C15.849 15 15.696 14.966 15.553 14.895L11.553 12.895C11.214 12.725 11 12.379 11 12V6C11 5.448 11.448 5 12 5C12.552 5 13 5.448 13 6V11.382L16.447 13.106C16.941 13.353 17.141 13.954 16.894 14.448C16.719 14.798 16.366 15 15.999 15Z" fill="black"/>
</svg>
