<svg width="24" height="24" viewBox="0 0 24 24" fill="none" xmlns="http://www.w3.org/2000/svg">
<path d="M16 18.9998C15.744 18.9998 15.488 18.9018 15.293 18.7068C14.902 18.3158 14.902 17.6838 15.293 17.2928L20.586 11.9998L15.293 6.70676C14.902 6.31576 14.902 5.68376 15.293 5.29276C15.684 4.90176 16.316 4.90176 16.707 5.29276L22.707 11.2928C23.098 11.6838 23.098 12.3158 22.707 12.7068L16.707 18.7068C16.512 18.9018 16.256 18.9998 16 18.9998Z" fill="black"/>
<path d="M8.00001 18.9998C7.74401 18.9998 7.48801 18.9018 7.29301 18.7068L1.29301 12.7068C0.902006 12.3158 0.902006 11.6838 1.29301 11.2928L7.29301 5.29276C7.68401 4.90176 8.31601 4.90176 8.70701 5.29276C9.09801 5.68376 9.09801 6.31576 8.70701 6.70676L3.41401 11.9998L8.70701 17.2928C9.09801 17.6838 9.09801 18.3158 8.70701 18.7068C8.51201 18.9018 8.25601 18.9998 8.00001 18.9998Z" fill="black"/>
</svg>
