<svg width="24" height="24" viewBox="0 0 24 24" fill="none" xmlns="http://www.w3.org/2000/svg">
<path d="M10 11H3C2.448 11 2 10.552 2 10V3C2 2.448 2.448 2 3 2H10C10.552 2 11 2.448 11 3V10C11 10.552 10.552 11 10 11ZM4 9H9V4H4V9Z" fill="black"/>
<path d="M21 11H14C13.447 11 13 10.552 13 10V3C13 2.448 13.447 2 14 2H21C21.553 2 22 2.448 22 3V10C22 10.552 21.553 11 21 11ZM15 9H20V4H15V9Z" fill="black"/>
<path d="M21 22H14C13.447 22 13 21.553 13 21V14C13 13.447 13.447 13 14 13H21C21.553 13 22 13.447 22 14V21C22 21.553 21.553 22 21 22ZM15 20H20V15H15V20Z" fill="black"/>
<path d="M10 22H3C2.448 22 2 21.553 2 21V14C2 13.447 2.448 13 3 13H10C10.552 13 11 13.447 11 14V21C11 21.553 10.552 22 10 22ZM4 20H9V15H4V20Z" fill="black"/>
</svg>
