<?xml version="1.0" encoding="UTF-8"?>
<svg width="24px" height="24px" viewBox="0 0 24 24" version="1.1" xmlns="http://www.w3.org/2000/svg" xmlns:xlink="http://www.w3.org/1999/xlink">
    <!-- Generator: Sketch 49.3 (51167) - http://www.bohemiancoding.com/sketch -->
    <title>consultation</title>
    <desc>Created with Sketch.</desc>
    <defs></defs>
    <g id="consultation" stroke="none" stroke-width="1" fill="none" fill-rule="evenodd">
        <path d="M19,4 L14.82,4 C14.4,2.84 13.3,2 12,2 C10.7,2 9.6,2.84 9.18,4 L5,4 C3.9,4 3,4.9 3,6 L3,20 C3,21.1 3.9,22 5,22 L19,22 C20.1,22 21,21.1 21,20 L21,6 C21,4.9 20.1,4 19,4 L19,4 Z M12,4 C12.55,4 13,4.45 13,5 C13,5.55 12.55,6 12,6 C11.45,6 11,5.55 11,5 C11,4.45 11.45,4 12,4 L12,4 Z M14,18 L7,18 L7,16 L14,16 L14,18 L14,18 Z M17,14 L7,14 L7,12 L17,12 L17,14 L17,14 Z M17,10 L7,10 L7,8 L17,8 L17,10 L17,10 Z" id="Icon" fill="#000000"></path>
    </g>
</svg>