<svg xmlns="http://www.w3.org/2000/svg" viewBox="0 0 20 20">
  <path fill="#FFFFFF" fill-rule="evenodd" d="M9.29744595,15.2008523 C9.68545584,15.5895544 10,15.4608505 10,14.9030146 L10,11.001645 C10,10.4484518 9.55698112,10 9.00013858,10 L5.10571604,10 C4.55350783,10 4.41805652,10.3127588 4.81628737,10.7117 L6.35117293,12.2493236 L2.70877515,15.8982189 C2.31732944,16.2903629 2.32221685,16.93105 2.7109108,17.3204373 L2.67835259,17.287821 C3.07097778,17.6811466 3.70218901,17.6865162 4.09803853,17.2899605 L7.74043632,13.6410652 L9.29744595,15.2008523 Z M10.702554,4.79914766 C10.3145442,4.41044562 10,4.53914952 10,5.09698538 L10,8.99835498 C10,9.55154825 10.4430189,10 10.9998614,10 L14.894284,10 C15.4464922,10 15.5819435,9.68724119 15.1837126,9.28829995 L13.6488271,7.75067639 L17.2912249,4.10178112 C17.6826706,3.70963713 17.6777831,3.06894999 17.2890892,2.67956267 L17.3216474,2.71217896 C16.9290222,2.31885338 16.297811,2.31348384 15.9019615,2.71003949 L12.2595637,6.35893476 L10.702554,4.79914766 Z"/>
</svg>
