<svg width="24" height="24" viewBox="0 0 24 24" fill="none" xmlns="http://www.w3.org/2000/svg">
<path d="M20 23H11C9.346 23 8 21.654 8 20V11C8 9.346 9.346 8 11 8H20C21.654 8 23 9.346 23 11V20C23 21.654 21.654 23 20 23ZM11 10C10.449 10 10 10.449 10 11V20C10 20.552 10.449 21 11 21H20C20.552 21 21 20.552 21 20V11C21 10.449 20.552 10 20 10H11Z" fill="black"/>
<path d="M5 16H4C2.346 16 1 14.654 1 13V4C1 2.346 2.346 1 4 1H13C14.654 1 16 2.346 16 4V5C16 5.552 15.553 6 15 6C14.447 6 14 5.552 14 5V4C14 3.449 13.552 3 13 3H4C3.449 3 3 3.449 3 4V13C3 13.552 3.449 14 4 14H5C5.552 14 6 14.447 6 15C6 15.553 5.552 16 5 16Z" fill="black"/>
</svg>
