<svg width="24" height="24" viewBox="0 0 24 24" fill="none" xmlns="http://www.w3.org/2000/svg">
<g clip-path="url(#clip0)">
<path d="M23 19H8C6.346 19 5 17.654 5 16L5.13 0.991C5.135 0.442 5.582 0 6.13 0C6.133 0 6.136 0 6.139 0C6.691 0.005 7.135 0.457 7.13 1.009L7 16.009C7 16.552 7.449 17 8 17H23C23.553 17 24 17.447 24 18C24 18.553 23.553 19 23 19Z" fill="black"/>
<path d="M18 24C17.447 24 17 23.553 17 23V8C17 7.449 16.552 7 16 7L1.00904 7.13C1.00604 7.13 1.00304 7.13 1.00004 7.13C0.452042 7.13 0.00504182 6.688 4.18185e-05 6.139C-0.00495818 5.586 0.439042 5.135 0.991042 5.13L15.991 5C17.654 5 19 6.346 19 8V23C19 23.553 18.553 24 18 24Z" fill="black"/>
</g>
<defs>
<clipPath id="clip0">
<rect width="24" height="24" fill="white"/>
</clipPath>
</defs>
</svg>
