<svg width="24" height="24" viewBox="0 0 24 24" fill="none" xmlns="http://www.w3.org/2000/svg">
<path d="M12 23C5.935 23 1 18.065 1 12C1 5.935 5.935 1 12 1C18.065 1 23 5.935 23 12C23 18.065 18.065 23 12 23ZM12 3C7.038 3 3 7.038 3 12C3 16.963 7.038 21 12 21C16.963 21 21 16.963 21 12C21 7.038 16.963 3 12 3Z" fill="black"/>
<path d="M22 13H18C17.447 13 17 12.552 17 12C17 11.448 17.447 11 18 11H22C22.553 11 23 11.448 23 12C23 12.552 22.553 13 22 13Z" fill="black"/>
<path d="M6 13H2C1.448 13 1 12.552 1 12C1 11.448 1.448 11 2 11H6C6.552 11 7 11.448 7 12C7 12.552 6.552 13 6 13Z" fill="black"/>
<path d="M12 7C11.448 7 11 6.552 11 6V2C11 1.448 11.448 1 12 1C12.552 1 13 1.448 13 2V6C13 6.552 12.552 7 12 7Z" fill="black"/>
<path d="M12 23C11.448 23 11 22.553 11 22V18C11 17.447 11.448 17 12 17C12.552 17 13 17.447 13 18V22C13 22.553 12.552 23 12 23Z" fill="black"/>
</svg>
