<svg width="24" height="24" viewBox="0 0 24 24" fill="none" xmlns="http://www.w3.org/2000/svg">
<path d="M12 9C7.184 9 2 7.748 2 5C2 2.252 7.184 1 12 1C16.816 1 22 2.252 22 5C22 7.748 16.816 9 12 9ZM12 3C6.75 3 4 4.486 4 5C4 5.514 6.75 7 12 7C17.249 7 20 5.514 20 5C20 4.486 17.249 3 12 3Z" fill="black"/>
<path d="M12 16C7.184 16 2 14.748 2 12C2 11.448 2.448 11 3 11C3.552 11 4 11.448 4 12C4 12.466 6.494 14 12 14C17.506 14 20 12.466 20 12C20 11.448 20.447 11 21 11C21.553 11 22 11.448 22 12C22 14.748 16.816 16 12 16Z" fill="black"/>
<path d="M12 23C7.184 23 2 21.748 2 19V5C2 4.448 2.448 4 3 4C3.552 4 4 4.448 4 5V19C4 19.466 6.494 21 12 21C17.506 21 20 19.466 20 19V5C20 4.448 20.447 4 21 4C21.553 4 22 4.448 22 5V19C22 21.748 16.816 23 12 23Z" fill="black"/>
</svg>
