<svg width="24" height="24" viewBox="0 0 24 24" fill="none" xmlns="http://www.w3.org/2000/svg">
<g clip-path="url(#clip0)">
<path d="M21 21H7.99999C7.71099 21 7.43799 20.876 7.24799 20.658L0.247988 12.658C-0.0820117 12.281 -0.0820117 11.718 0.247988 11.341L7.24799 3.341C7.43799 3.125 7.71099 3 7.99999 3H21C22.654 3 24 4.346 24 6V18C24 19.654 22.654 21 21 21ZM8.45399 19H21C21.552 19 22 18.552 22 18V6C22 5.449 21.552 5 21 5H8.45399L2.32899 12L8.45399 19Z" fill="black"/>
<path d="M12 15.9998C11.744 15.9998 11.488 15.9018 11.293 15.7068C10.902 15.3158 10.902 14.6838 11.293 14.2928L17.293 8.29276C17.684 7.90176 18.316 7.90176 18.707 8.29276C19.098 8.68376 19.098 9.31576 18.707 9.70676L12.707 15.7068C12.512 15.9018 12.256 15.9998 12 15.9998Z" fill="black"/>
<path d="M18 15.9998C17.744 15.9998 17.488 15.9018 17.293 15.7068L11.293 9.70676C10.902 9.31576 10.902 8.68376 11.293 8.29276C11.684 7.90176 12.316 7.90176 12.707 8.29276L18.707 14.2928C19.098 14.6838 19.098 15.3158 18.707 15.7068C18.512 15.9018 18.256 15.9998 18 15.9998Z" fill="black"/>
</g>
<defs>
<clipPath id="clip0">
<rect width="24" height="24" fill="white"/>
</clipPath>
</defs>
</svg>
