<svg width="24" height="24" viewBox="0 0 24 24" fill="none" xmlns="http://www.w3.org/2000/svg">
<path d="M19 22H5C3.346 22 2 20.654 2 19V15C2 14.447 2.448 14 3 14C3.552 14 4 14.447 4 15V19C4 19.552 4.449 20 5 20H19C19.552 20 20 19.552 20 19V15C20 14.447 20.447 14 21 14C21.553 14 22 14.447 22 15V19C22 20.654 20.654 22 19 22Z" fill="black"/>
<path d="M12 15.9998C11.744 15.9998 11.488 15.9018 11.293 15.7068L6.29301 10.7068C5.90201 10.3158 5.90201 9.68376 6.29301 9.29276C6.68401 8.90176 7.31601 8.90176 7.70701 9.29276L12 13.5858L16.293 9.29276C16.684 8.90176 17.316 8.90176 17.707 9.29276C18.098 9.68376 18.098 10.3158 17.707 10.7068L12.707 15.7068C12.512 15.9018 12.256 15.9998 12 15.9998Z" fill="black"/>
<path d="M12 16C11.448 16 11 15.553 11 15V3C11 2.448 11.448 2 12 2C12.552 2 13 2.448 13 3V15C13 15.553 12.552 16 12 16Z" fill="black"/>
</svg>
