<svg width="24" height="24" viewBox="0 0 24 24" fill="none" xmlns="http://www.w3.org/2000/svg">
<g clip-path="url(#clip0)">
<path d="M12 21.9998C11.744 21.9998 11.488 21.9018 11.293 21.7068L7.29301 17.7068C6.90201 17.3158 6.90201 16.6838 7.29301 16.2928C7.68401 15.9018 8.31601 15.9018 8.70701 16.2928L12 19.5858L15.293 16.2928C15.684 15.9018 16.316 15.9018 16.707 16.2928C17.098 16.6838 17.098 17.3158 16.707 17.7068L12.707 21.7068C12.512 21.9018 12.256 21.9998 12 21.9998Z" fill="black"/>
<path d="M12 22C11.448 22 11 21.553 11 21V12C11 11.448 11.448 11 12 11C12.552 11 13 11.448 13 12V21C13 21.553 12.552 22 12 22Z" fill="black"/>
<path d="M20.8811 19.0901C20.5671 19.0901 20.2571 18.9422 20.0621 18.6651C19.7451 18.2132 19.8531 17.5901 20.3051 17.2711C21.1791 16.6571 21.7611 15.7391 21.9451 14.6861C22.1291 13.6331 21.8911 12.5731 21.2761 11.6991C20.5281 10.6351 19.3061 10.0001 18.0051 10.0001C18.0031 10.0001 18.0021 10.0001 18.0011 10.0001H16.7401C16.2841 10.0001 15.8851 9.69115 15.7711 9.24915C14.8111 5.51015 10.9901 3.24915 7.25008 4.20815C5.44008 4.67215 3.91808 5.81515 2.96608 7.42415C2.01408 9.03315 1.74608 10.9171 2.21108 12.7281C2.48508 13.7981 3.01708 14.8011 3.74908 15.6271C4.11508 16.0411 4.07708 16.6731 3.66408 17.0391C3.25008 17.4041 2.61808 17.3661 2.25208 16.9531C1.31108 15.8901 0.627083 14.6001 0.274083 13.2241C-0.322917 10.8961 0.0220835 8.47415 1.24608 6.40515C2.47008 4.33615 4.42608 2.86715 6.75508 2.27015C11.3011 1.10415 15.9521 3.64615 17.4811 8.00015H18.0001C18.0021 8.00015 18.0041 8.00015 18.0061 8.00015C19.9561 8.00015 21.7901 8.95315 22.9121 10.5491C23.8341 11.8591 24.1901 13.4511 23.9151 15.0301C23.6401 16.6091 22.7661 17.9861 21.4551 18.9081C21.2801 19.0311 21.0791 19.0901 20.8811 19.0901Z" fill="black"/>
</g>
<defs>
<clipPath id="clip0">
<rect width="24" height="24" fill="white"/>
</clipPath>
</defs>
</svg>
