<svg width="24" height="24" viewBox="0 0 24 24" fill="none" xmlns="http://www.w3.org/2000/svg">
<path d="M7 17.9998H3C2.448 17.9998 2 17.5528 2 16.9998V12.9998C2 12.7348 2.105 12.4798 2.293 12.2928L13.293 1.29276C13.684 0.901762 14.316 0.901762 14.707 1.29276L18.707 5.29276C19.098 5.68376 19.098 6.31576 18.707 6.70676L7.707 17.7068C7.52 17.8948 7.265 17.9998 7 17.9998ZM4 15.9998H6.586L16.586 5.99976L14 3.41376L4 13.4138V15.9998Z" fill="black"/>
<path d="M21 23H3C2.448 23 2 22.553 2 22C2 21.447 2.448 21 3 21H21C21.553 21 22 21.447 22 22C22 22.553 21.553 23 21 23Z" fill="black"/>
</svg>
