<svg width="24" height="24" viewBox="0 0 24 24" fill="none" xmlns="http://www.w3.org/2000/svg">
<path d="M18 23H4C2.346 23 1 21.654 1 20V6C1 4.346 2.346 3 4 3H9.34C9.892 3 10.34 3.448 10.34 4C10.34 4.552 9.892 5 9.34 5H4C3.449 5 3 5.449 3 6V20C3 20.552 3.449 21 4 21H18C18.552 21 19 20.552 19 20V14.66C19 14.107 19.447 13.66 20 13.66C20.553 13.66 21 14.107 21 14.66V20C21 21.654 19.654 23 18 23Z" fill="black"/>
<path d="M12 16.9998H8C7.448 16.9998 7 16.5528 7 15.9998V11.9998C7 11.7348 7.105 11.4798 7.293 11.2928L17.293 1.29276C17.684 0.901762 18.316 0.901762 18.707 1.29276L22.707 5.29276C23.098 5.68376 23.098 6.31576 22.707 6.70676L12.707 16.7068C12.52 16.8948 12.265 16.9998 12 16.9998ZM9 14.9998H11.586L20.586 5.99976L18 3.41376L9 12.4138V14.9998Z" fill="black"/>
</svg>
