<svg width="24" height="24" viewBox="0 0 24 24" fill="none" xmlns="http://www.w3.org/2000/svg">
<path d="M16 22H5C3.346 22 2 20.654 2 19V8C2 6.346 3.346 5 5 5H11C11.552 5 12 5.448 12 6C12 6.552 11.552 7 11 7H5C4.449 7 4 7.449 4 8V19C4 19.552 4.449 20 5 20H16C16.552 20 17 19.552 17 19V13C17 12.448 17.447 12 18 12C18.553 12 19 12.448 19 13V19C19 20.654 17.654 22 16 22Z" fill="black"/>
<path d="M21 10C20.447 10 20 9.552 20 9V4H15C14.447 4 14 3.552 14 3C14 2.448 14.447 2 15 2H21C21.553 2 22 2.448 22 3V9C22 9.552 21.553 10 21 10Z" fill="black"/>
<path d="M10 14.9998C9.74401 14.9998 9.48801 14.9018 9.29301 14.7068C8.90201 14.3158 8.90201 13.6838 9.29301 13.2928L20.293 2.29276C20.684 1.90176 21.316 1.90176 21.707 2.29276C22.098 2.68376 22.098 3.31576 21.707 3.70676L10.707 14.7068C10.512 14.9018 10.256 14.9998 10 14.9998Z" fill="black"/>
</svg>
