<svg width="24" height="24" viewBox="0 0 24 24" fill="none" xmlns="http://www.w3.org/2000/svg">
<g clip-path="url(#clip0)">
<path d="M12.0161 20.9998C4.46911 20.9998 0.280108 12.7958 0.105108 12.4468C-0.0398922 12.1558 -0.0348922 11.8128 0.118108 11.5268C1.43811 9.0668 3.23311 6.9598 5.45211 5.2648C5.89011 4.9288 6.51911 5.0148 6.85411 5.4528C7.19011 5.8918 7.10611 6.5198 6.66711 6.8548C4.81911 8.2658 3.29911 9.9958 2.14411 12.0008C3.08311 13.6128 6.62611 18.9998 12.0001 18.9998C13.9331 18.9678 15.7831 18.3268 17.3341 17.1448C17.7751 16.8098 18.4001 16.8958 18.7361 17.3338C19.0701 17.7728 18.9851 18.4008 18.5471 18.7358C16.6531 20.1778 14.3961 20.9608 12.0161 20.9998ZM20.8391 16.1898C20.6121 16.1898 20.3841 16.1128 20.1961 15.9558C19.7731 15.5998 19.7181 14.9688 20.0741 14.5468C20.7411 13.7548 21.3391 12.8998 21.8561 11.9998C20.9181 10.3888 17.3751 4.9998 12.0001 4.9998C11.3951 5.0338 10.7401 5.0708 10.1281 5.2138C9.59211 5.3398 9.05211 5.0058 8.92611 4.4678C8.80011 3.9298 9.13411 3.3928 9.67211 3.2668C10.4341 3.0888 11.1951 2.9658 12.0021 2.9998C19.5311 2.9998 23.7201 11.2038 23.8951 11.5528C24.0401 11.8428 24.0361 12.1858 23.8821 12.4718C23.2421 13.6678 22.4771 14.7988 21.6061 15.8338C21.4071 16.0688 21.1241 16.1898 20.8391 16.1898ZM11.9221 16.0748C10.9071 16.0748 9.94411 15.6958 9.19811 15.0008C8.41611 14.2728 7.96511 13.2838 7.92711 12.2158C7.88911 11.1478 8.27011 10.1288 8.99811 9.3468C9.06011 9.2808 9.12611 9.2138 9.19611 9.1478C9.60011 8.7728 10.2321 8.7928 10.6101 9.1958C10.9871 9.5998 10.9651 10.2328 10.5621 10.6098C10.5281 10.6408 10.4961 10.6738 10.4641 10.7078C10.0971 11.1018 9.90711 11.6108 9.92511 12.1448C9.94411 12.6788 10.1701 13.1728 10.5601 13.5378C10.9521 13.9018 11.4801 14.0978 11.9941 14.0728C12.5281 14.0538 13.0231 13.8288 13.3871 13.4378C13.7651 13.0328 14.3971 13.0118 14.8001 13.3878C15.2041 13.7638 15.2271 14.3968 14.8501 14.8008C14.1211 15.5818 13.1321 16.0328 12.0651 16.0718C12.0181 16.0738 11.9701 16.0748 11.9221 16.0748Z" fill="black"/>
<path d="M23 23.9998C22.744 23.9998 22.488 23.9018 22.293 23.7068L0.293006 1.70676C-0.0979941 1.31576 -0.0979941 0.683762 0.293006 0.292762C0.684006 -0.0982383 1.31601 -0.0982383 1.70701 0.292762L23.707 22.2928C24.098 22.6838 24.098 23.3158 23.707 23.7068C23.512 23.9018 23.256 23.9998 23 23.9998Z" fill="black"/>
</g>
<defs>
<clipPath id="clip0">
<rect width="24" height="24" fill="white"/>
</clipPath>
</defs>
</svg>
