<svg width="24" height="24" viewBox="0 0 24 24" fill="none" xmlns="http://www.w3.org/2000/svg">
<g clip-path="url(#clip0)">
<path d="M12 21C4.46902 21 0.280018 12.796 0.105018 12.447C-0.0359824 12.165 -0.0359824 11.834 0.105018 11.552C0.280018 11.204 4.46902 3 12 3C19.531 3 23.72 11.204 23.895 11.553C24.036 11.835 24.036 12.166 23.895 12.448C23.72 12.796 19.531 21 12 21ZM2.14202 11.999C3.07902 13.607 6.62302 19 12 19C17.394 19 20.924 13.611 21.858 12.001C20.921 10.393 17.377 5 12 5C6.60602 5 3.07602 10.389 2.14202 11.999Z" fill="black"/>
<path d="M12 16C9.794 16 8 14.206 8 12C8 9.794 9.794 8 12 8C14.206 8 16 9.794 16 12C16 14.206 14.206 16 12 16ZM12 10C10.897 10 10 10.897 10 12C10 13.103 10.897 14 12 14C13.103 14 14 13.103 14 12C14 10.897 13.103 10 12 10Z" fill="black"/>
</g>
<defs>
<clipPath id="clip0">
<rect width="24" height="24" fill="white"/>
</clipPath>
</defs>
</svg>
