<svg width="24" height="24" viewBox="0 0 24 24" fill="none" xmlns="http://www.w3.org/2000/svg">
<path d="M13 20.0002C12.85 20.0002 12.7 19.9672 12.561 19.8982C12.218 19.7302 12 19.3822 12 19.0002V5.00017C12 4.61817 12.218 4.27017 12.561 4.10217C12.904 3.93517 13.312 3.97717 13.615 4.21117L22.615 11.2112C22.857 11.4002 23 11.6912 23 12.0002C23 12.3092 22.857 12.6002 22.614 12.7902L13.614 19.7902C13.435 19.9292 13.218 20.0002 13 20.0002ZM14 7.04417V16.9552L20.371 12.0002L14 7.04417Z" fill="black"/>
<path d="M2 20C1.85 20 1.7 19.967 1.561 19.898C1.218 19.73 1 19.382 1 19V4.99998C1 4.61798 1.218 4.26998 1.561 4.10198C1.904 3.93398 2.312 3.97598 2.614 4.20998L11.614 11.21C11.857 11.4 12 11.691 12 12C12 12.309 11.857 12.6 11.614 12.79L2.614 19.79C2.435 19.929 2.218 20 2 20ZM3 7.04398V16.955L9.371 12L3 7.04398Z" fill="black"/>
</svg>
