<svg width="24" height="24" viewBox="0 0 24 24" fill="none" xmlns="http://www.w3.org/2000/svg">
<path d="M18 23H6C4.346 23 3 21.654 3 20V4C3 2.346 4.346 1 6 1H13C13.266 1 13.52 1.105 13.707 1.293L20.707 8.293C20.895 8.48 21 8.735 21 9V20C21 21.654 19.654 23 18 23ZM6 3C5.449 3 5 3.449 5 4V20C5 20.552 5.449 21 6 21H18C18.552 21 19 20.552 19 20V9.414L12.586 3H6Z" fill="black"/>
<path d="M20 10H13C12.448 10 12 9.552 12 9V2C12 1.448 12.448 1 13 1C13.553 1 14 1.448 14 2V8H20C20.553 8 21 8.448 21 9C21 9.552 20.553 10 20 10Z" fill="black"/>
</svg>
