<svg width="24" height="24" viewBox="0 0 24 24" fill="none" xmlns="http://www.w3.org/2000/svg">
<path d="M18 23H6C4.346 23 3 21.654 3 20V4C3 2.346 4.346 1 6 1H14C14.266 1 14.52 1.105 14.707 1.293L20.707 7.293C20.895 7.48 21 7.735 21 8V20C21 21.654 19.654 23 18 23ZM6 3C5.449 3 5 3.449 5 4V20C5 20.552 5.449 21 6 21H18C18.552 21 19 20.552 19 20V8.414L13.586 3H6Z" fill="black"/>
<path d="M20 9H14C13.447 9 13 8.552 13 8V2C13 1.448 13.447 1 14 1C14.553 1 15 1.448 15 2V7H20C20.553 7 21 7.448 21 8C21 8.552 20.553 9 20 9Z" fill="black"/>
<path d="M16 14H8C7.448 14 7 13.553 7 13C7 12.448 7.448 12 8 12H16C16.553 12 17 12.448 17 13C17 13.553 16.553 14 16 14Z" fill="black"/>
<path d="M16 18H8C7.448 18 7 17.553 7 17C7 16.447 7.448 16 8 16H16C16.553 16 17 16.447 17 17C17 17.553 16.553 18 16 18Z" fill="black"/>
<path d="M10 10H8C7.448 10 7 9.552 7 9C7 8.448 7.448 8 8 8H10C10.552 8 11 8.448 11 9C11 9.552 10.552 10 10 10Z" fill="black"/>
</svg>
