<svg width="24" height="24" viewBox="0 0 24 24" fill="none" xmlns="http://www.w3.org/2000/svg">
<path d="M18 23H6C4.346 23 3 21.654 3 20V4C3 2.346 4.346 1 6 1H14C14.266 1 14.52 1.105 14.707 1.293L20.707 7.293C20.895 7.48 21 7.735 21 8V20C21 21.654 19.654 23 18 23ZM6 3C5.449 3 5 3.449 5 4V20C5 20.552 5.449 21 6 21H18C18.552 21 19 20.552 19 20V8.414L13.586 3H6Z" fill="black"/>
<path d="M20 9H14C13.447 9 13 8.552 13 8V2C13 1.448 13.447 1 14 1C14.553 1 15 1.448 15 2V7H20C20.553 7 21 7.448 21 8C21 8.552 20.553 9 20 9Z" fill="black"/>
<path d="M12 19C11.448 19 11 18.553 11 18V12C11 11.448 11.448 11 12 11C12.552 11 13 11.448 13 12V18C13 18.553 12.552 19 12 19Z" fill="black"/>
<path d="M15 16H9C8.448 16 8 15.553 8 15C8 14.447 8.448 14 9 14H15C15.553 14 16 14.447 16 15C16 15.553 15.553 16 15 16Z" fill="black"/>
</svg>
