<svg width="24" height="24" viewBox="0 0 24 24" fill="none" xmlns="http://www.w3.org/2000/svg">
<path d="M14 22C13.847 22 13.694 21.965 13.553 21.895L9.55303 19.895C9.21403 19.725 9.00003 19.379 9.00003 19V12.826L1.23603 3.646C0.985028 3.349 0.929028 2.932 1.09303 2.579C1.25703 2.226 1.61103 2 2.00003 2H22C22.39 2 22.743 2.226 22.907 2.579C23.071 2.932 23.014 3.349 22.763 3.645L15 12.826V21C15 21.347 14.82 21.668 14.525 21.851C14.365 21.95 14.183 22 14 22ZM11 18.382L13 19.382V12.46C13 12.224 13.084 11.995 13.236 11.814L19.845 4H4.15503L10.763 11.814C10.916 11.995 11 12.224 11 12.46V18.382Z" fill="black"/>
</svg>
