<svg width="24" height="24" viewBox="0 0 24 24" fill="none" xmlns="http://www.w3.org/2000/svg">
<path d="M16 17C14.308 17 12.946 16.455 11.628 15.929C10.435 15.451 9.308 15 8 15C5.555 15 4.69 15.724 4.682 15.731C4.386 15.988 3.953 16.06 3.599 15.897C3.242 15.734 3 15.392 3 15V3C3 2.735 3.105 2.48 3.293 2.293C3.509 2.077 4.75 1 8 1C9.692 1 11.054 1.545 12.372 2.071C13.565 2.549 14.692 3 16 3C18.444 3 19.31 2.276 19.318 2.269C19.614 2.013 20.044 1.941 20.402 2.103C20.758 2.266 21 2.609 21 3V15C21 15.266 20.895 15.52 20.707 15.707C20.491 15.923 19.25 17 16 17ZM8 13C9.692 13 11.054 13.545 12.372 14.071C13.565 14.549 14.692 15 16 15C17.633 15 18.562 14.677 19 14.46V4.606C18.279 4.828 17.301 5 16 5C14.308 5 12.946 4.455 11.628 3.929C10.435 3.451 9.308 3 8 3C6.367 3 5.439 3.323 5 3.54V13.394C5.72 13.173 6.699 13 8 13Z" fill="black"/>
<path d="M4 23C3.448 23 3 22.553 3 22V15C3 14.447 3.448 14 4 14C4.552 14 5 14.447 5 15V22C5 22.553 4.552 23 4 23Z" fill="black"/>
</svg>
