<svg width="24" height="24" viewBox="0 0 24 24" fill="none" xmlns="http://www.w3.org/2000/svg">
<path d="M20 22H4C2.346 22 1 20.654 1 19V5C1 3.346 2.346 2 4 2H9C9.334 2 9.646 2.167 9.832 2.445L11.535 5H20C21.654 5 23 6.346 23 8V19C23 20.654 21.654 22 20 22ZM4 4C3.449 4 3 4.449 3 5V19C3 19.552 3.449 20 4 20H20C20.552 20 21 19.552 21 19V8C21 7.449 20.552 7 20 7H11C10.666 7 10.354 6.833 10.168 6.555L8.465 4H4Z" fill="black"/>
<path d="M15 15H9C8.448 15 8 14.553 8 14C8 13.447 8.448 13 9 13H15C15.553 13 16 13.447 16 14C16 14.553 15.553 15 15 15Z" fill="black"/>
</svg>
