<svg xmlns="http://www.w3.org/2000/svg" viewBox="0 0 20 20">
  <path fill="#FFFFFF" fill-rule="evenodd" d="M2.70255405,12.7991477 C2.31454416,12.4104456 2,12.5391495 2,13.0969854 L2,16.998355 C2,17.5515482 2.44301888,18 2.99986142,18 L6.89428396,18 C7.44649217,18 7.58194348,17.6872412 7.18371263,17.2883 L5.64882707,15.7506764 L9.29122485,12.1017811 C9.68267056,11.7096371 9.67778315,11.06895 9.2890892,10.6795627 L9.32164741,10.712179 C8.92902222,10.3188534 8.29781099,10.3134838 7.90196147,10.7100395 L4.25956368,14.3589348 L2.70255405,12.7991477 Z M17.297446,7.20085234 C17.6854558,7.58955438 18,7.46085048 18,6.90301462 L18,3.00164502 C18,2.44845175 17.5569811,2 17.0001386,2 L13.105716,2 C12.5535078,2 12.4180565,2.31275881 12.8162874,2.71170005 L14.3511729,4.24932361 L10.7087751,7.89821888 C10.3173294,8.29036287 10.3222169,8.93105001 10.7109108,9.32043733 L10.6783526,9.28782104 C11.0709778,9.68114662 11.702189,9.68651616 12.0980385,9.28996051 L15.7404363,5.64106524 L17.297446,7.20085234 Z"/>
</svg>
