<svg width="24" height="24" viewBox="0 0 24 24" fill="none" xmlns="http://www.w3.org/2000/svg">
<path d="M20 23H4C3.448 23 3 22.553 3 22V12C3 11.448 3.448 11 4 11C4.552 11 5 11.448 5 12V21H19V12C19 11.448 19.447 11 20 11C20.553 11 21 11.448 21 12V22C21 22.553 20.553 23 20 23Z" fill="black"/>
<path d="M22 13H2C1.448 13 1 12.552 1 12V7C1 6.448 1.448 6 2 6H22C22.553 6 23 6.448 23 7V12C23 12.552 22.553 13 22 13ZM3 11H21V8H3V11Z" fill="black"/>
<path d="M12 23C11.448 23 11 22.553 11 22V7C11 6.448 11.448 6 12 6C12.552 6 13 6.448 13 7V22C13 22.553 12.552 23 12 23Z" fill="black"/>
<path d="M12 8H7.5C5.57 8 4 6.43 4 4.5C4 2.57 5.57 1 7.5 1C11.771 1 12.933 6.567 12.98 6.804C13.039 7.098 12.963 7.403 12.773 7.634C12.583 7.866 12.3 8 12 8ZM7.5 3C6.673 3 6 3.673 6 4.5C6 5.327 6.673 6 7.5 6H10.654C10.183 4.759 9.213 3 7.5 3Z" fill="black"/>
<path d="M16.5001 8H12.0001C11.7001 8 11.4171 7.866 11.2271 7.634C11.0371 7.403 10.9611 7.098 11.0201 6.804C11.0671 6.567 12.2291 1 16.5001 1C18.4301 1 20.0001 2.57 20.0001 4.5C20.0001 6.43 18.4301 8 16.5001 8ZM13.3461 6H16.5001C17.3271 6 18.0001 5.327 18.0001 4.5C18.0001 3.673 17.3271 3 16.5001 3C14.7871 3 13.8161 4.759 13.3461 6Z" fill="black"/>
</svg>
