<svg width="24" height="24" viewBox="0 0 24 24" fill="none" xmlns="http://www.w3.org/2000/svg">
<path d="M12 23C5.935 23 1 18.065 1 12C1 5.935 5.935 1 12 1C18.065 1 23 5.935 23 12C23 18.065 18.065 23 12 23ZM12 3C7.038 3 3 7.038 3 12C3 16.963 7.038 21 12 21C16.963 21 21 16.963 21 12C21 7.038 16.963 3 12 3Z" fill="black"/>
<path d="M22 13H2C1.448 13 1 12.552 1 12C1 11.448 1.448 11 2 11H22C22.553 11 23 11.448 23 12C23 12.552 22.553 13 22 13Z" fill="black"/>
<path d="M12 23C11.719 23 11.451 22.882 11.262 22.675C8.596 19.756 7.083 15.973 7 12.021C7.083 8.027 8.596 4.244 11.262 1.326C11.451 1.118 11.719 1 12 1C12.281 1 12.549 1.118 12.738 1.326C15.404 4.244 16.918 8.028 17 11.979C16.918 15.972 15.404 19.756 12.738 22.675C12.549 22.882 12.281 23 12 23ZM12 3.551C10.122 5.97 9.064 8.937 9 12.021C9.064 15.067 10.122 18.03 12 20.449C13.879 18.029 14.937 15.062 15 11.979C14.937 8.933 13.879 5.97 12 3.551Z" fill="black"/>
</svg>
