<svg width="24" height="24" viewBox="0 0 24 24" fill="none" xmlns="http://www.w3.org/2000/svg">
<path d="M20 10H4C3.448 10 3 9.552 3 9C3 8.448 3.448 8 4 8H20C20.553 8 21 8.448 21 9C21 9.552 20.553 10 20 10Z" fill="black"/>
<path d="M20 16H4C3.448 16 3 15.553 3 15C3 14.447 3.448 14 4 14H20C20.553 14 21 14.447 21 15C21 15.553 20.553 16 20 16Z" fill="black"/>
<path d="M8.00097 21.9998C7.96397 21.9998 7.92697 21.9978 7.88897 21.9938C7.33997 21.9318 6.94497 21.4378 7.00597 20.8898L9.00597 2.88983C9.06697 2.34083 9.56497 1.93983 10.11 2.00683C10.659 2.06783 11.054 2.56183 10.993 3.11083L8.99297 21.1108C8.93697 21.6218 8.50397 21.9998 8.00097 21.9998Z" fill="black"/>
<path d="M14.001 22C13.964 22 13.927 21.998 13.89 21.994C13.341 21.932 12.946 21.438 13.006 20.89L15.006 2.89001C15.067 2.34101 15.575 1.94701 16.11 2.00701C16.659 2.06801 17.054 2.56201 16.994 3.11101L14.994 21.111C14.938 21.622 14.504 22 14.001 22Z" fill="black"/>
</svg>
