<svg width="12" height="12" viewBox="0 0 12 12" fill="none" xmlns="http://www.w3.org/2000/svg">
<path opacity="1" fill-rule="evenodd" clip-rule="evenodd" d="M2.60589 2.5941C3.50606 1.698 4.72696 1.19457 6 1.19457C7.27304 1.19457 8.49394 1.698 9.39411 2.5941C10.2943 3.4902 10.8 4.70558 10.8 5.97286V6.46154H9.6C9.12261 6.46154 8.66477 6.65605 8.32721 7.00227C7.98964 7.34849 7.8 7.81807 7.8 8.3077V10.1539C7.8 10.6435 7.98964 11.1131 8.32721 11.4593C8.66477 11.8055 9.12261 12 9.6 12H10.2C10.6774 12 11.1352 11.8055 11.4728 11.4593C11.8104 11.1131 12 10.6435 12 10.1539V9.55657V7.07693V5.97286C12 4.38876 11.3679 2.86954 10.2426 1.74941C9.11742 0.629281 7.5913 0 6 0C4.4087 0 2.88258 0.629281 1.75736 1.74941C0.632141 2.86954 0 4.38876 0 5.97286V7.07693V9.55657V10.1539C0 10.6435 0.189642 11.1131 0.527208 11.4593C0.864773 11.8055 1.32261 12 1.8 12H2.4C2.87739 12 3.33523 11.8055 3.67279 11.4593C4.01036 11.1131 4.2 10.6435 4.2 10.1539V8.3077C4.2 7.81807 4.01036 7.34849 3.67279 7.00227C3.33523 6.65605 2.87739 6.46154 2.4 6.46154H1.2V5.97286C1.2 4.70558 1.70571 3.4902 2.60589 2.5941ZM1.2 7.69231V9.55657V10.1539C1.2 10.3171 1.26321 10.4736 1.37574 10.589C1.48826 10.7044 1.64087 10.7692 1.8 10.7692H2.4C2.55913 10.7692 2.71174 10.7044 2.82426 10.589C2.93679 10.4736 3 10.3171 3 10.1539V8.3077C3 8.14449 2.93679 7.98796 2.82426 7.87256C2.71174 7.75715 2.55913 7.69231 2.4 7.69231H1.2ZM10.8 7.69231H9.6C9.44087 7.69231 9.28826 7.75715 9.17574 7.87256C9.06321 7.98796 9 8.14449 9 8.3077V10.1539C9 10.3171 9.06321 10.4736 9.17574 10.589C9.28826 10.7044 9.44087 10.7692 9.6 10.7692H10.2C10.3591 10.7692 10.5117 10.7044 10.6243 10.589C10.7368 10.4736 10.8 10.3171 10.8 10.1539V9.55657V7.69231Z" fill="black"/>
</svg>
