<svg width="24" height="24" viewBox="0 0 24 24" fill="none" xmlns="http://www.w3.org/2000/svg">
<path d="M12.0001 22.2301C11.7351 22.2301 11.4801 22.1251 11.2931 21.9371L2.45307 13.0971C1.22507 11.8691 0.549072 10.2371 0.549072 8.50007C0.549072 6.76307 1.22507 5.13107 2.45307 3.90307C3.68107 2.67507 5.31307 1.99907 7.05007 1.99907C8.78707 1.99907 10.4191 2.67507 11.6471 3.90307L12.0001 4.25507L12.3531 3.90207C12.3591 3.89507 12.3661 3.88907 12.3731 3.88207C13.5991 2.66707 15.2231 1.99707 16.9511 1.99707H16.9521C18.6881 1.99707 20.3201 2.67407 21.5481 3.90207L21.5501 3.90407C24.0841 6.43907 24.0831 10.5631 21.5481 13.0971L12.7081 21.9371C12.5201 22.1251 12.2651 22.2301 12.0001 22.2301ZM7.05007 4.00007C5.89707 4.00007 4.74507 4.43907 3.86707 5.31707C2.11207 7.07207 2.11207 9.92807 3.86707 11.6831L12.0001 19.8161L20.1331 11.6831C20.9841 10.8331 21.4511 9.70307 21.4521 8.50107C21.4521 7.29907 20.9841 6.16907 20.1351 5.31907L20.1331 5.31707C19.2831 4.46707 18.1541 3.99907 16.9511 3.99807C16.9501 3.99807 16.9501 3.99807 16.9501 3.99807C15.7481 3.99807 14.6181 4.46607 13.7681 5.31507C13.7641 5.31907 13.7601 5.32207 13.7561 5.32607L12.7061 6.37607C12.3311 6.75107 11.6671 6.75107 11.2921 6.37607L10.2321 5.31607C9.35507 4.43907 8.20307 4.00007 7.05007 4.00007Z" fill="black"/>
</svg>
