<svg width="24" height="24" viewBox="0 0 24 24" fill="none" xmlns="http://www.w3.org/2000/svg">
<path d="M12 23C5.935 23 1 18.065 1 12C1 5.935 5.935 1 12 1C18.065 1 23 5.935 23 12C23 18.065 18.065 23 12 23ZM12 3C7.038 3 3 7.038 3 12C3 16.963 7.038 21 12 21C16.963 21 21 16.963 21 12C21 7.038 16.963 3 12 3Z" fill="black"/>
<path d="M11.9199 14C11.5009 14 11.1109 13.735 10.9709 13.316C10.7959 12.792 11.0789 12.226 11.6029 12.051C12.2019 11.848 13.9189 11.033 13.9189 10C13.9199 9.15002 13.3839 8.39002 12.5829 8.10902C11.5429 7.74402 10.3989 8.29202 10.0319 9.33202C9.85088 9.85302 9.27989 10.127 8.75789 9.94302C8.23689 9.76002 7.96289 9.18902 8.14589 8.66802C8.87789 6.58702 11.1679 5.49402 13.2469 6.22202C14.8489 6.78502 15.9229 8.30402 15.9199 10.001C15.9199 12.644 12.6129 13.823 12.2359 13.948C12.1309 13.983 12.0239 14 11.9199 14Z" fill="black"/>
<path d="M12 18.0002C11.73 18.0002 11.48 17.8992 11.29 17.7102C11.1 17.5202 11 17.2702 11 17.0002C11 16.8702 11.03 16.7402 11.08 16.6202C11.13 16.4902 11.2 16.3902 11.29 16.2902C11.66 15.9202 12.33 15.9202 12.71 16.2902C12.8 16.3902 12.87 16.5002 12.92 16.6202C12.97 16.7402 13 16.8702 13 17.0002C13 17.1302 12.97 17.2602 12.92 17.3802C12.87 17.5002 12.8 17.6092 12.71 17.7102C12.52 17.8992 12.27 18.0002 12 18.0002Z" fill="black"/>
</svg>
