<svg width="24" height="24" viewBox="0 0 24 24" fill="none" xmlns="http://www.w3.org/2000/svg">
<path d="M19 23H5C3.346 23 2 21.654 2 20V9C2 8.691 2.143 8.4 2.386 8.21L11.386 1.21C11.746 0.93 12.253 0.93 12.614 1.21L21.614 8.21C21.857 8.4 22 8.691 22 9V20C22 21.654 20.654 23 19 23ZM4 9.489V20C4 20.552 4.449 21 5 21H19C19.552 21 20 20.552 20 20V9.489L12 3.267L4 9.489Z" fill="black"/>
<path d="M15 23C14.447 23 14 22.553 14 22V13H10V22C10 22.553 9.552 23 9 23C8.448 23 8 22.553 8 22V12C8 11.448 8.448 11 9 11H15C15.553 11 16 11.448 16 12V22C16 22.553 15.553 23 15 23Z" fill="black"/>
</svg>
