<svg width="24" height="24" viewBox="0 0 24 24" fill="none" xmlns="http://www.w3.org/2000/svg">
<path d="M19 22H5C3.346 22 2 20.654 2 19V5C2 3.346 3.346 2 5 2H19C20.654 2 22 3.346 22 5V19C22 20.654 20.654 22 19 22ZM5 4C4.449 4 4 4.449 4 5V19C4 19.552 4.449 20 5 20H19C19.552 20 20 19.552 20 19V5C20 4.449 19.552 4 19 4H5Z" fill="black"/>
<path d="M8.5 11C7.122 11 6 9.878 6 8.5C6 7.122 7.122 6 8.5 6C9.878 6 11 7.122 11 8.5C11 9.878 9.878 11 8.5 11ZM8.5 8C8.224 8 8 8.224 8 8.5C8 8.776 8.224 9 8.5 9C8.776 9 9 8.776 9 8.5C9 8.224 8.776 8 8.5 8Z" fill="black"/>
<path d="M5.00001 21.9998C4.74401 21.9998 4.48801 21.9018 4.29301 21.7068C3.90201 21.3158 3.90201 20.6838 4.29301 20.2928L15.293 9.29276C15.684 8.90176 16.316 8.90176 16.707 9.29276L21.707 14.2928C22.098 14.6838 22.098 15.3158 21.707 15.7068C21.316 16.0978 20.684 16.0978 20.293 15.7068L16 11.4138L5.70701 21.7068C5.51201 21.9018 5.25601 21.9998 5.00001 21.9998Z" fill="black"/>
</svg>
