<svg width="24" height="24" viewBox="0 0 24 24" fill="none" xmlns="http://www.w3.org/2000/svg">
<path d="M14 16H10C9.666 16 9.354 15.833 9.168 15.555L7.465 13H2C1.448 13 1 12.552 1 12C1 11.448 1.448 11 2 11H8C8.334 11 8.646 11.167 8.832 11.445L10.535 14H13.465L15.168 11.445C15.354 11.167 15.666 11 16 11H22C22.553 11 23 11.448 23 12C23 12.552 22.553 13 22 13H16.535L14.832 15.555C14.646 15.833 14.334 16 14 16Z" fill="black"/>
<path d="M20 21H4C2.346 21 1 19.654 1 18V12C1 11.845 1.036 11.691 1.106 11.552L4.556 4.663C5.065 3.638 6.094 3.001 7.24 3H16.76C17.906 3.001 18.936 3.639 19.446 4.665L22.895 11.553C22.964 11.691 23 11.845 23 12V18C23 19.654 21.654 21 20 21ZM3 12.236V18C3 18.552 3.449 19 4 19H20C20.552 19 21 18.552 21 18V12.236L17.655 5.557C17.484 5.213 17.142 5 16.759 5H7.24C6.858 5 6.516 5.213 6.346 5.555C6.346 5.556 6.345 5.557 6.345 5.558L3 12.236ZM5.45 5.11H5.46H5.45Z" fill="black"/>
</svg>
