<svg width="24" height="24" viewBox="0 0 24 24" fill="none" xmlns="http://www.w3.org/2000/svg">
<path d="M12 23C5.935 23 1 18.065 1 12C1 5.935 5.935 1 12 1C18.065 1 23 5.935 23 12C23 18.065 18.065 23 12 23ZM12 3C7.038 3 3 7.038 3 12C3 16.963 7.038 21 12 21C16.963 21 21 16.963 21 12C21 7.038 16.963 3 12 3Z" fill="black"/>
<path d="M12 17C11.448 17 11 16.553 11 16V12C11 11.448 11.448 11 12 11C12.552 11 13 11.448 13 12V16C13 16.553 12.552 17 12 17Z" fill="black"/>
<path d="M12 9.00012C11.87 9.00012 11.74 8.97012 11.62 8.92012C11.49 8.87012 11.39 8.80012 11.29 8.71012C11.11 8.52012 11 8.26012 11 8.00012C11 7.94012 11.01 7.87012 11.02 7.81012C11.03 7.74012 11.05 7.68012 11.08 7.62012C11.1 7.56012 11.13 7.50012 11.17 7.44012C11.2 7.39012 11.25 7.34012 11.29 7.29012C11.39 7.20012 11.49 7.13012 11.62 7.08012C11.99 6.92012 12.43 7.02012 12.71 7.29012C12.75 7.34012 12.8 7.39012 12.83 7.44012C12.87 7.50012 12.9 7.56012 12.92 7.62012C12.95 7.68012 12.97 7.74012 12.98 7.81012C12.99 7.87012 13 7.94012 13 8.00012C13 8.26012 12.89 8.52012 12.71 8.71012C12.66 8.75012 12.61 8.79012 12.56 8.83012C12.5 8.87012 12.44 8.90012 12.38 8.92012C12.32 8.95012 12.26 8.97012 12.2 8.98012C12.13 8.99012 12.06 9.00012 12 9.00012Z" fill="black"/>
</svg>
