<svg width="14" height="14" viewBox="0 0 14 14" xmlns="http://www.w3.org/2000/svg"><title>info</title><desc>Created with Sketch.</desc><path d="M7 .11c-3.805 0-6.89 3.085-6.89 6.89 0 3.805 3.085 6.891 6.89 6.891 3.805 0 6.891-3.086 6.891-6.891s-3.086-6.89-6.891-6.89zm1.434 10.679c-.355.14-.637.246-.849.32-.211.074-.457.11-.736.11-.429 0-.764-.105-1.002-.314-.238-.209-.356-.475-.356-.797l.026-.384.086-.443.444-1.568.1-.426c.027-.134.04-.257.04-.369 0-.2-.041-.34-.124-.418-.083-.079-.24-.117-.474-.117-.114 0-.232.017-.353.053l-.309.103.117-.483c.291-.118.569-.22.834-.304.265-.085.516-.127.753-.127.426 0 .755.104.987.309.23.206.347.474.347.803l-.024.36c-.016.172-.045.329-.089.473l-.442 1.563-.097.429-.043.365c0 .208.046.349.139.425.092.075.254.113.482.113.108 0 .229-.019.365-.057l.295-.099-.118.482zm-.078-6.346c-.206.191-.454.287-.744.287-.289 0-.539-.096-.747-.287-.207-.191-.311-.424-.311-.696 0-.271.105-.505.311-.698.208-.194.457-.29.747-.29s.538.096.744.29c.206.193.309.426.309.698 0 .272-.103.505-.309.696z" fill-rule="nonzero" fill="#626262"/></svg>