<svg width="24" height="24" viewBox="0 0 24 24" fill="none" xmlns="http://www.w3.org/2000/svg">
<path d="M19 22H5C3.346 22 2 20.654 2 19V5C2 3.346 3.346 2 5 2H19C20.654 2 22 3.346 22 5V19C22 20.654 20.654 22 19 22ZM5 4C4.449 4 4 4.449 4 5V19C4 19.552 4.449 20 5 20H19C19.552 20 20 19.552 20 19V5C20 4.449 19.552 4 19 4H5Z" fill="black"/>
<path d="M21 10H3C2.448 10 2 9.552 2 9C2 8.448 2.448 8 3 8H21C21.553 8 22 8.448 22 9C22 9.552 21.553 10 21 10Z" fill="black"/>
<path d="M9 22C8.448 22 8 21.553 8 21V9C8 8.448 8.448 8 9 8C9.552 8 10 8.448 10 9V21C10 21.553 9.552 22 9 22Z" fill="black"/>
</svg>
