<svg width="24" height="24" viewBox="0 0 24 24" fill="none" xmlns="http://www.w3.org/2000/svg">
<path d="M18 18H15C14.447 18 14 17.553 14 17C14 16.447 14.447 16 15 16H18C20.206 16 22 14.206 22 12C22 9.794 20.206 8 18 8H15C14.447 8 14 7.552 14 7C14 6.448 14.447 6 15 6H18C21.309 6 24 8.691 24 12C24 15.309 21.309 18 18 18ZM9 18H6C2.691 18 0 15.309 0 12C0 8.691 2.691 6 6 6H9C9.552 6 10 6.448 10 7C10 7.552 9.552 8 9 8H6C3.794 8 2 9.794 2 12C2 14.206 3.794 16 6 16H9C9.552 16 10 16.447 10 17C10 17.553 9.552 18 9 18Z" fill="black"/>
<path d="M16 13H8C7.448 13 7 12.552 7 12C7 11.448 7.448 11 8 11H16C16.553 11 17 11.448 17 12C17 12.552 16.553 13 16 13Z" fill="black"/>
</svg>
