<svg width="24" height="24" viewBox="0 0 24 24" fill="none" xmlns="http://www.w3.org/2000/svg">
<path d="M14.012 16.0029C12.183 16.0029 10.377 15.1729 9.19996 13.5989C8.86896 13.1569 8.95996 12.5309 9.40196 12.1999C9.84396 11.8689 10.472 11.9609 10.802 12.4019C12.124 14.1699 14.634 14.5279 16.402 13.2089C16.556 13.0939 16.7 12.9689 16.835 12.8339L19.835 9.83394C21.355 8.25994 21.311 5.72194 19.725 4.18994C18.166 2.68494 15.725 2.68494 14.166 4.18994L12.457 5.88994C12.065 6.27894 11.432 6.27794 11.043 5.88594C10.653 5.49394 10.655 4.86094 11.047 4.47194L12.767 2.76194C15.114 0.494936 18.777 0.493936 21.114 2.75194C23.494 5.04994 23.56 8.85594 21.262 11.2359L18.249 14.2479C18.046 14.4509 17.828 14.6409 17.599 14.8109C16.521 15.6149 15.262 16.0029 14.012 16.0029Z" fill="black"/>
<path d="M7.05199 22.9408C5.55199 22.9408 4.05599 22.3768 2.88799 21.2498C0.508994 18.9508 0.441994 15.1448 2.74099 12.7648L5.75299 9.75283C5.95599 9.54983 6.17299 9.36183 6.40299 9.19083C7.68599 8.23083 9.26299 7.82783 10.853 8.05683C12.439 8.28583 13.841 9.11883 14.801 10.4018C15.132 10.8438 15.041 11.4708 14.599 11.8018C14.156 12.1338 13.53 12.0418 13.2 11.5998C12.56 10.7438 11.625 10.1888 10.568 10.0368C9.51199 9.88283 8.45699 10.1528 7.60199 10.7928C7.44899 10.9078 7.30399 11.0328 7.16799 11.1678L4.16799 14.1678C2.64799 15.7418 2.69199 18.2788 4.27899 19.8128C5.83599 21.3168 8.27799 21.3168 9.83599 19.8118L11.534 18.1148C11.925 17.7238 12.557 17.7238 12.948 18.1148C13.339 18.5058 13.339 19.1378 12.948 19.5288L11.238 21.2388C10.061 22.3728 8.55499 22.9398 7.05199 22.9408Z" fill="black"/>
</svg>
