<svg width="24" height="24" viewBox="0 0 24 24" fill="none" xmlns="http://www.w3.org/2000/svg">
<path d="M21 7H8C7.448 7 7 6.552 7 6C7 5.448 7.448 5 8 5H21C21.553 5 22 5.448 22 6C22 6.552 21.553 7 21 7Z" fill="black"/>
<path d="M21 13H8C7.448 13 7 12.552 7 12C7 11.448 7.448 11 8 11H21C21.553 11 22 11.448 22 12C22 12.552 21.553 13 21 13Z" fill="black"/>
<path d="M21 19H8C7.448 19 7 18.553 7 18C7 17.447 7.448 17 8 17H21C21.553 17 22 17.447 22 18C22 18.553 21.553 19 21 19Z" fill="black"/>
<path d="M3 7.00012C2.94 7.00012 2.87 6.99012 2.8 6.98012C2.74 6.97012 2.68 6.95012 2.62 6.92012C2.56 6.90012 2.5 6.87012 2.44 6.83012C2.39 6.80012 2.34 6.75012 2.29 6.71012C2.25 6.66012 2.21 6.61012 2.17 6.56012C2.13 6.50012 2.1 6.44012 2.08 6.38012C2.05 6.32012 2.03 6.26012 2.02 6.20012C2.01 6.13012 2 6.06012 2 6.00012C2 5.87012 2.03 5.74012 2.08 5.62012C2.13 5.50012 2.2 5.39012 2.29 5.29012C2.57 5.02012 3.01 4.92012 3.38 5.08012C3.51 5.13012 3.61 5.20012 3.71 5.29012C3.89 5.48012 4 5.74012 4 6.00012C4 6.06012 3.99 6.13012 3.98 6.20012C3.97 6.26012 3.95 6.32012 3.92 6.38012C3.9 6.44012 3.87 6.50012 3.83 6.56012C3.79 6.61012 3.75 6.66012 3.71 6.71012C3.52 6.89012 3.26 7.00012 3 7.00012Z" fill="black"/>
<path d="M3 13C2.94 13 2.87 12.99 2.81 12.98C2.74 12.97 2.68 12.95 2.62 12.92C2.56 12.9 2.5 12.87 2.44 12.83C2.39 12.8 2.34 12.75 2.29 12.71C2.11 12.52 2 12.27 2 12C2 11.87 2.03 11.74 2.08 11.62C2.13 11.49 2.2 11.39 2.29 11.29C2.34 11.25 2.39 11.2 2.44 11.17C2.5 11.13 2.56 11.1 2.62 11.08C2.68 11.05 2.74 11.03 2.81 11.02C3.13 10.96 3.47 11.06 3.71 11.29C3.8 11.39 3.87 11.49 3.92 11.62C3.97 11.74 4 11.87 4 12C4 12.06 3.99 12.13 3.98 12.2C3.97 12.26 3.95 12.32 3.92 12.38C3.9 12.44 3.87 12.5 3.83 12.56C3.79 12.61 3.75 12.66 3.71 12.71C3.52 12.89 3.26 13 3 13Z" fill="black"/>
<path d="M3 18.9998C2.87 18.9998 2.74 18.9698 2.62 18.9198C2.5 18.8698 2.39 18.7998 2.29 18.7098C2.1 18.5198 2 18.2698 2 17.9998C2 17.8698 2.03 17.7398 2.08 17.6198C2.13 17.4898 2.2 17.3898 2.29 17.2898C2.57 17.0188 3.01 16.9298 3.38 17.0798C3.5 17.1298 3.61 17.1998 3.71 17.2898C3.8 17.3898 3.87 17.4998 3.92 17.6198C3.97 17.7398 4 17.8698 4 17.9998C4 18.1298 3.97 18.2598 3.92 18.3798C3.87 18.4998 3.8 18.6088 3.71 18.7098C3.52 18.8988 3.27 18.9998 3 18.9998Z" fill="black"/>
</svg>
