<svg width="24" height="24" viewBox="0 0 24 24" fill="none" xmlns="http://www.w3.org/2000/svg">
<path d="M19 23H5C3.346 23 2 21.654 2 20V13C2 11.346 3.346 10 5 10H19C20.654 10 22 11.346 22 13V20C22 21.654 20.654 23 19 23ZM5 12C4.449 12 4 12.449 4 13V20C4 20.552 4.449 21 5 21H19C19.552 21 20 20.552 20 20V13C20 12.449 19.552 12 19 12H5Z" fill="black"/>
<path d="M17 12C16.447 12 16 11.552 16 11V7C16 4.794 14.206 3 12 3C9.794 3 8 4.794 8 7V11C8 11.552 7.552 12 7 12C6.448 12 6 11.552 6 11V7C6 3.691 8.691 1 12 1C15.309 1 18 3.691 18 7V11C18 11.552 17.553 12 17 12Z" fill="black"/>
</svg>
