<svg width="24" height="24" viewBox="0 0 24 24" fill="none" xmlns="http://www.w3.org/2000/svg">
<path d="M9 22H5C3.346 22 2 20.654 2 19V5C2 3.346 3.346 2 5 2H9C9.552 2 10 2.448 10 3C10 3.552 9.552 4 9 4H5C4.449 4 4 4.449 4 5V19C4 19.552 4.449 20 5 20H9C9.552 20 10 20.447 10 21C10 21.553 9.552 22 9 22Z" fill="black"/>
<path d="M16 17.9998C15.744 17.9998 15.488 17.9018 15.293 17.7068C14.902 17.3158 14.902 16.6838 15.293 16.2928L19.586 11.9998L15.293 7.70676C14.902 7.31576 14.902 6.68376 15.293 6.29276C15.684 5.90176 16.316 5.90176 16.707 6.29276L21.707 11.2928C22.098 11.6838 22.098 12.3158 21.707 12.7068L16.707 17.7068C16.512 17.9018 16.256 17.9998 16 17.9998Z" fill="black"/>
<path d="M21 13H9C8.448 13 8 12.552 8 12C8 11.448 8.448 11 9 11H21C21.553 11 22 11.448 22 12C22 12.552 21.553 13 21 13Z" fill="black"/>
</svg>
