<svg width="24" height="24" viewBox="0 0 24 24" fill="none" xmlns="http://www.w3.org/2000/svg">
<path d="M19 22H15C14.447 22 14 21.553 14 21C14 20.447 14.447 20 15 20H19C19.552 20 20 19.552 20 19V5C20 4.449 19.552 4 19 4H15C14.447 4 14 3.552 14 3C14 2.448 14.447 2 15 2H19C20.654 2 22 3.346 22 5V19C22 20.654 20.654 22 19 22Z" fill="black"/>
<path d="M10 17.9998C9.74401 17.9998 9.48801 17.9018 9.29301 17.7068C8.90201 17.3158 8.90201 16.6838 9.29301 16.2928L13.586 11.9998L9.29301 7.70676C8.90201 7.31576 8.90201 6.68376 9.29301 6.29276C9.68401 5.90176 10.316 5.90176 10.707 6.29276L15.707 11.2928C16.098 11.6838 16.098 12.3158 15.707 12.7068L10.707 17.7068C10.512 17.9018 10.256 17.9998 10 17.9998Z" fill="black"/>
<path d="M15 13H3C2.448 13 2 12.552 2 12C2 11.448 2.448 11 3 11H15C15.553 11 16 11.448 16 12C16 12.552 15.553 13 15 13Z" fill="black"/>
</svg>
