<svg width="24" height="24" viewBox="0 0 24 24" fill="none" xmlns="http://www.w3.org/2000/svg">
<path d="M20 21H4C2.346 21 1 19.654 1 18V6C1 4.346 2.346 3 4 3H20C21.654 3 23 4.346 23 6V18C23 19.654 21.654 21 20 21ZM4 5C3.449 5 3 5.449 3 6V18C3 18.552 3.449 19 4 19H20C20.552 19 21 18.552 21 18V6C21 5.449 20.552 5 20 5H4Z" fill="black"/>
<path d="M12.0001 14.0001C11.7991 14.0001 11.5991 13.9391 11.4271 13.8191L1.4271 6.81913C0.974105 6.50213 0.865105 5.87913 1.1811 5.42613C1.4981 4.97313 2.1211 4.86413 2.5741 5.18013L12.0001 11.7791L21.4271 5.18013C21.8771 4.86413 22.5031 4.97313 22.8201 5.42613C23.1361 5.87813 23.0271 6.50213 22.5741 6.81913L12.5741 13.8191C12.4011 13.9391 12.2011 14.0001 12.0001 14.0001Z" fill="black"/>
</svg>
