<svg width="24" height="24" viewBox="0 0 24 24" fill="none" xmlns="http://www.w3.org/2000/svg">
<path d="M21.9 2.6C21.8 2.4 21.6 2.2 21.4 2.1C21.3 2 21.1 2 21 2H15C14.4 2 14 2.4 14 3C14 3.6 14.4 4 15 4H18.6L13.3 9.3C12.9 9.7 12.9 10.3 13.3 10.7C13.5 10.9 13.8 11 14 11C14.2 11 14.5 10.9 14.7 10.7L20 5.4V9C20 9.6 20.4 10 21 10C21.6 10 22 9.6 22 9V3C22 2.9 22 2.7 21.9 2.6Z" fill="black"/>
<path d="M10.7 13.3C10.3 12.9 9.7 12.9 9.3 13.3L4 18.6V15C4 14.4 3.6 14 3 14C2.4 14 2 14.4 2 15V21C2 21.1 2 21.3 2.1 21.4C2.2 21.6 2.4 21.8 2.6 21.9C2.7 22 2.9 22 3 22H9C9.6 22 10 21.6 10 21C10 20.4 9.6 20 9 20H5.4L10.7 14.7C11.1 14.3 11.1 13.7 10.7 13.3Z" fill="black"/>
</svg>
