<svg width="24" height="24" viewBox="0 0 24 24" fill="none" xmlns="http://www.w3.org/2000/svg">
<path d="M19 22H16C15.4 22 15 21.6 15 21C15 20.4 15.4 20 16 20H19C19.6 20 20 19.6 20 19V16C20 15.4 20.4 15 21 15C21.6 15 22 15.4 22 16V19C22 20.7 20.7 22 19 22ZM8 22H5C3.3 22 2 20.7 2 19V16C2 15.4 2.4 15 3 15C3.6 15 4 15.4 4 16V19C4 19.6 4.4 20 5 20H8C8.6 20 9 20.4 9 21C9 21.6 8.6 22 8 22ZM21 9C20.4 9 20 8.6 20 8V5C20 4.4 19.6 4 19 4H16C15.4 4 15 3.6 15 3C15 2.4 15.4 2 16 2H19C20.7 2 22 3.3 22 5V8C22 8.6 21.6 9 21 9ZM3 9C2.4 9 2 8.6 2 8V5C2 3.3 3.3 2 5 2H8C8.6 2 9 2.4 9 3C9 3.6 8.6 4 8 4H5C4.4 4 4 4.4 4 5V8C4 8.6 3.6 9 3 9Z" fill="black"/>
</svg>
