<svg width="24" height="24" viewBox="0 0 24 24" fill="none" xmlns="http://www.w3.org/2000/svg">
<path d="M2.9999 22C2.6999 22 2.4999 21.9 2.2999 21.7C1.9999 21.4 1.8999 21 2.0999 20.7L3.8999 15.4C3.2999 14.2 2.9999 12.8 2.9999 11.5C2.9999 7.9 4.9999 4.6 8.2999 3C9.5999 2.3 11.0999 2 12.4999 2H12.9999C17.8999 2.3 21.6999 6.1 21.9999 10.9V11.5C21.9999 13 21.6999 14.4 20.9999 15.8C19.3999 19 16.0999 21 12.4999 21C11.1999 21 9.7999 20.7 8.5999 20.2L3.2999 22C3.1999 22 3.0999 22 2.9999 22ZM12.4999 4C11.2999 4 10.1999 4.3 9.1999 4.8C6.5999 6.1 4.9999 8.6 4.9999 11.5C4.9999 12.7 5.2999 13.8 5.7999 14.8C5.8999 15 5.8999 15.3 5.8999 15.6L4.5999 19.4L8.3999 18.1C8.6999 18 8.8999 18 9.1999 18.2C10.1999 18.7 11.3999 19 12.4999 19C15.3999 19 17.8999 17.4 19.1999 14.9C19.6999 13.9 19.9999 12.7 19.9999 11.6V11C19.7999 7.2 16.7999 4.2 12.8999 4H12.4999Z" fill="black"/>
</svg>
