<svg width="24" height="24" viewBox="0 0 24 24" fill="none" xmlns="http://www.w3.org/2000/svg">
<path d="M12 16C9.794 16 8 14.206 8 12V4C8 1.794 9.794 0 12 0C14.206 0 16 1.794 16 4V12C16 14.206 14.206 16 12 16ZM12 2C10.897 2 10 2.897 10 4V12C10 13.103 10.897 14 12 14C13.103 14 14 13.103 14 12V4C14 2.897 13.103 2 12 2Z" fill="black"/>
<path d="M12 20C7.589 20 4 16.411 4 12V10C4 9.448 4.448 9 5 9C5.552 9 6 9.448 6 10V12C6 15.309 8.691 18 12 18C15.309 18 18 15.309 18 12V10C18 9.448 18.447 9 19 9C19.553 9 20 9.448 20 10V12C20 16.411 16.411 20 12 20Z" fill="black"/>
<path d="M12 24C11.448 24 11 23.553 11 23V19C11 18.447 11.448 18 12 18C12.552 18 13 18.447 13 19V23C13 23.553 12.552 24 12 24Z" fill="black"/>
<path d="M16 24H8C7.448 24 7 23.553 7 23C7 22.447 7.448 22 8 22H16C16.553 22 17 22.447 17 23C17 23.553 16.553 24 16 24Z" fill="black"/>
</svg>
