<svg width="24" height="24" viewBox="0 0 24 24" fill="none" xmlns="http://www.w3.org/2000/svg">
<path d="M10 21C9.448 21 9 20.553 9 20V15H4C3.448 15 3 14.553 3 14C3 13.447 3.448 13 4 13H10C10.552 13 11 13.447 11 14V20C11 20.553 10.552 21 10 21Z" fill="black"/>
<path d="M20 11H14C13.447 11 13 10.552 13 10V4C13 3.448 13.447 3 14 3C14.553 3 15 3.448 15 4V9H20C20.553 9 21 9.448 21 10C21 10.552 20.553 11 20 11Z" fill="black"/>
<path d="M14 10.9998C13.744 10.9998 13.488 10.9018 13.293 10.7068C12.902 10.3158 12.902 9.68376 13.293 9.29276L20.293 2.29276C20.684 1.90176 21.316 1.90176 21.707 2.29276C22.098 2.68376 22.098 3.31576 21.707 3.70676L14.707 10.7068C14.512 10.9018 14.256 10.9998 14 10.9998Z" fill="black"/>
<path d="M3.00001 21.9998C2.74401 21.9998 2.48801 21.9018 2.29301 21.7068C1.90201 21.3158 1.90201 20.6838 2.29301 20.2928L9.29301 13.2928C9.68401 12.9018 10.316 12.9018 10.707 13.2928C11.098 13.6838 11.098 14.3158 10.707 14.7068L3.70701 21.7068C3.51201 21.9018 3.25601 21.9998 3.00001 21.9998Z" fill="black"/>
</svg>
