<svg width="24" height="24" viewBox="0 0 24 24" fill="none" xmlns="http://www.w3.org/2000/svg">
<path d="M16 22C15.447 22 15 21.553 15 21V18C15 16.346 16.346 15 18 15H21C21.553 15 22 15.447 22 16C22 16.553 21.553 17 21 17H18C17.448 17 17 17.448 17 18V21C17 21.553 16.553 22 16 22ZM8 22C7.448 22 7 21.553 7 21V18C7 17.448 6.551 17 6 17H3C2.448 17 2 16.553 2 16C2 15.447 2.448 15 3 15H6C7.654 15 9 16.346 9 18V21C9 21.553 8.552 22 8 22ZM21 9H18C16.346 9 15 7.654 15 6V3C15 2.448 15.447 2 16 2C16.553 2 17 2.448 17 3V6C17 6.551 17.448 7 18 7H21C21.553 7 22 7.448 22 8C22 8.552 21.553 9 21 9ZM6 9H3C2.448 9 2 8.552 2 8C2 7.448 2.448 7 3 7H6C6.551 7 7 6.551 7 6V3C7 2.448 7.448 2 8 2C8.552 2 9 2.448 9 3V6C9 7.654 7.654 9 6 9Z" fill="black"/>
</svg>
