<svg width="24" height="24" viewBox="0 0 24 24" fill="none" xmlns="http://www.w3.org/2000/svg">
<path d="M5.00001 15.9998C4.74401 15.9998 4.48801 15.9018 4.29301 15.7068L1.29301 12.7068C0.902006 12.3158 0.902006 11.6838 1.29301 11.2928L4.29301 8.29276C4.68401 7.90176 5.31601 7.90176 5.70701 8.29276C6.09801 8.68376 6.09801 9.31576 5.70701 9.70676L3.41401 11.9998L5.70701 14.2928C6.09801 14.6838 6.09801 15.3158 5.70701 15.7068C5.51201 15.9018 5.25601 15.9998 5.00001 15.9998Z" fill="black"/>
<path d="M15 5.99976C14.744 5.99976 14.488 5.90176 14.293 5.70676L12 3.41376L9.70701 5.70676C9.31601 6.09776 8.68401 6.09776 8.29301 5.70676C7.90201 5.31576 7.90201 4.68376 8.29301 4.29276L11.293 1.29276C11.684 0.901762 12.316 0.901762 12.707 1.29276L15.707 4.29276C16.098 4.68376 16.098 5.31576 15.707 5.70676C15.512 5.90176 15.256 5.99976 15 5.99976Z" fill="black"/>
<path d="M12 22.9998C11.744 22.9998 11.488 22.9018 11.293 22.7068L8.29301 19.7068C7.90201 19.3158 7.90201 18.6838 8.29301 18.2928C8.68401 17.9018 9.31601 17.9018 9.70701 18.2928L12 20.5858L14.293 18.2928C14.684 17.9018 15.316 17.9018 15.707 18.2928C16.098 18.6838 16.098 19.3158 15.707 19.7068L12.707 22.7068C12.512 22.9018 12.256 22.9998 12 22.9998Z" fill="black"/>
<path d="M19 15.9998C18.744 15.9998 18.488 15.9018 18.293 15.7068C17.902 15.3158 17.902 14.6838 18.293 14.2928L20.586 11.9998L18.293 9.70676C17.902 9.31576 17.902 8.68376 18.293 8.29276C18.684 7.90176 19.316 7.90176 19.707 8.29276L22.707 11.2928C23.098 11.6838 23.098 12.3158 22.707 12.7068L19.707 15.7068C19.512 15.9018 19.256 15.9998 19 15.9998Z" fill="black"/>
<path d="M22 13H2C1.448 13 1 12.552 1 12C1 11.448 1.448 11 2 11H22C22.553 11 23 11.448 23 12C23 12.552 22.553 13 22 13Z" fill="black"/>
<path d="M12 23C11.448 23 11 22.553 11 22V2C11 1.448 11.448 1 12 1C12.552 1 13 1.448 13 2V22C13 22.553 12.552 23 12 23Z" fill="black"/>
</svg>
