<svg width="24" height="24" viewBox="0 0 24 24" fill="none" xmlns="http://www.w3.org/2000/svg">
<path d="M7 22H5C3.346 22 2 20.654 2 19C2 17.346 3.346 16 5 16H9C9.552 16 10 16.447 10 17V19C10 20.654 8.654 22 7 22ZM5 18C4.449 18 4 18.448 4 19C4 19.552 4.449 20 5 20H7C7.551 20 8 19.552 8 19V18H5ZM19 20H17C15.346 20 14 18.654 14 17C14 15.346 15.346 14 17 14H21C21.553 14 22 14.447 22 15V17C22 18.654 20.654 20 19 20ZM17 16C16.448 16 16 16.448 16 17C16 17.552 16.448 18 17 18H19C19.552 18 20 17.552 20 17V16H17Z" fill="black"/>
<path d="M9 18C8.448 18 8 17.553 8 17V5.00005C8 4.51105 8.354 4.09405 8.835 4.01405L20.835 2.01405C21.126 1.96705 21.422 2.04805 21.646 2.23705C21.871 2.42705 22 2.70605 22 3.00005V15C22 15.553 21.553 16 21 16C20.447 16 20 15.553 20 15V4.18105L10 5.84705V17C10 17.553 9.552 18 9 18Z" fill="black"/>
</svg>
