<svg width="24" height="24" viewBox="0 0 24 24" fill="none" xmlns="http://www.w3.org/2000/svg">
<path d="M19.2 12.9091H18.3V8.36364C18.3 4.81818 15.51 2 12 2C8.49 2 5.7 4.81818 5.7 8.36364V12.9091H4.8C3.81 12.9091 3 13.7273 3 14.7273V16.5455C3 17.5455 3.81 18.3636 4.8 18.3636H8.4C8.4 20.3636 10.02 22 12 22C13.98 22 15.6 20.3636 15.6 18.3636H19.2C20.19 18.3636 21 17.5455 21 16.5455V14.7273C21 13.7273 20.19 12.9091 19.2 12.9091ZM7.5 8.36364C7.5 5.81818 9.48 3.81818 12 3.81818C14.52 3.81818 16.5 5.81818 16.5 8.36364V12.9091H7.5V8.36364ZM12 20.1818C11.01 20.1818 10.2 19.3636 10.2 18.3636H13.8C13.8 19.3636 12.99 20.1818 12 20.1818ZM19.2 16.5455H4.8V14.7273H19.2V16.5455Z" fill="black"/>
</svg>
