<svg width="15" height="19" viewBox="0 0 15 19" fill="none" xmlns="http://www.w3.org/2000/svg">
<path d="M14.7607 14.712L12.9607 12.024V7.44C12.9607 4.632 10.8727 2.328 8.16075 1.968V0.72C8.16075 0.312 7.84875 0 7.44075 0C7.03275 0 6.72075 0.312 6.72075 0.72V1.968C4.00875 2.328 1.92075 4.632 1.92075 7.44V12.024L0.120747 14.712C-0.0232534 14.928 -0.0472535 15.216 0.0967465 15.456C0.216747 15.696 0.456747 15.84 0.720747 15.84H3.91275C4.24875 17.472 5.71275 18.72 7.44075 18.72C9.16875 18.72 10.6327 17.472 10.9687 15.84H14.1607C14.4247 15.84 14.6647 15.696 14.7847 15.456C14.9287 15.216 14.9047 14.952 14.7607 14.712ZM7.44075 17.28C6.50475 17.28 5.71275 16.68 5.40075 15.84H9.45675C9.16875 16.68 8.37675 17.28 7.44075 17.28ZM2.06475 14.4L3.24075 12.648V12.624C3.26475 12.6 3.28875 12.552 3.28875 12.528C3.28875 12.504 3.31275 12.48 3.31275 12.456C3.31275 12.432 3.33675 12.408 3.33675 12.384C3.33675 12.336 3.33675 12.312 3.33675 12.264V12.24V7.44C3.33675 5.184 5.16075 3.36 7.41675 3.36C9.67275 3.36 11.4967 5.184 11.4967 7.44V12.24V12.264C11.4967 12.312 11.4967 12.336 11.4967 12.384C11.4967 12.408 11.5207 12.432 11.5207 12.456C11.5207 12.48 11.5207 12.504 11.5447 12.528C11.5687 12.576 11.5687 12.6 11.5927 12.624V12.648L12.7687 14.4H2.06475Z" fill="#4F6670"/>
</svg>
