<svg width="24" height="24" viewBox="0 0 24 24" fill="none" xmlns="http://www.w3.org/2000/svg">
<path d="M16.14 23H7.86C7.595 23 7.34 22.895 7.153 22.707L1.293 16.847C1.105 16.659 1 16.405 1 16.14V7.86C1 7.595 1.105 7.34 1.293 7.153L7.153 1.293C7.34 1.105 7.595 1 7.86 1H16.14C16.406 1 16.66 1.105 16.847 1.293L22.707 7.153C22.895 7.34 23 7.595 23 7.86V16.14C23 16.406 22.895 16.66 22.707 16.847L16.847 22.707C16.659 22.895 16.405 23 16.14 23ZM8.274 21H15.726L21 15.726V8.274L15.726 3H8.274L3 8.274V15.726L8.274 21Z" fill="black"/>
</svg>
