<?xml version="1.0" encoding="UTF-8"?>
<svg width="24px" height="24px" viewBox="0 0 24 24" version="1.1" xmlns="http://www.w3.org/2000/svg" xmlns:xlink="http://www.w3.org/1999/xlink">
    <!-- Generator: Sketch 49.3 (51167) - http://www.bohemiancoding.com/sketch -->
    <title>options</title>
    <desc>Created with Sketch.</desc>
    <defs></defs>
    <g id="options" stroke="none" stroke-width="1" fill="none" fill-rule="evenodd">
        <path d="M16,12 C16,10.9 16.9,10 18,10 C19.1,10 20,10.9 20,12 C20,13.1 19.1,14 18,14 C16.9,14 16,13.1 16,12 Z M14,12 C14,13.1 13.1,14 12,14 C10.9,14 10,13.1 10,12 C10,10.9 10.9,10 12,10 C13.1,10 14,10.9 14,12 Z M8,12 C8,13.1 7.1,14 6,14 C4.9,14 4,13.1 4,12 C4,10.9 4.9,10 6,10 C7.1,10 8,10.9 8,12 Z" id="Icon" fill="#000000"></path>
    </g>
</svg>