<svg width="24" height="24" viewBox="0 0 24 24" fill="none" xmlns="http://www.w3.org/2000/svg">
<path d="M8.00512 22.9949C6.21212 22.9949 4.41912 22.3119 3.05312 20.9469C0.323115 18.2169 0.323115 13.7729 3.05312 11.0429L12.2431 1.85294C13.1871 0.907939 14.4431 0.387939 15.7801 0.387939C17.1161 0.387939 18.3721 0.908939 19.3171 1.85294C21.2671 3.80294 21.2671 6.97694 19.3171 8.92694L10.1161 18.1169C8.94512 19.2869 7.04112 19.2859 5.87212 18.1169C5.30512 17.5509 4.99312 16.7969 4.99312 15.9949C4.99312 15.1929 5.30512 14.4389 5.87212 13.8729L14.3621 5.39294C14.7531 5.00294 15.3861 5.00194 15.7771 5.39394C16.1671 5.78494 16.1671 6.41794 15.7761 6.80794L7.28512 15.2879C7.09612 15.4759 6.99212 15.7269 6.99212 15.9949C6.99212 16.2629 7.09612 16.5139 7.28512 16.7029C7.67512 17.0939 8.31012 17.0939 8.70112 16.7029L17.9011 7.51294C19.0711 6.34294 19.0711 4.43794 17.9011 3.26694C16.7651 2.13194 14.7891 2.13394 13.6551 3.26694L4.46512 12.4569C2.51512 14.4079 2.51512 17.5819 4.46512 19.5329C6.41612 21.4829 9.59012 21.4829 11.5411 19.5329L20.7311 10.3429C21.1221 9.95194 21.7541 9.95194 22.1451 10.3429C22.5361 10.7339 22.5361 11.3659 22.1451 11.7569L12.9551 20.9469C11.5921 22.3119 9.79812 22.9949 8.00512 22.9949Z" fill="black"/>
</svg>
