<svg width="24" height="24" viewBox="0 0 24 24" fill="none" xmlns="http://www.w3.org/2000/svg">
<path d="M12 23C5.935 23 1 18.065 1 12C1 5.935 5.935 1 12 1C18.065 1 23 5.935 23 12C23 18.065 18.065 23 12 23ZM12 3C7.038 3 3 7.038 3 12C3 16.963 7.038 21 12 21C16.963 21 21 16.963 21 12C21 7.038 16.963 3 12 3Z" fill="black"/>
<path d="M10 16C9.448 16 9 15.553 9 15V9C9 8.448 9.448 8 10 8C10.552 8 11 8.448 11 9V15C11 15.553 10.552 16 10 16Z" fill="black"/>
<path d="M14 16C13.447 16 13 15.553 13 15V9C13 8.448 13.447 8 14 8C14.553 8 15 8.448 15 9V15C15 15.553 14.553 16 14 16Z" fill="black"/>
</svg>
