<svg width="24" height="24" viewBox="0 0 24 24" fill="none" xmlns="http://www.w3.org/2000/svg">
<path d="M5.00001 20C4.74401 20 4.48801 19.902 4.29301 19.707C3.90201 19.316 3.90201 18.684 4.29301 18.293L18.293 4.29301C18.684 3.90201 19.316 3.90201 19.707 4.29301C20.098 4.68401 20.098 5.31601 19.707 5.70701L5.70701 19.707C5.51201 19.902 5.25601 20 5.00001 20Z" fill="black"/>
<path d="M6.5 10C4.57 10 3 8.43 3 6.5C3 4.57 4.57 3 6.5 3C8.43 3 10 4.57 10 6.5C10 8.43 8.43 10 6.5 10ZM6.5 5C5.673 5 5 5.673 5 6.5C5 7.327 5.673 8 6.5 8C7.327 8 8 7.327 8 6.5C8 5.673 7.327 5 6.5 5Z" fill="black"/>
<path d="M17.5 21C15.57 21 14 19.43 14 17.5C14 15.57 15.57 14 17.5 14C19.43 14 21 15.57 21 17.5C21 19.43 19.43 21 17.5 21ZM17.5 16C16.673 16 16 16.673 16 17.5C16 18.327 16.673 19 17.5 19C18.327 19 19 18.327 19 17.5C19 16.673 18.327 16 17.5 16Z" fill="black"/>
</svg>
