<svg width="24" height="24" viewBox="0 0 24 24" fill="none" xmlns="http://www.w3.org/2000/svg">
<path d="M11.9839 22.995C10.5579 22.995 9.1089 22.717 7.71591 22.127C2.12891 19.765 -0.494095 13.298 1.86791 7.71096C2.97091 5.10396 5.00691 3.04496 7.59991 1.91396C8.1079 1.69396 8.69591 1.92396 8.91591 2.43096C9.13591 2.93796 8.9059 3.52596 8.3999 3.74696C6.2779 4.67196 4.61191 6.35696 3.70991 8.48996C1.77691 13.06 3.9239 18.351 8.4949 20.285C13.0669 22.217 18.3559 20.07 20.2889 15.5C20.5039 14.991 21.0919 14.754 21.5999 14.969C22.1089 15.184 22.3459 15.771 22.1309 16.28C20.3579 20.472 16.2729 22.995 11.9839 22.995Z" fill="black"/>
<path d="M22 13H12C11.448 13 11 12.552 11 12V2C11 1.448 11.448 1 12 1C18.065 1 23 5.935 23 12C23 12.552 22.553 13 22 13ZM13 11H20.944C20.482 6.835 17.165 3.518 13 3.055V11Z" fill="black"/>
</svg>
