<svg width="24" height="24" viewBox="0 0 24 24" fill="none" xmlns="http://www.w3.org/2000/svg">
<path d="M12 23C5.935 23 1 18.065 1 12C1 5.935 5.935 1 12 1C18.065 1 23 5.935 23 12C23 18.065 18.065 23 12 23ZM12 3C7.038 3 3 7.038 3 12C3 16.963 7.038 21 12 21C16.963 21 21 16.963 21 12C21 7.038 16.963 3 12 3Z" fill="black"/>
<path d="M10 16.9999C9.838 16.9999 9.676 16.9609 9.528 16.8819C9.203 16.7079 9 16.3689 9 15.9999V7.99991C9 7.63091 9.203 7.29191 9.528 7.11791C9.851 6.94391 10.247 6.96191 10.554 7.16791L16.554 11.1679C16.833 11.3539 17 11.6659 17 11.9999C17 12.3339 16.833 12.6459 16.555 12.8319L10.555 16.8319C10.387 16.9429 10.194 16.9999 10 16.9999ZM11 9.86891V14.1319L14.197 11.9999L11 9.86891Z" fill="black"/>
</svg>
