<svg width="24" height="24" viewBox="0 0 24 24" fill="none" xmlns="http://www.w3.org/2000/svg">
<path d="M11.995 22.9979C9.43299 22.9979 6.87199 22.0229 4.92299 20.0729C1.02599 16.1749 1.02599 9.8309 4.92299 5.9329C5.31399 5.5419 5.94599 5.5419 6.33699 5.9329C6.72799 6.3229 6.72799 6.9559 6.33699 7.3469C3.21899 10.4659 3.21899 15.5399 6.33699 18.6589C9.45599 21.7779 14.532 21.7789 17.651 18.6609C20.77 15.5419 20.771 10.4659 17.653 7.3469C17.262 6.9559 17.262 6.3229 17.653 5.9329C18.044 5.5419 18.676 5.5419 19.067 5.9329C22.964 9.8319 22.963 16.1769 19.065 20.0749C17.116 22.0229 14.556 22.9979 11.995 22.9979Z" fill="black"/>
<path d="M12 13C11.448 13 11 12.552 11 12V2C11 1.448 11.448 1 12 1C12.552 1 13 1.448 13 2V12C13 12.552 12.552 13 12 13Z" fill="black"/>
</svg>
