<?xml version="1.0" encoding="UTF-8"?>
<svg width="24px" height="24px" viewBox="0 0 24 24" version="1.1" xmlns="http://www.w3.org/2000/svg" xmlns:xlink="http://www.w3.org/1999/xlink">
    <!-- Generator: Sketch 49.3 (51167) - http://www.bohemiancoding.com/sketch -->
    <title>prescription</title>
    <desc>Created with Sketch.</desc>
    <defs></defs>
    <g id="prescription" stroke="none" stroke-width="1" fill="none" fill-rule="evenodd">
        <path d="M21,5 L18.36,5 L19.5,1.86 L17.15,1 L15.69,5 L3,5 L3,7 L5,13 L3,19 L3,21 L21,21 L21,19 L19,13 L21,7 L21,5 L21,5 Z M16,14 L13,14 L13,17 L11,17 L11,14 L8,14 L8,12 L11,12 L11,9 L13,9 L13,12 L16,12 L16,14 L16,14 Z" id="Icon" fill="#000000"></path>
    </g>
</svg>