<svg width="24" height="24" viewBox="0 0 24 24" fill="none" xmlns="http://www.w3.org/2000/svg">
<path d="M18 10C17.447 10 17 9.552 17 9V3H7V9C7 9.552 6.552 10 6 10C5.448 10 5 9.552 5 9V2C5 1.448 5.448 1 6 1H18C18.553 1 19 1.448 19 2V9C19 9.552 18.553 10 18 10Z" fill="black"/>
<path d="M20 19H18C17.447 19 17 18.553 17 18C17 17.447 17.447 17 18 17H20C20.552 17 21 16.552 21 16V11C21 10.449 20.552 10 20 10H4C3.449 10 3 10.449 3 11V16C3 16.552 3.449 17 4 17H6C6.552 17 7 17.447 7 18C7 18.553 6.552 19 6 19H4C2.346 19 1 17.654 1 16V11C1 9.346 2.346 8 4 8H20C21.654 8 23 9.346 23 11V16C23 17.654 21.654 19 20 19Z" fill="black"/>
<path d="M18 23H6C5.448 23 5 22.553 5 22V14C5 13.447 5.448 13 6 13H18C18.553 13 19 13.447 19 14V22C19 22.553 18.553 23 18 23ZM7 21H17V15H7V21Z" fill="black"/>
</svg>
