<svg width="24" height="24" viewBox="0 0 24 24" fill="none" xmlns="http://www.w3.org/2000/svg">
<path d="M12 15C10.346 15 9 13.654 9 12C9 10.346 10.346 9 12 9C13.654 9 15 10.346 15 12C15 13.654 13.654 15 12 15ZM12 11C11.449 11 11 11.449 11 12C11 12.551 11.449 13 12 13C12.551 13 13 12.551 13 12C13 11.449 12.551 11 12 11Z" fill="black"/>
<path d="M19.0701 20.0699C18.8141 20.0699 18.5581 19.9719 18.3631 19.7769C17.9721 19.3859 17.9721 18.7539 18.3631 18.3629C21.8701 14.8539 21.8701 9.14494 18.3631 5.63694C17.9721 5.24594 17.9721 4.61294 18.3631 4.22294C18.7541 3.83194 19.3861 3.83194 19.7771 4.22294C24.0631 8.51094 24.0641 15.4879 19.7771 19.7769C19.5821 19.9729 19.3261 20.0699 19.0701 20.0699ZM4.93006 20.0699C4.67406 20.0699 4.41806 19.9719 4.22306 19.7769C-0.0639377 15.4879 -0.0639377 8.51094 4.22306 4.22294C4.61406 3.83194 5.24606 3.83194 5.63706 4.22294C6.02806 4.61294 6.02806 5.24594 5.63706 5.63694C2.13006 9.14494 2.13006 14.8539 5.63706 18.3629C6.02806 18.7539 6.02806 19.3859 5.63706 19.7769C5.44206 19.9729 5.18606 20.0699 4.93006 20.0699ZM16.2391 17.2499C16.0891 17.2499 15.9361 17.2159 15.7931 17.1449C15.2991 16.8979 15.0991 16.2969 15.3461 15.8029C15.4081 15.6779 15.5001 15.5639 15.6081 15.4749C17.4861 13.5879 17.4841 10.4159 15.5341 8.46794C15.1431 8.07694 15.1431 7.44394 15.5341 7.05294C15.9251 6.66194 16.5571 6.66294 16.9481 7.05294C19.6741 9.77794 19.6801 14.2099 16.9651 16.9409C16.7741 17.1399 16.5111 17.2499 16.2391 17.2499ZM7.76006 17.2399C7.50406 17.2399 7.24806 17.1419 7.05306 16.9469C4.32706 14.2239 4.32006 9.79394 7.03306 7.06194C7.03906 7.05494 7.04606 7.04894 7.05206 7.04194C7.44306 6.65094 8.07506 6.65094 8.46606 7.04194C8.84606 7.42194 8.85706 8.02994 8.50006 8.42294C8.48806 8.43594 8.47606 8.44894 8.46306 8.46094C7.51906 9.40594 7.00006 10.6619 7.00006 11.9979C7.00006 13.3339 7.52106 14.5889 8.46606 15.5329C8.85706 15.9229 8.85706 16.5559 8.46706 16.9469C8.27206 17.1429 8.01606 17.2399 7.76006 17.2399Z" fill="black"/>
</svg>
