<svg width="24" height="24" viewBox="0 0 24 24" fill="none" xmlns="http://www.w3.org/2000/svg">
<g clip-path="url(#clip0)">
<path d="M23 11H17C16.447 11 16 10.552 16 10C16 9.448 16.447 9 17 9H22V4C22 3.448 22.447 3 23 3C23.553 3 24 3.448 24 4V10C24 10.552 23.553 11 23 11Z" fill="black"/>
<path d="M1 21C0.448 21 0 20.553 0 20V14C0 13.447 0.448 13 1 13H7C7.552 13 8 13.447 8 14C8 14.553 7.552 15 7 15H2V20C2 20.553 1.552 21 1 21Z" fill="black"/>
<path d="M12.0051 21.998C12.0041 21.998 12.0041 21.998 12.0031 21.998C9.33211 21.997 6.82011 20.956 4.93211 19.067L0.315107 14.728C-0.0878928 14.35 -0.106893 13.717 0.271107 13.315C0.650107 12.911 1.28211 12.893 1.68411 13.271L6.32411 17.631C7.85711 19.164 9.86611 19.996 12.0031 19.997C12.0041 19.997 12.0041 19.997 12.0051 19.997C14.1411 19.997 16.1501 19.165 17.6611 17.655C18.4991 16.816 19.1511 15.783 19.5481 14.665C19.7331 14.144 20.3031 13.87 20.8241 14.057C21.3451 14.242 21.6171 14.813 21.4321 15.333C20.9381 16.729 20.1221 18.021 19.0751 19.069C17.1871 20.958 14.6761 21.998 12.0051 21.998ZM23.0001 11C22.7541 11 22.5081 10.91 22.3151 10.729L17.6751 6.36899C16.8141 5.50899 15.7801 4.85699 14.6621 4.46099C12.6451 3.74699 10.4761 3.86199 8.54811 4.78199C6.62011 5.70299 5.16611 7.31899 4.45311 9.33299C4.26811 9.85399 3.69811 10.128 3.17711 9.94199C2.65611 9.75799 2.38311 9.18699 2.56711 8.66699C3.45811 6.14899 5.27611 4.12799 7.68811 2.97799C10.0981 1.82799 12.8111 1.68399 15.3321 2.57599C16.7281 3.07099 18.0201 3.88599 19.0681 4.93399L23.6851 9.27199C24.0871 9.64999 24.1081 10.283 23.7291 10.685C23.5321 10.894 23.2671 11 23.0001 11Z" fill="black"/>
</g>
<defs>
<clipPath id="clip0">
<rect width="24" height="24" fill="white"/>
</clipPath>
</defs>
</svg>
