<svg width="24" height="24" viewBox="0 0 24 24" fill="none" xmlns="http://www.w3.org/2000/svg">
<path d="M7 11H1C0.448 11 0 10.552 0 10V4C0 3.448 0.448 3 1 3C1.552 3 2 3.448 2 4V9H7C7.552 9 8 9.448 8 10C8 10.552 7.552 11 7 11Z" fill="black"/>
<path d="M23 21C22.447 21 22 20.553 22 20V15H17C16.447 15 16 14.553 16 14C16 13.447 16.447 13 17 13H23C23.553 13 24 13.447 24 14V20C24 20.553 23.553 21 23 21Z" fill="black"/>
<path d="M12.002 21.9959C9.44099 21.9959 6.87699 21.0209 4.92399 19.0699C3.87599 18.0209 3.05999 16.7289 2.56599 15.3339C2.38199 14.8129 2.65499 14.2409 3.17499 14.0579C3.69499 13.8729 4.26599 14.1459 4.45099 14.6659C4.84599 15.7829 5.49799 16.8169 6.33699 17.6559C9.45699 20.7739 14.532 20.7739 17.651 17.6529L22.313 13.2709C22.713 12.8929 23.349 12.9109 23.726 13.3149C24.104 13.7169 24.084 14.3499 23.682 14.7279L19.042 19.0879C17.109 21.0249 14.558 21.9959 12.002 21.9959ZM0.999992 10.9999C0.733992 10.9999 0.467992 10.8939 0.270992 10.6849C-0.107008 10.2829 -0.0870079 9.64991 0.314992 9.27091L4.95499 4.91091C5.97999 3.88491 7.27299 3.06891 8.66999 2.57491C11.188 1.68491 13.903 1.82691 16.313 2.97691C18.724 4.12691 20.542 6.14791 21.433 8.66591C21.618 9.18691 21.345 9.75791 20.825 9.94191C20.304 10.1289 19.732 9.85291 19.549 9.33291C18.836 7.31791 17.381 5.70191 15.452 4.78191C13.524 3.86191 11.353 3.74791 9.33799 4.46091C8.21899 4.85591 7.18599 5.50791 6.34799 6.34691L1.68499 10.7289C1.49199 10.9099 1.24599 10.9999 0.999992 10.9999Z" fill="black"/>
</svg>
