<svg width="24" height="24" viewBox="0 0 24 24" fill="none" xmlns="http://www.w3.org/2000/svg">
<g clip-path="url(#clip0)">
<path d="M17 10C16.744 10 16.488 9.90201 16.293 9.70701C15.902 9.31601 15.902 8.68401 16.293 8.29301L19.586 5.00001L16.293 1.70701C15.902 1.31601 15.902 0.684006 16.293 0.293006C16.684 -0.0979941 17.316 -0.0979941 17.707 0.293006L21.707 4.29301C22.098 4.68401 22.098 5.31601 21.707 5.70701L17.707 9.70701C17.512 9.90201 17.256 10 17 10Z" fill="black"/>
<path d="M3 12C2.448 12 2 11.552 2 11V9C2 6.243 4.243 4 7 4H21C21.553 4 22 4.448 22 5C22 5.552 21.553 6 21 6H7C5.346 6 4 7.346 4 9V11C4 11.552 3.552 12 3 12Z" fill="black"/>
<path d="M7.00001 24C6.74401 24 6.48801 23.902 6.29301 23.707L2.29301 19.707C1.90201 19.316 1.90201 18.684 2.29301 18.293L6.29301 14.293C6.68401 13.902 7.31601 13.902 7.70701 14.293C8.09801 14.684 8.09801 15.316 7.70701 15.707L4.41401 19L7.70701 22.293C8.09801 22.684 8.09801 23.316 7.70701 23.707C7.51201 23.902 7.25601 24 7.00001 24Z" fill="black"/>
<path d="M17 20H3C2.448 20 2 19.553 2 19C2 18.447 2.448 18 3 18H17C18.654 18 20 16.654 20 15V13C20 12.448 20.447 12 21 12C21.553 12 22 12.448 22 13V15C22 17.757 19.757 20 17 20Z" fill="black"/>
</g>
<defs>
<clipPath id="clip0">
<rect width="24" height="24" fill="white"/>
</clipPath>
</defs>
</svg>
