<svg width="24" height="24" viewBox="0 0 24 24" fill="none" xmlns="http://www.w3.org/2000/svg">
<path d="M11 20C10.782 20 10.565 19.929 10.386 19.789L1.386 12.789C1.143 12.6 1 12.309 1 12C1 11.691 1.143 11.4 1.386 11.21L10.386 4.21001C10.688 3.97601 11.097 3.93501 11.439 4.10101C11.782 4.27001 12 4.61801 12 5.00001V19C12 19.382 11.782 19.73 11.439 19.898C11.3 19.967 11.149 20 11 20ZM3.629 12L10 16.955V7.04401L3.629 12Z" fill="black"/>
<path d="M22 19.9999C21.782 19.9999 21.565 19.9289 21.386 19.7889L12.386 12.7889C12.143 12.5999 12 12.3089 12 11.9999C12 11.6909 12.143 11.3999 12.386 11.2099L21.386 4.20995C21.689 3.97595 22.096 3.93395 22.44 4.10095C22.782 4.26995 23 4.61795 23 4.99995V18.9999C23 19.3819 22.782 19.7299 22.439 19.8979C22.3 19.9669 22.149 19.9999 22 19.9999ZM14.629 11.9999L21 16.9549V7.04395L14.629 11.9999Z" fill="black"/>
</svg>
