<svg width="24" height="24" viewBox="0 0 24 24" fill="none" xmlns="http://www.w3.org/2000/svg">
<path d="M23 11H17C16.447 11 16 10.552 16 10C16 9.448 16.447 9 17 9H22V4C22 3.448 22.447 3 23 3C23.553 3 24 3.448 24 4V10C24 10.552 23.553 11 23 11Z" fill="black"/>
<path d="M11.994 22.0029C10.891 22.0029 9.77003 21.8189 8.67303 21.4319C3.47403 19.5939 0.738033 13.8699 2.57503 8.67093C4.41103 3.47193 10.137 0.73693 15.335 2.57293C16.734 3.06693 18.028 3.88293 19.077 4.93293L23.685 9.27193C24.087 9.64993 24.106 10.2839 23.727 10.6859C23.349 11.0889 22.716 11.1059 22.314 10.7279L17.684 6.36793C16.823 5.50693 15.788 4.85393 14.668 4.45893C10.512 2.99093 5.93003 5.17793 4.46103 9.33693C2.99203 13.4959 5.18003 18.0749 9.33903 19.5459C13.501 21.0149 18.078 18.8259 19.548 14.6669C19.731 14.1459 20.301 13.8709 20.823 14.0579C21.344 14.2419 21.617 14.8129 21.432 15.3329C19.983 19.4349 16.115 22.0029 11.994 22.0029Z" fill="black"/>
</svg>
