<svg width="24" height="24" viewBox="0 0 24 24" fill="none" xmlns="http://www.w3.org/2000/svg">
<path d="M7 11H1C0.448 11 0 10.552 0 10V4C0 3.448 0.448 3 1 3C1.552 3 2 3.448 2 4V9H7C7.552 9 8 9.448 8 10C8 10.552 7.552 11 7 11Z" fill="black"/>
<path d="M12.008 22.0101C7.88299 22.0101 4.01299 19.4381 2.56699 15.3321C2.38399 14.8111 2.65699 14.2401 3.17799 14.0571C3.69799 13.8761 4.26999 14.1471 4.45399 14.6681C5.91899 18.8291 10.495 21.0211 14.658 19.5551C16.674 18.8451 18.292 17.3931 19.215 15.4651C20.138 13.5381 20.255 11.3671 19.545 9.3511C18.835 7.3361 17.383 5.7181 15.455 4.7951C13.528 3.8711 11.355 3.7541 9.34099 4.4651C8.22099 4.8581 7.18599 5.5091 6.34699 6.3481L1.68499 10.7291C1.28299 11.1071 0.650992 11.0871 0.270992 10.6851C-0.107008 10.2831 -0.0870079 9.6501 0.314992 9.2711L4.95499 4.9111C5.98199 3.8841 7.27599 3.0701 8.67499 2.5781C11.195 1.6911 13.908 1.8371 16.318 2.9911C18.727 4.1451 20.543 6.1681 21.43 8.6871C23.262 13.8881 20.522 19.6101 15.321 21.4421C14.227 21.8271 13.108 22.0101 12.008 22.0101Z" fill="black"/>
</svg>
