<svg width="24" height="24" viewBox="0 0 24 24" fill="none" xmlns="http://www.w3.org/2000/svg">
<path d="M13 21C12.448 21 12 20.553 12 20C12 15.589 8.411 12 4 12C3.448 12 3 11.552 3 11C3 10.448 3.448 10 4 10C9.514 10 14 14.486 14 20C14 20.553 13.553 21 13 21Z" fill="black"/>
<path d="M20 21C19.447 21 19 20.553 19 20C19 11.729 12.271 5 4 5C3.448 5 3 4.552 3 4C3 3.448 3.448 3 4 3C13.374 3 21 10.626 21 20C21 20.553 20.553 21 20 21Z" fill="black"/>
<path d="M5 21C6.10457 21 7 20.1046 7 19C7 17.8954 6.10457 17 5 17C3.89543 17 3 17.8954 3 19C3 20.1046 3.89543 21 5 21Z" fill="black"/>
</svg>
