<svg width="24" height="24" viewBox="0 0 24 24" fill="none" xmlns="http://www.w3.org/2000/svg">
<path d="M6 10C3.794 10 2 8.206 2 6C2 3.794 3.794 2 6 2C8.206 2 10 3.794 10 6C10 8.206 8.206 10 6 10ZM6 4C4.897 4 4 4.897 4 6C4 7.103 4.897 8 6 8C7.103 8 8 7.103 8 6C8 4.897 7.103 4 6 4Z" fill="black"/>
<path d="M6 22C3.794 22 2 20.206 2 18C2 15.794 3.794 14 6 14C8.206 14 10 15.794 10 18C10 20.206 8.206 22 6 22ZM6 16C4.897 16 4 16.897 4 18C4 19.103 4.897 20 6 20C7.103 20 8 19.103 8 18C8 16.897 7.103 16 6 16Z" fill="black"/>
<path d="M8.11988 16.88C7.86388 16.88 7.60788 16.782 7.41288 16.587C7.02188 16.196 7.02188 15.564 7.41288 15.173L19.2929 3.29301C19.6839 2.90201 20.3159 2.90201 20.7069 3.29301C21.0979 3.68401 21.0979 4.31601 20.7069 4.70701L8.82688 16.587C8.63188 16.782 8.37588 16.88 8.11988 16.88Z" fill="black"/>
<path d="M20 21C19.744 21 19.489 20.902 19.294 20.708L13.764 15.188C13.372 14.797 13.372 14.165 13.762 13.774C14.153 13.381 14.785 13.383 15.176 13.772L20.706 19.292C21.098 19.683 21.098 20.315 20.708 20.706C20.513 20.902 20.256 21 20 21Z" fill="black"/>
<path d="M11.9999 12.9999C11.7439 12.9999 11.4879 12.9019 11.2929 12.7069L7.41288 8.82688C7.02188 8.43588 7.02188 7.80388 7.41288 7.41288C7.80388 7.02188 8.43588 7.02188 8.82688 7.41288L12.7069 11.2929C13.0979 11.6839 13.0979 12.3159 12.7069 12.7069C12.5119 12.9019 12.2559 12.9999 11.9999 12.9999Z" fill="black"/>
</svg>
