<svg width="24" height="24" viewBox="0 0 24 24" fill="none" xmlns="http://www.w3.org/2000/svg">
<path d="M11 20C6.038 20 2 15.963 2 11C2 6.038 6.038 2 11 2C15.963 2 20 6.038 20 11C20 15.963 15.963 20 11 20ZM11 4C7.14 4 4 7.14 4 11C4 14.859 7.14 18 11 18C14.859 18 18 14.859 18 11C18 7.14 14.859 4 11 4Z" fill="black"/>
<path d="M20.9999 21.9999C20.7439 21.9999 20.4879 21.9019 20.2929 21.7069L15.9429 17.3569C15.5519 16.9659 15.5519 16.3339 15.9429 15.9429C16.3339 15.5519 16.9659 15.5519 17.3569 15.9429L21.7069 20.2929C22.0979 20.6839 22.0979 21.3159 21.7069 21.7069C21.5119 21.9019 21.2559 21.9999 20.9999 21.9999Z" fill="black"/>
</svg>
