<svg width="24" height="24" viewBox="0 0 24 24" fill="none" xmlns="http://www.w3.org/2000/svg">
<path d="M11 14C10.744 14 10.488 13.902 10.293 13.707C9.90201 13.316 9.90201 12.684 10.293 12.293L21.293 1.29301C21.684 0.902006 22.316 0.902006 22.707 1.29301C23.098 1.68401 23.098 2.31601 22.707 2.70701L11.707 13.707C11.512 13.902 11.256 14 11 14Z" fill="black"/>
<path d="M15.0001 23C14.6061 23 14.2471 22.769 14.0861 22.406L10.2421 13.758L1.59411 9.91401C1.21911 9.74701 0.984109 9.37001 1.00111 8.96001C1.01811 8.55001 1.28311 8.19201 1.66911 8.05701L21.6691 1.05701C22.0301 0.931006 22.4351 1.02201 22.7061 1.29401C22.9771 1.56501 23.0691 1.96901 22.9431 2.33201L15.9431 22.332C15.8071 22.72 15.4491 22.984 15.0401 23.001C15.0271 23 15.0141 23 15.0001 23ZM4.71111 9.11101L11.4061 12.087C11.6321 12.187 11.8131 12.368 11.9131 12.594L14.8891 19.289L20.3701 3.63001L4.71111 9.11101Z" fill="black"/>
</svg>
