<svg width="24" height="24" viewBox="0 0 24 24" fill="none" xmlns="http://www.w3.org/2000/svg">
<path d="M12 16C9.794 16 8 14.206 8 12C8 9.794 9.794 8 12 8C14.206 8 16 9.794 16 12C16 14.206 14.206 16 12 16ZM12 10C10.897 10 10 10.897 10 12C10 13.103 10.897 14 12 14C13.103 14 14 13.103 14 12C14 10.897 13.103 10 12 10Z" fill="black"/>
<path d="M12.08 24C10.426 24 9.08 22.654 9.08 21C9.074 20.665 8.907 20.432 8.655 20.339C8.351 20.207 8.069 20.259 7.88 20.445C6.658 21.665 4.755 21.667 3.585 20.5C3.578 20.492 3.57 20.485 3.564 20.478C3.009 19.915 2.704 19.169 2.704 18.377C2.704 17.575 3.015 16.822 3.581 16.255C3.822 16.01 3.873 15.729 3.765 15.484C3.659 15.237 3.425 15.082 3.165 15.081H3C1.346 15.081 0 13.735 0 12.081C0 10.427 1.346 9.081 3 9.081C3.335 9.075 3.569 8.908 3.662 8.656C3.793 8.352 3.742 8.07 3.555 7.88C2.333 6.658 2.332 4.755 3.501 3.585C4.671 2.413 6.574 2.411 7.745 3.581C7.991 3.823 8.272 3.874 8.516 3.765C8.58 3.737 8.646 3.716 8.714 3.701C8.891 3.583 8.999 3.383 9 3.166V3C9 1.346 10.346 0 12 0C13.654 0 15 1.346 15 3C15.001 3.345 15.156 3.579 15.395 3.681C15.648 3.791 15.93 3.742 16.122 3.555C16.739 2.936 17.492 2.624 18.294 2.623C18.295 2.623 18.295 2.623 18.296 2.623C19.091 2.623 19.839 2.93 20.404 3.489C20.409 3.493 20.413 3.498 20.418 3.502C21.588 4.671 21.589 6.574 20.421 7.745C20.18 7.99 20.128 8.271 20.236 8.516C20.264 8.58 20.286 8.647 20.299 8.715C20.418 8.891 20.617 8.999 20.834 9H21C22.654 9 24 10.346 24 12C24 13.654 22.654 15 21 15C20.655 15.001 20.422 15.155 20.319 15.394C20.318 15.398 20.316 15.401 20.315 15.405C20.207 15.649 20.258 15.93 20.445 16.122C21.667 17.342 21.668 19.245 20.5 20.416C19.327 21.588 17.426 21.588 16.255 20.421C16.01 20.179 15.727 20.126 15.484 20.236C15.235 20.342 15.081 20.576 15.08 20.836V21C15.08 22.654 13.734 24 12.08 24ZM8.347 18.261C8.705 18.261 9.063 18.335 9.404 18.486C10.373 18.84 11.054 19.792 11.08 20.887C11.08 20.895 11.08 20.992 11.08 21C11.08 21.552 11.529 22 12.08 22C12.631 22 13.08 21.552 13.08 21V20.83C13.085 19.768 13.716 18.816 14.686 18.401C15.67 17.964 16.819 18.172 17.599 18.935C17.857 19.192 18.108 19.296 18.374 19.296C18.374 19.296 18.374 19.296 18.375 19.296C18.642 19.295 18.893 19.192 19.081 19.002C19.272 18.812 19.376 18.561 19.376 18.293C19.375 18.026 19.272 17.775 19.082 17.587C18.254 16.741 18.046 15.597 18.482 14.601C18.898 13.633 19.849 13.004 20.904 12.999C21.552 13 22 12.551 22 12C22 11.449 21.552 11 21 11H20.83C19.769 10.996 18.817 10.366 18.401 9.394C18.365 9.31 18.34 9.221 18.329 9.131C17.994 8.182 18.223 7.13 18.935 6.401C19.388 5.947 19.393 5.321 19.015 4.93C19.01 4.926 19.005 4.921 19 4.916C18.812 4.727 18.561 4.624 18.294 4.624H18.293C18.026 4.624 17.775 4.728 17.587 4.917C16.739 5.748 15.591 5.956 14.595 5.516C13.635 5.103 13.005 4.151 13 3.094C13 2.449 12.551 2 12 2C11.449 2 11 2.449 11 3V3.17C10.996 4.231 10.366 5.183 9.394 5.599C9.31 5.635 9.221 5.66 9.13 5.672C8.182 6.006 7.13 5.778 6.401 5.065C5.942 4.607 5.308 4.606 4.917 4.997C4.526 5.389 4.526 6.023 4.917 6.413C5.747 7.26 5.955 8.407 5.515 9.404C5.161 10.373 4.208 11.054 3.114 11.08C3.106 11.08 3.008 11.08 3 11.08C2.449 11.08 2 11.529 2 12.08C2 12.631 2.449 13.08 3 13.08H3.17C4.231 13.085 5.183 13.715 5.599 14.685C6.035 15.673 5.827 16.821 5.065 17.599C4.807 17.857 4.703 18.108 4.704 18.375C4.704 18.642 4.808 18.893 4.997 19.081C5 19.084 5.003 19.087 5.005 19.09C5.396 19.473 6.026 19.469 6.413 19.082C6.97 18.537 7.658 18.261 8.347 18.261ZM19.4 15H19.41H19.4Z" fill="black"/>
</svg>
