<svg width="24" height="24" viewBox="0 0 24 24" fill="none" xmlns="http://www.w3.org/2000/svg">
<path d="M18 23H6C4.346 23 3 21.654 3 20V12C3 11.448 3.448 11 4 11C4.552 11 5 11.448 5 12V20C5 20.552 5.449 21 6 21H18C18.552 21 19 20.552 19 20V12C19 11.448 19.447 11 20 11C20.553 11 21 11.448 21 12V20C21 21.654 19.654 23 18 23Z" fill="black"/>
<path d="M16 7.00001C15.744 7.00001 15.488 6.90201 15.293 6.70701L12 3.41401L8.70701 6.70701C8.31601 7.09801 7.68401 7.09801 7.29301 6.70701C6.90201 6.31601 6.90201 5.68401 7.29301 5.29301L11.293 1.29301C11.684 0.902006 12.316 0.902006 12.707 1.29301L16.707 5.29301C17.098 5.68401 17.098 6.31601 16.707 6.70701C16.512 6.90201 16.256 7.00001 16 7.00001Z" fill="black"/>
<path d="M12 16C11.448 16 11 15.553 11 15V2C11 1.448 11.448 1 12 1C12.552 1 13 1.448 13 2V15C13 15.553 12.552 16 12 16Z" fill="black"/>
</svg>
