<svg width="24" height="24" viewBox="0 0 24 24" fill="none" xmlns="http://www.w3.org/2000/svg">
<path d="M18 9C15.794 9 14 7.206 14 5C14 2.794 15.794 1 18 1C20.206 1 22 2.794 22 5C22 7.206 20.206 9 18 9ZM18 3C16.897 3 16 3.897 16 5C16 6.103 16.897 7 18 7C19.103 7 20 6.103 20 5C20 3.897 19.103 3 18 3Z" fill="black"/>
<path d="M6 16C3.794 16 2 14.206 2 12C2 9.794 3.794 8 6 8C8.206 8 10 9.794 10 12C10 14.206 8.206 16 6 16ZM6 10C4.897 10 4 10.897 4 12C4 13.103 4.897 14 6 14C7.103 14 8 13.103 8 12C8 10.897 7.103 10 6 10Z" fill="black"/>
<path d="M18 23C15.794 23 14 21.206 14 19C14 16.794 15.794 15 18 15C20.206 15 22 16.794 22 19C22 21.206 20.206 23 18 23ZM18 17C16.897 17 16 17.897 16 19C16 20.103 16.897 21 18 21C19.103 21 20 20.103 20 19C20 17.897 19.103 17 18 17Z" fill="black"/>
<path d="M15.419 18.4899C15.248 18.4899 15.075 18.4459 14.916 18.3539L8.08602 14.3739C7.60902 14.0959 7.44702 13.4829 7.72602 13.0059C8.00402 12.5289 8.61702 12.3669 9.09302 12.6459L15.924 16.6259C16.401 16.9039 16.562 17.5169 16.284 17.9939C16.098 18.3119 15.763 18.4899 15.419 18.4899Z" fill="black"/>
<path d="M8.59107 11.49C8.24707 11.49 7.91207 11.313 7.72607 10.994C7.44807 10.517 7.60907 9.90503 8.08607 9.62603L14.9061 5.64603C15.3831 5.36903 15.9961 5.52903 16.2731 6.00603C16.5511 6.48303 16.3911 7.09503 15.9141 7.37403L9.09407 11.354C8.93607 11.446 8.76207 11.49 8.59107 11.49Z" fill="black"/>
</svg>
