<svg width="24" height="24" viewBox="0 0 24 24" fill="none" xmlns="http://www.w3.org/2000/svg">
<path d="M21 9C20.447 9 20 8.552 20 8V4H16C15.447 4 15 3.552 15 3C15 2.448 15.447 2 16 2H21C21.553 2 22 2.448 22 3V8C22 8.552 21.553 9 21 9Z" fill="black"/>
<path d="M4.00001 21C3.74401 21 3.48801 20.902 3.29301 20.707C2.90201 20.316 2.90201 19.684 3.29301 19.293L20.293 2.29301C20.684 1.90201 21.316 1.90201 21.707 2.29301C22.098 2.68401 22.098 3.31601 21.707 3.70701L4.70701 20.707C4.51201 20.902 4.25601 21 4.00001 21Z" fill="black"/>
<path d="M21 22H16C15.447 22 15 21.553 15 21C15 20.447 15.447 20 16 20H20V16C20 15.447 20.447 15 21 15C21.553 15 22 15.447 22 16V21C22 21.553 21.553 22 21 22Z" fill="black"/>
<path d="M21 22C20.744 22 20.488 21.902 20.293 21.707L14.293 15.707C13.902 15.316 13.902 14.684 14.293 14.293C14.684 13.902 15.316 13.902 15.707 14.293L21.707 20.293C22.098 20.684 22.098 21.316 21.707 21.707C21.512 21.902 21.256 22 21 22Z" fill="black"/>
<path d="M9.00001 10C8.74401 10 8.48801 9.90201 8.29301 9.70701L3.29301 4.70701C2.90201 4.31601 2.90201 3.68401 3.29301 3.29301C3.68401 2.90201 4.31601 2.90201 4.70701 3.29301L9.70701 8.29301C10.098 8.68401 10.098 9.31601 9.70701 9.70701C9.51201 9.90201 9.25601 10 9.00001 10Z" fill="black"/>
</svg>
