<svg width="24" height="24" viewBox="0 0 24 24" fill="none" xmlns="http://www.w3.org/2000/svg">
<path d="M5 21C4.853 21 4.705 20.968 4.567 20.901C4.22 20.734 4 20.385 4 20V4.00002C4 3.61602 4.22 3.26502 4.567 3.09902C4.912 2.93302 5.323 2.97902 5.625 3.22002L15.625 11.22C15.862 11.409 16 11.696 16 12C16 12.304 15.862 12.591 15.625 12.781L5.625 20.781C5.444 20.926 5.223 21 5 21ZM6 6.08102V17.919L13.399 12L6 6.08102Z" fill="black"/>
<path d="M19 20C18.447 20 18 19.553 18 19V5C18 4.448 18.447 4 19 4C19.553 4 20 4.448 20 5V19C20 19.553 19.553 20 19 20Z" fill="black"/>
</svg>
