<svg width="24" height="24" viewBox="0 0 24 24" fill="none" xmlns="http://www.w3.org/2000/svg">
<path d="M19 21.0001C18.777 21.0001 18.556 20.9261 18.375 20.7811L8.375 12.7811C8.138 12.5911 8 12.3041 8 12.0001C8 11.6961 8.138 11.4091 8.375 11.2191L18.375 3.21906C18.675 2.97906 19.086 2.93306 19.434 3.09806C19.779 3.26506 20 3.61606 20 4.00006V20.0001C20 20.3851 19.779 20.7341 19.434 20.9011C19.296 20.9681 19.147 21.0001 19 21.0001ZM10.601 12.0001L18 17.9191V6.08106L10.601 12.0001Z" fill="black"/>
<path d="M5 20C4.448 20 4 19.553 4 19V5C4 4.448 4.448 4 5 4C5.552 4 6 4.448 6 5V19C6 19.553 5.552 20 5 20Z" fill="black"/>
</svg>
