<svg width="24" height="24" viewBox="0 0 24 24" fill="none" xmlns="http://www.w3.org/2000/svg">
<path d="M12 23C5.935 23 1 18.065 1 12C1 5.935 5.935 1 12 1C18.065 1 23 5.935 23 12C23 18.065 18.065 23 12 23ZM12 3C7.038 3 3 7.038 3 12C3 16.963 7.038 21 12 21C16.963 21 21 16.963 21 12C21 7.038 16.963 3 12 3Z" fill="black"/>
<path d="M19.0699 20.0699C18.8139 20.0699 18.5579 19.9719 18.3629 19.7769L4.22294 5.63694C3.83194 5.24594 3.83194 4.61394 4.22294 4.22294C4.61394 3.83194 5.24594 3.83194 5.63694 4.22294L19.7769 18.3629C20.1679 18.7539 20.1679 19.3859 19.7769 19.7769C19.5819 19.9729 19.3259 20.0699 19.0699 20.0699Z" fill="black"/>
</svg>
