<svg width="24" height="24" viewBox="0 0 24 24" fill="none" xmlns="http://www.w3.org/2000/svg">
<path d="M4 22C3.448 22 3 21.553 3 21V14C3 13.447 3.448 13 4 13C4.552 13 5 13.447 5 14V21C5 21.553 4.552 22 4 22Z" fill="black"/>
<path d="M4 11C3.448 11 3 10.552 3 10V3C3 2.448 3.448 2 4 2C4.552 2 5 2.448 5 3V10C5 10.552 4.552 11 4 11Z" fill="black"/>
<path d="M12 22C11.448 22 11 21.553 11 21V12C11 11.448 11.448 11 12 11C12.552 11 13 11.448 13 12V21C13 21.553 12.552 22 12 22Z" fill="black"/>
<path d="M12 9C11.448 9 11 8.552 11 8V3C11 2.448 11.448 2 12 2C12.552 2 13 2.448 13 3V8C13 8.552 12.552 9 12 9Z" fill="black"/>
<path d="M20 22C19.447 22 19 21.553 19 21V16C19 15.447 19.447 15 20 15C20.553 15 21 15.447 21 16V21C21 21.553 20.553 22 20 22Z" fill="black"/>
<path d="M20 13C19.447 13 19 12.552 19 12V3C19 2.448 19.447 2 20 2C20.553 2 21 2.448 21 3V12C21 12.552 20.553 13 20 13Z" fill="black"/>
<path d="M7 15H1C0.448 15 0 14.553 0 14C0 13.447 0.448 13 1 13H7C7.552 13 8 13.447 8 14C8 14.553 7.552 15 7 15Z" fill="black"/>
<path d="M15 9H9C8.448 9 8 8.552 8 8C8 7.448 8.448 7 9 7H15C15.553 7 16 7.448 16 8C16 8.552 15.553 9 15 9Z" fill="black"/>
<path d="M23 17H17C16.447 17 16 16.553 16 16C16 15.447 16.447 15 17 15H23C23.553 15 24 15.447 24 16C24 16.553 23.553 17 23 17Z" fill="black"/>
</svg>
