<svg width="24" height="24" viewBox="0 0 24 24" fill="none" xmlns="http://www.w3.org/2000/svg">
<path d="M18.18 22.0199C18.021 22.0199 17.861 21.9819 17.714 21.9049L12 18.8989L6.28505 21.9039C5.94905 22.0829 5.54005 22.0519 5.23205 21.8279C4.92405 21.6039 4.77005 21.2249 4.83405 20.8499L5.92505 14.4889L1.30205 9.98593C1.03005 9.72093 0.931047 9.32393 1.04905 8.96093C1.16605 8.59993 1.47905 8.33493 1.85505 8.28093L8.24605 7.34593L11.103 1.55693C11.44 0.873928 12.559 0.873928 12.896 1.55693L15.753 7.34593L22.144 8.28093C22.521 8.33593 22.833 8.59993 22.951 8.96193C23.068 9.32393 22.971 9.72093 22.697 9.98693L18.074 14.4899L19.165 20.8509C19.229 21.2259 19.075 21.6049 18.768 21.8289C18.593 21.9549 18.387 22.0199 18.18 22.0199ZM4.14805 9.96593L7.69705 13.4229C7.93305 13.6529 8.04105 13.9849 7.98505 14.3089L7.14705 19.1919L11.534 16.8849C11.825 16.7309 12.174 16.7309 12.465 16.8849L16.851 19.1919L16.014 14.3089C15.958 13.9849 16.066 13.6539 16.302 13.4229L19.851 9.96593L14.945 9.24893C14.62 9.20193 14.339 8.99693 14.193 8.70193L12 4.25893L9.80705 8.70193C9.66105 8.99693 9.38105 9.20193 9.05505 9.24893L4.14805 9.96593Z" fill="black"/>
</svg>
