<svg width="24" height="24" viewBox="0 0 24 24" fill="none" xmlns="http://www.w3.org/2000/svg">
<path d="M12.005 22.165C11.237 22.165 10.47 21.873 9.885 21.29L1.293 12.707C1.105 12.52 1 12.266 1 12V2C1 1.448 1.448 1 2 1H12C12.265 1 12.52 1.105 12.707 1.293L21.297 9.883C22.458 11.051 22.458 12.949 21.299 14.115C21.299 14.116 21.298 14.116 21.297 14.117L14.127 21.287C13.542 21.872 12.773 22.165 12.005 22.165ZM3 11.585L11.296 19.873C11.689 20.264 12.322 20.264 12.712 19.873L19.88 12.705C20.266 12.316 20.266 11.684 19.88 11.295L11.586 3H3V11.585ZM20.59 13.41H20.6H20.59Z" fill="black"/>
<path d="M7 7.99988C6.74 7.99988 6.48 7.88988 6.29 7.70988C6.2 7.60988 6.13 7.49988 6.08 7.37988C6.03 7.25988 6 7.12988 6 6.99988C6 6.86988 6.03 6.73988 6.08 6.61988C6.13 6.49988 6.2 6.38988 6.29 6.28988C6.39 6.19988 6.5 6.12988 6.62 6.07988C6.86 5.97988 7.14 5.97988 7.38 6.07988C7.5 6.12988 7.61 6.19988 7.71 6.28988C7.89 6.47988 8 6.73988 8 6.99988C8 7.25988 7.89 7.51988 7.71 7.70988C7.52 7.88988 7.26 7.99988 7 7.99988Z" fill="black"/>
</svg>
