<svg width="24" height="24" viewBox="0 0 24 24" fill="none" xmlns="http://www.w3.org/2000/svg">
<path d="M12 23C5.935 23 1 18.065 1 12C1 5.935 5.935 1 12 1C18.065 1 23 5.935 23 12C23 18.065 18.065 23 12 23ZM12 3C7.038 3 3 7.038 3 12C3 16.963 7.038 21 12 21C16.963 21 21 16.963 21 12C21 7.038 16.963 3 12 3Z" fill="black"/>
<path d="M12 19C8.14 19 5 15.859 5 12C5 8.14 8.14 5 12 5C15.859 5 19 8.14 19 12C19 15.859 15.859 19 12 19ZM12 7C9.243 7 7 9.243 7 12C7 14.757 9.243 17 12 17C14.757 17 17 14.757 17 12C17 9.243 14.757 7 12 7Z" fill="black"/>
<path d="M12 15C10.346 15 9 13.654 9 12C9 10.346 10.346 9 12 9C13.654 9 15 10.346 15 12C15 13.654 13.654 15 12 15ZM12 11C11.449 11 11 11.449 11 12C11 12.551 11.449 13 12 13C12.551 13 13 12.551 13 12C13 11.449 12.551 11 12 11Z" fill="black"/>
</svg>
