<svg width="24" height="24" viewBox="0 0 24 24" fill="none" xmlns="http://www.w3.org/2000/svg">
<path d="M4.00001 18C3.74401 18 3.48801 17.902 3.29301 17.707C2.90201 17.316 2.90201 16.684 3.29301 16.293L8.58601 11L3.29301 5.70701C2.90201 5.31601 2.90201 4.68401 3.29301 4.29301C3.68401 3.90201 4.31601 3.90201 4.70701 4.29301L10.707 10.293C11.098 10.684 11.098 11.316 10.707 11.707L4.70701 17.707C4.51201 17.902 4.25601 18 4.00001 18Z" fill="black"/>
<path d="M20 20H12C11.448 20 11 19.553 11 19C11 18.447 11.448 18 12 18H20C20.553 18 21 18.447 21 19C21 19.553 20.553 20 20 20Z" fill="black"/>
</svg>
