<svg xmlns="http://www.w3.org/2000/svg" xmlns:xlink="http://www.w3.org/1999/xlink" width="24" height="24" viewBox="0 0 24 24">
  <defs>
    <path id="text-bold-a" d="M13.5,16.4996 L10,16.4996 L10,13.4996 L13.5,13.4996 C14.33,13.4996 15,14.1696 15,14.9996 C15,15.8296 14.33,16.4996 13.5,16.4996 Z M10,7.4996 L13,7.4996 C13.83,7.4996 14.5,8.1696 14.5,8.9996 C14.5,9.8306 13.83,10.4996 13,10.4996 L10,10.4996 L10,7.4996 Z M15.6,11.7906 C16.57,11.1206 17.25,10.0206 17.25,8.9996 C17.25,6.7396 15.5,4.9996 13.25,4.9996 L7,4.9996 L7,18.9996 L14.04,18.9996 C16.13,18.9996 17.75,17.3006 17.75,15.2096 C17.75,13.6896 16.89,12.3896 15.6,11.7906 Z"/>
  </defs>
  <g fill="none" fill-rule="evenodd">
    <use fill="#000" xlink:href="#text-bold-a"/>
  </g>
</svg>
