<svg xmlns="http://www.w3.org/2000/svg" xmlns:xlink="http://www.w3.org/1999/xlink" width="24" height="24" viewBox="0 0 24 24">
  <defs>
    <path id="text-list-bulleted-a" d="M7.5,7.5 L21.5,7.5 L21.5,5.5 L7.5,5.5 L7.5,7.5 Z M7.5,13.5 L21.5,13.5 L21.5,11.5 L7.5,11.5 L7.5,13.5 Z M7.5,19.5 L21.5,19.5 L21.5,17.5 L7.5,17.5 L7.5,19.5 Z M4.5,17 C3.67,17 3,17.68 3,18.5 C3,19.32 3.68,20 4.5,20 C5.32,20 6,19.32 6,18.5 C6,17.68 5.33,17 4.5,17 Z M4.5,5 C3.67,5 3,5.67 3,6.5 C3,7.33 3.67,8 4.5,8 C5.33,8 6,7.33 6,6.5 C6,5.67 5.33,5 4.5,5 Z M4.5,11 C3.67,11 3,11.67 3,12.5 C3,13.33 3.67,14 4.5,14 C5.33,14 6,13.33 6,12.5 C6,11.67 5.33,11 4.5,11 Z"/>
  </defs>
  <g fill="none" fill-rule="evenodd">
    <use fill="#000" xlink:href="#text-list-bulleted-a"/>
  </g>
</svg>
