<svg width="24" height="24" viewBox="0 0 24 24" fill="none" xmlns="http://www.w3.org/2000/svg">
<path d="M13.0001 23C10.7941 23 9.00008 21.206 9.00008 19V16H4.34008C4.18708 15.999 4.02508 15.99 3.86408 15.966C2.23208 15.718 1.10408 14.186 1.35108 12.55L2.73208 3.549C2.95408 2.08 4.24408 1.017 5.73108 1H19.6701C19.6901 1 19.7091 1 19.7281 1C21.3651 1 22.7691 2.223 22.9921 3.866C22.9971 3.91 23.0001 3.955 23.0001 4V11C23.0001 11.045 22.9971 11.09 22.9911 11.134C22.7651 12.797 21.3221 14.004 19.6521 14H17.6491L13.9141 22.406C13.7531 22.768 13.3961 23 13.0001 23ZM10.0001 14C10.5521 14 11.0001 14.447 11.0001 15V19C11.0001 19.891 11.5851 20.647 12.3921 20.905L16.0001 12.788V3H5.72008C5.23508 3.022 4.78308 3.36 4.70908 3.85L3.32808 12.851C3.24608 13.395 3.62208 13.906 4.16708 13.989C4.22408 13.998 4.28508 14 4.33108 14H10.0001ZM18.0001 12H19.6701C20.3301 12.008 20.8871 11.552 21.0001 10.923V4.077C20.8861 3.448 20.3301 2.94 19.6881 3H18.0001V12Z" fill="black"/>
</svg>
