<svg width="24" height="24" viewBox="0 0 24 24" fill="none" xmlns="http://www.w3.org/2000/svg">
<path d="M18.304 23C18.292 23 18.281 23 18.269 23H4C2.346 23 1 21.654 1 20V13C1 11.346 2.346 10 4 10H6.35L10.086 1.594C10.247 1.233 10.605 1 11 1C13.206 1 15 2.794 15 5V8H19.66C19.814 8.002 19.972 8.01 20.132 8.034C20.925 8.155 21.623 8.576 22.099 9.221C22.575 9.867 22.77 10.658 22.649 11.45L21.269 20.451C21.048 21.909 19.776 23 18.304 23ZM8 21H18.28C18.284 21 18.288 21 18.292 21C18.794 21 19.218 20.637 19.292 20.15L20.672 11.148C20.712 10.885 20.647 10.622 20.488 10.407C20.33 10.192 20.096 10.051 19.832 10.011C19.78 10.003 19.728 9.999 19.674 10H14C13.447 10 13 9.552 13 9V5C13 4.109 12.415 3.353 11.608 3.094L8 11.212V21ZM4 12C3.449 12 3 12.449 3 13V20C3 20.552 3.449 21 4 21H6V12H4Z" fill="black"/>
</svg>
