<svg width="24" height="24" viewBox="0 0 24 24" fill="none" xmlns="http://www.w3.org/2000/svg">
<path d="M21 7H3C2.448 7 2 6.552 2 6C2 5.448 2.448 5 3 5H21C21.553 5 22 5.448 22 6C22 6.552 21.553 7 21 7Z" fill="black"/>
<path d="M17 23H7C5.346 23 4 21.654 4 20V6C4 5.448 4.448 5 5 5C5.552 5 6 5.448 6 6V20C6 20.552 6.449 21 7 21H17C17.552 21 18 20.552 18 20V6C18 5.448 18.447 5 19 5C19.553 5 20 5.448 20 6V20C20 21.654 18.654 23 17 23ZM16 7C15.447 7 15 6.552 15 6V4C15 3.449 14.552 3 14 3H10C9.449 3 9 3.449 9 4V6C9 6.552 8.552 7 8 7C7.448 7 7 6.552 7 6V4C7 2.346 8.346 1 10 1H14C15.654 1 17 2.346 17 4V6C17 6.552 16.553 7 16 7Z" fill="black"/>
</svg>
