<svg width="24" height="24" viewBox="0 0 24 24" fill="none" xmlns="http://www.w3.org/2000/svg">
<g clip-path="url(#clip0)">
<path d="M23 18.9998C22.744 18.9998 22.488 18.9018 22.293 18.7068L13.5 9.91376L9.20701 14.2068C8.81601 14.5978 8.18401 14.5978 7.79301 14.2068L0.293006 6.70676C-0.0979941 6.31576 -0.0979941 5.68376 0.293006 5.29276C0.684006 4.90176 1.31601 4.90176 1.70701 5.29276L8.50001 12.0858L12.793 7.79276C13.184 7.40176 13.816 7.40176 14.207 7.79276L23.707 17.2928C24.098 17.6838 24.098 18.3158 23.707 18.7068C23.512 18.9018 23.256 18.9998 23 18.9998Z" fill="black"/>
<path d="M23 19H17C16.447 19 16 18.553 16 18C16 17.447 16.447 17 17 17H22V12C22 11.448 22.447 11 23 11C23.553 11 24 11.448 24 12V18C24 18.553 23.553 19 23 19Z" fill="black"/>
</g>
<defs>
<clipPath id="clip0">
<rect width="24" height="24" fill="white"/>
</clipPath>
</defs>
</svg>
