<svg width="24" height="24" viewBox="0 0 24 24" fill="none" xmlns="http://www.w3.org/2000/svg">
<g clip-path="url(#clip0)">
<path d="M1.00001 18.9998C0.744006 18.9998 0.488006 18.9018 0.293006 18.7068C-0.0979941 18.3158 -0.0979941 17.6838 0.293006 17.2928L7.79301 9.79276C8.18401 9.40176 8.81601 9.40176 9.20701 9.79276L13.5 14.0858L22.293 5.29276C22.684 4.90176 23.316 4.90176 23.707 5.29276C24.098 5.68376 24.098 6.31576 23.707 6.70676L14.207 16.2068C13.816 16.5978 13.184 16.5978 12.793 16.2068L8.50001 11.9138L1.70701 18.7068C1.51201 18.9018 1.25601 18.9998 1.00001 18.9998Z" fill="black"/>
<path d="M23 13C22.447 13 22 12.552 22 12V7H17C16.447 7 16 6.552 16 6C16 5.448 16.447 5 17 5H23C23.553 5 24 5.448 24 6V12C24 12.552 23.553 13 23 13Z" fill="black"/>
</g>
<defs>
<clipPath id="clip0">
<rect width="24" height="24" fill="white"/>
</clipPath>
</defs>
</svg>
