<svg width="24" height="24" viewBox="0 0 24 24" fill="none" xmlns="http://www.w3.org/2000/svg">
<path d="M20 23H4C2.346 23 1 21.654 1 20V9C1 7.346 2.346 6 4 6H20C21.654 6 23 7.346 23 9V20C23 21.654 21.654 23 20 23ZM4 8C3.449 8 3 8.449 3 9V20C3 20.552 3.449 21 4 21H20C20.552 21 21 20.552 21 20V9C21 8.449 20.552 8 20 8H4Z" fill="black"/>
<path d="M12 7.99976C11.744 7.99976 11.488 7.90176 11.293 7.70676L6.29301 2.70676C5.90201 2.31576 5.90201 1.68376 6.29301 1.29276C6.68401 0.901762 7.31601 0.901762 7.70701 1.29276L12 5.58576L16.293 1.29276C16.684 0.901762 17.316 0.901762 17.707 1.29276C18.098 1.68376 18.098 2.31576 17.707 2.70676L12.707 7.70676C12.512 7.90176 12.256 7.99976 12 7.99976Z" fill="black"/>
</svg>
