<svg width="24" height="24" viewBox="0 0 24 24" fill="none" xmlns="http://www.w3.org/2000/svg">
<path d="M20 8C19.447 8 19 7.552 19 7V5H5V7C5 7.552 4.552 8 4 8C3.448 8 3 7.552 3 7V4C3 3.448 3.448 3 4 3H20C20.553 3 21 3.448 21 4V7C21 7.552 20.553 8 20 8Z" fill="black"/>
<path d="M15 21H9C8.448 21 8 20.553 8 20C8 19.447 8.448 19 9 19H15C15.553 19 16 19.447 16 20C16 20.553 15.553 21 15 21Z" fill="black"/>
<path d="M12 21C11.448 21 11 20.553 11 20V4C11 3.448 11.448 3 12 3C12.552 3 13 3.448 13 4V20C13 20.553 12.552 21 12 21Z" fill="black"/>
</svg>
