<svg width="24" height="24" viewBox="0 0 24 24" fill="none" xmlns="http://www.w3.org/2000/svg">
<path d="M19 23H5C3.346 23 2 21.654 2 20V13C2 11.346 3.346 10 5 10H19C20.654 10 22 11.346 22 13V20C22 21.654 20.654 23 19 23ZM5 12C4.449 12 4 12.449 4 13V20C4 20.552 4.449 21 5 21H19C19.552 21 20 20.552 20 20V13C20 12.449 19.552 12 19 12H5Z" fill="black"/>
<path d="M7 12.0001C6.448 12.0001 6 11.5521 6 11.0001V7.00012C5.999 5.39812 6.621 3.89112 7.753 2.75712C8.885 1.62212 10.392 0.997117 11.994 0.995117C11.996 0.995117 11.998 0.995117 12 0.995117C14.842 0.995117 17.314 3.01512 17.88 5.80112C17.99 6.34212 17.641 6.87012 17.1 6.98012C16.555 7.09512 16.031 6.74012 15.92 6.19912C15.543 4.34212 13.895 2.99512 12 2.99512C11.999 2.99512 11.998 2.99512 11.996 2.99512C10.928 2.99612 9.923 3.41312 9.168 4.16912C8.414 4.92612 7.999 5.93112 8 6.99912V11.0001C8 11.5521 7.552 12.0001 7 12.0001Z" fill="black"/>
</svg>
