<svg width="24" height="24" viewBox="0 0 24 24" fill="none" xmlns="http://www.w3.org/2000/svg">
<path d="M19 22H5C3.346 22 2 20.654 2 19V15C2 14.447 2.448 14 3 14C3.552 14 4 14.447 4 15V19C4 19.552 4.449 20 5 20H19C19.552 20 20 19.552 20 19V15C20 14.447 20.447 14 21 14C21.553 14 22 14.447 22 15V19C22 20.654 20.654 22 19 22Z" fill="black"/>
<path d="M17 8.99976C16.744 8.99976 16.488 8.90176 16.293 8.70676L12 4.41376L7.70701 8.70676C7.31601 9.09776 6.68401 9.09776 6.29301 8.70676C5.90201 8.31576 5.90201 7.68376 6.29301 7.29276L11.293 2.29276C11.684 1.90176 12.316 1.90176 12.707 2.29276L17.707 7.29276C18.098 7.68376 18.098 8.31576 17.707 8.70676C17.512 8.90176 17.256 8.99976 17 8.99976Z" fill="black"/>
<path d="M12 16C11.448 16 11 15.553 11 15V3C11 2.448 11.448 2 12 2C12.552 2 13 2.448 13 3V15C13 15.553 12.552 16 12 16Z" fill="black"/>
</svg>
