<svg width="24" height="24" viewBox="0 0 24 24" fill="none" xmlns="http://www.w3.org/2000/svg">
<g clip-path="url(#clip0)">
<path d="M16 22C15.447 22 15 21.553 15 21V19C15 17.346 13.654 16 12 16H5C3.346 16 2 17.346 2 19V21C2 21.553 1.552 22 1 22C0.448 22 0 21.553 0 21V19C0 16.243 2.243 14 5 14H12C14.757 14 17 16.243 17 19V21C17 21.553 16.553 22 16 22Z" fill="black"/>
<path d="M8.5 12C5.743 12 3.5 9.757 3.5 7C3.5 4.243 5.743 2 8.5 2C11.257 2 13.5 4.243 13.5 7C13.5 9.757 11.257 12 8.5 12ZM8.5 4C6.846 4 5.5 5.346 5.5 7C5.5 8.654 6.846 10 8.5 10C10.154 10 11.5 8.654 11.5 7C11.5 5.346 10.154 4 8.5 4Z" fill="black"/>
<path d="M19 13.9998C18.744 13.9998 18.488 13.9018 18.293 13.7068L16.293 11.7068C15.902 11.3158 15.902 10.6838 16.293 10.2928C16.684 9.90176 17.316 9.90176 17.707 10.2928L19 11.5858L22.293 8.29276C22.684 7.90176 23.316 7.90176 23.707 8.29276C24.098 8.68376 24.098 9.31576 23.707 9.70676L19.707 13.7068C19.512 13.9018 19.256 13.9998 19 13.9998Z" fill="black"/>
</g>
<defs>
<clipPath id="clip0">
<rect width="24" height="24" fill="white"/>
</clipPath>
</defs>
</svg>
