<svg width="24" height="24" viewBox="0 0 24 24" fill="none" xmlns="http://www.w3.org/2000/svg">
<path d="M16 22C15.447 22 15 21.553 15 21V19C15 17.346 13.654 16 12 16H5C3.346 16 2 17.346 2 19V21C2 21.553 1.552 22 1 22C0.448 22 0 21.553 0 21V19C0 16.243 2.243 14 5 14H12C14.757 14 17 16.243 17 19V21C17 21.553 16.553 22 16 22Z" fill="black"/>
<path d="M8.5 12C5.743 12 3.5 9.757 3.5 7C3.5 4.243 5.743 2 8.5 2C11.257 2 13.5 4.243 13.5 7C13.5 9.757 11.257 12 8.5 12ZM8.5 4C6.846 4 5.5 5.346 5.5 7C5.5 8.654 6.846 10 8.5 10C10.154 10 11.5 8.654 11.5 7C11.5 5.346 10.154 4 8.5 4Z" fill="black"/>
<path d="M20 15C19.447 15 19 14.553 19 14V8C19 7.448 19.447 7 20 7C20.553 7 21 7.448 21 8V14C21 14.553 20.553 15 20 15Z" fill="black"/>
<path d="M23 12H17C16.447 12 16 11.552 16 11C16 10.448 16.447 10 17 10H23C23.553 10 24 10.448 24 11C24 11.552 23.553 12 23 12Z" fill="black"/>
</svg>
