<svg width="24" height="24" viewBox="0 0 24 24" fill="none" xmlns="http://www.w3.org/2000/svg">
<g clip-path="url(#clip0)">
<path d="M17 22C16.447 22 16 21.553 16 21V19C16 17.346 14.654 16 13 16H5C3.346 16 2 17.346 2 19V21C2 21.553 1.552 22 1 22C0.448 22 0 21.553 0 21V19C0 16.243 2.243 14 5 14H13C15.757 14 18 16.243 18 19V21C18 21.553 17.553 22 17 22Z" fill="black"/>
<path d="M9 12C6.243 12 4 9.757 4 7C4 4.243 6.243 2 9 2C11.757 2 14 4.243 14 7C14 9.757 11.757 12 9 12ZM9 4C7.346 4 6 5.346 6 7C6 8.654 7.346 10 9 10C10.654 10 12 8.654 12 7C12 5.346 10.654 4 9 4Z" fill="black"/>
<path d="M23 21.9998C22.447 21.9998 22 21.5528 22 20.9998V18.9998C21.999 17.6338 21.074 16.4398 19.75 16.0978C19.215 15.9598 18.894 15.4138 19.032 14.8798C19.17 14.3448 19.715 14.0198 20.25 14.1618C22.457 14.7318 23.999 16.7218 24 18.9988V20.9998C24 21.5528 23.553 21.9998 23 21.9998Z" fill="black"/>
<path d="M15.999 11.8802C15.554 11.8802 15.146 11.5802 15.031 11.1282C14.894 10.5932 15.217 10.0482 15.752 9.9112C16.814 9.6392 17.643 8.8112 17.914 7.7492C18.324 6.1462 17.354 4.5092 15.752 4.0992C15.217 3.9622 14.895 3.4172 15.031 2.8822C15.168 2.3472 15.715 2.0232 16.248 2.1612C18.919 2.8452 20.535 5.5742 19.852 8.2452C19.399 10.0152 18.018 11.3952 16.248 11.8492C16.165 11.8702 16.081 11.8802 15.999 11.8802Z" fill="black"/>
</g>
<defs>
<clipPath id="clip0">
<rect width="24" height="24" fill="white"/>
</clipPath>
</defs>
</svg>
