<svg width="24" height="24" viewBox="0 0 24 24" fill="none" xmlns="http://www.w3.org/2000/svg">
<path d="M20 22C19.447 22 19 21.553 19 21V19C19 17.346 17.654 16 16 16H8C6.346 16 5 17.346 5 19V21C5 21.553 4.552 22 4 22C3.448 22 3 21.553 3 21V19C3 16.243 5.243 14 8 14H16C18.757 14 21 16.243 21 19V21C21 21.553 20.553 22 20 22Z" fill="black"/>
<path d="M12 12C9.243 12 7 9.757 7 7C7 4.243 9.243 2 12 2C14.757 2 17 4.243 17 7C17 9.757 14.757 12 12 12ZM12 4C10.346 4 9 5.346 9 7C9 8.654 10.346 10 12 10C13.654 10 15 8.654 15 7C15 5.346 13.654 4 12 4Z" fill="black"/>
</svg>
