<svg width="24" height="24" viewBox="0 0 24 24" fill="none" xmlns="http://www.w3.org/2000/svg">
<path d="M23 18C22.795 18 22.592 17.938 22.419 17.813L15.419 12.813C15.156 12.626 15 12.323 15 12C15 11.677 15.156 11.374 15.419 11.186L22.419 6.18603C22.724 5.96903 23.123 5.93903 23.458 6.11103C23.791 6.28203 24 6.62503 24 7.00003V17C24 17.375 23.791 17.718 23.458 17.89C23.313 17.963 23.156 18 23 18ZM17.721 12L22 15.057V8.94303L17.721 12Z" fill="black"/>
<path d="M14 20H3C1.346 20 0 18.654 0 17V7C0 5.346 1.346 4 3 4H14C15.654 4 17 5.346 17 7V17C17 18.654 15.654 20 14 20ZM3 6C2.449 6 2 6.449 2 7V17C2 17.552 2.449 18 3 18H14C14.552 18 15 17.552 15 17V7C15 6.449 14.552 6 14 6H3Z" fill="black"/>
</svg>
