<svg width="24" height="24" viewBox="0 0 24 24" fill="none" xmlns="http://www.w3.org/2000/svg">
<g clip-path="url(#clip0)">
<path d="M14 20H3C1.346 20 0 18.654 0 17V7C0 5.346 1.346 4 3 4H5C5.552 4 6 4.448 6 5C6 5.552 5.552 6 5 6H3C2.449 6 2 6.449 2 7V17C2 17.552 2.449 18 3 18H14C14.552 18 15 17.552 15 17V16C15 15.447 15.447 15 16 15C16.553 15 17 15.447 17 16V17C17 18.654 15.654 20 14 20ZM23 18C22.447 18 22 17.553 22 17V8.958L17.586 12.15C17.19 12.439 16.64 12.395 16.293 12.047L15.293 11.047C15.105 10.859 15 10.605 15 10.34V7C15 6.449 14.552 6 14 6H10.66C10.108 6 9.66 5.552 9.66 5C9.66 4.448 10.108 4 10.66 4H14C15.654 4 17 5.346 17 7V9.926L17.104 10.03L22.414 6.19C22.719 5.97 23.121 5.939 23.455 6.109C23.789 6.28 24 6.625 24 7V17C24 17.553 23.553 18 23 18Z" fill="black"/>
<path d="M23 23.9998C22.744 23.9998 22.488 23.9018 22.293 23.7068L0.293006 1.70676C-0.0979941 1.31576 -0.0979941 0.683762 0.293006 0.292762C0.684006 -0.0982383 1.31601 -0.0982383 1.70701 0.292762L23.707 22.2928C24.098 22.6838 24.098 23.3158 23.707 23.7068C23.512 23.9018 23.256 23.9998 23 23.9998Z" fill="black"/>
</g>
<defs>
<clipPath id="clip0">
<rect width="24" height="24" fill="white"/>
</clipPath>
</defs>
</svg>
