<svg xmlns="http://www.w3.org/2000/svg" viewBox="0 0 20 20">
  <g fill="#FFFFFF" fill-rule="evenodd">
    <path d="M9.82517363 3.15953237L6.3192957 7.02895778 2.95969323 7.02895778C2.23778214 7.02895778 2 7.45944488 2 7.86897109L2 11.1843979C2 11.5948257 2.23778214 12.1116356 2.95969323 12.1116356L6.33507272 12.1116356 9.84095065 16.0416898C9.99331153 16.1289142 10.1641541 16.1764706 10.3347712 16.1764706 10.5047122 16.1764706 10.6446768 16.134098 10.7970377 16.0470991 11.102661 15.8726504 11.2602058 15.5530531 11.2602058 15.203705L11.2602058 3.95356695C11.2602058 3.60512033 11.102661 3.28281847 10.7970377 3.10769361 10.4916398 2.93324491 10.1314731 2.98530906 9.82517363 3.15953237L9.82517363 3.15953237zM14.1990127 12.5112448C15.7467378 10.9389527 15.7467378 8.38217483 14.1990127 6.80965729 13.9472567 6.55452043 13.5377304 6.55452043 13.2859744 6.80965729 13.0351199 7.06411799 13.0351199 7.4752219 13.2859744 7.7296826 14.3337935 8.79418028 14.3337935 10.5269472 13.2859744 11.5912195 13.0351199 11.8456802 13.0351199 12.2567841 13.2859744 12.5112448 13.4074574 12.6345309 13.571313 12.7032736 13.7421555 12.7032736 13.9136742 12.7032736 14.0775297 12.6345309 14.1990127 12.5112448L14.1990127 12.5112448z"/>
    <path d="M17.9460536,9.66056374 C17.9460536,8.13379955 17.3589233,6.69606278 16.2944256,5.61511193 C16.0426695,5.35884814 15.6331433,5.35884814 15.3813872,5.61511193 C15.1314343,5.86867108 15.1314343,6.28067654 15.3813872,6.53513724 C16.2044966,7.37064283 16.6570715,8.47976693 16.6570715,9.66056374 C16.6570715,10.8411352 16.2038205,11.9513862 15.3813872,12.7868918 C15.1314343,13.0404509 15.1314343,13.4524564 15.3813872,13.7069171 C15.5037718,13.8302032 15.6667258,13.8987205 15.8382445,13.8987205 C16.009087,13.8987205 16.1738441,13.8302032 16.2944256,13.7060156 C17.3589233,12.6248393 17.9460536,11.1871026 17.9460536,9.66056374 L17.9460536,9.66056374 Z"/>
  </g>
</svg>
