<svg width="24" height="24" viewBox="0 0 24 24" fill="none" xmlns="http://www.w3.org/2000/svg">
<g clip-path="url(#clip0)">
<path d="M11 19.9998C10.777 19.9998 10.556 19.9258 10.375 19.7808L5.649 15.9998H2C1.448 15.9998 1 15.5528 1 14.9998V8.99981C1 8.44781 1.448 7.99981 2 7.99981H5.649L10.375 4.21881C10.675 3.97881 11.086 3.93281 11.433 4.09781C11.78 4.26481 12 4.61581 12 4.99981V18.9998C12 19.3848 11.78 19.7338 11.433 19.9008C11.295 19.9678 11.147 19.9998 11 19.9998ZM3 13.9998H6C6.227 13.9998 6.447 14.0768 6.625 14.2188L10 16.9188V7.08081L6.625 9.78081C6.447 9.92281 6.227 9.99981 6 9.99981H3V13.9998Z" fill="black"/>
<path d="M17 15.9998C16.744 15.9998 16.488 15.9018 16.293 15.7068C15.902 15.3158 15.902 14.6838 16.293 14.2928L22.293 8.29276C22.684 7.90176 23.316 7.90176 23.707 8.29276C24.098 8.68376 24.098 9.31576 23.707 9.70676L17.707 15.7068C17.512 15.9018 17.256 15.9998 17 15.9998Z" fill="black"/>
<path d="M23 15.9998C22.744 15.9998 22.488 15.9018 22.293 15.7068L16.293 9.70676C15.902 9.31576 15.902 8.68376 16.293 8.29276C16.684 7.90176 17.316 7.90176 17.707 8.29276L23.707 14.2928C24.098 14.6838 24.098 15.3158 23.707 15.7068C23.512 15.9018 23.256 15.9998 23 15.9998Z" fill="black"/>
</g>
<defs>
<clipPath id="clip0">
<rect width="24" height="24" fill="white"/>
</clipPath>
</defs>
</svg>
