<svg xmlns="http://www.w3.org/2000/svg" viewBox="0 0 20 20">
  <g fill="#FFFFFF" fill-rule="evenodd">
    <path d="M4.05139237,12.1116356 L2.95969323,12.1116356 C2.23778214,12.1116356 2,11.5948257 2,11.1843979 L2,7.86897109 C2,7.45944488 2.23778214,7.02895778 2.95969323,7.02895778 L6.3192957,7.02895778 L9.82517363,3.15953237 C10.1314731,2.98530906 10.4916398,2.93324491 10.7970377,3.10769361 C11.102661,3.28281847 11.2602058,3.60512033 11.2602058,3.95356695 L11.2602058,4.90282219 L4.05139237,12.1116356 Z M7.92544978,13.8944324 L9.84095065,16.0416898 C9.99331153,16.1289142 10.1641541,16.1764706 10.3347712,16.1764706 C10.5047122,16.1764706 10.6446768,16.134098 10.7970377,16.0470991 C11.102661,15.8726504 11.2602058,15.5530531 11.2602058,15.203705 L11.2602058,10.5596764 L7.92544978,13.8944324 Z"/>
    <polygon points="1.014 16.564 15.156 2.422 16.57 3.836 2.428 17.978"/>
  </g>
</svg>
