<svg width="24" height="24" viewBox="0 0 24 24" fill="none" xmlns="http://www.w3.org/2000/svg">
<path d="M11 19.9998C10.777 19.9998 10.556 19.9258 10.375 19.7808L5.649 15.9998H2C1.448 15.9998 1 15.5528 1 14.9998V8.99981C1 8.44781 1.448 7.99981 2 7.99981H5.649L10.375 4.21881C10.675 3.97881 11.086 3.93281 11.433 4.09781C11.78 4.26481 12 4.61581 12 4.99981V18.9998C12 19.3848 11.78 19.7338 11.433 19.9008C11.295 19.9678 11.147 19.9998 11 19.9998ZM3 13.9998H6C6.227 13.9998 6.447 14.0768 6.625 14.2188L10 16.9188V7.08081L6.625 9.78081C6.447 9.92281 6.227 9.99981 6 9.99981H3V13.9998Z" fill="black"/>
<path d="M19.07 20.0699C18.814 20.0699 18.558 19.9719 18.363 19.7769C17.972 19.3859 17.972 18.7539 18.363 18.3629C21.87 14.8539 21.87 9.14494 18.363 5.63694C17.972 5.24594 17.972 4.61294 18.363 4.22294C18.754 3.83194 19.386 3.83194 19.777 4.22294C24.063 8.51094 24.064 15.4879 19.777 19.7769C19.582 19.9729 19.326 20.0699 19.07 20.0699ZM15.54 16.5299C15.284 16.5299 15.028 16.4319 14.833 16.2369C14.442 15.8459 14.442 15.2139 14.833 14.8229C16.392 13.2629 16.392 10.7259 14.833 9.16694C14.442 8.77594 14.442 8.14294 14.833 7.75294C15.224 7.36194 15.856 7.36194 16.247 7.75294C18.586 10.0919 18.586 13.8979 16.247 16.2369C16.052 16.4329 15.796 16.5299 15.54 16.5299Z" fill="black"/>
</svg>
