<svg width="24" height="24" viewBox="0 0 24 24" fill="none" xmlns="http://www.w3.org/2000/svg">
<path d="M11 19.9998C10.777 19.9998 10.556 19.9258 10.375 19.7808L5.649 15.9998H2C1.448 15.9998 1 15.5528 1 14.9998V8.99981C1 8.44781 1.448 7.99981 2 7.99981H5.649L10.375 4.21881C10.675 3.97881 11.086 3.93281 11.433 4.09781C11.78 4.26481 12 4.61581 12 4.99981V18.9998C12 19.3848 11.78 19.7338 11.433 19.9008C11.295 19.9678 11.147 19.9998 11 19.9998ZM3 13.9998H6C6.227 13.9998 6.447 14.0768 6.625 14.2188L10 16.9188V7.08081L6.625 9.78081C6.447 9.92281 6.227 9.99981 6 9.99981H3V13.9998Z" fill="black"/>
<path d="M15.54 16.5302C15.284 16.5302 15.028 16.4322 14.833 16.2372C14.442 15.8462 14.442 15.2142 14.833 14.8232C16.392 13.2632 16.392 10.7262 14.833 9.16721C14.442 8.77621 14.442 8.14321 14.833 7.75321C15.224 7.36221 15.856 7.36221 16.247 7.75321C18.586 10.0922 18.586 13.8982 16.247 16.2372C16.052 16.4332 15.796 16.5302 15.54 16.5302Z" fill="black"/>
</svg>
