<svg width="24" height="24" viewBox="0 0 24 24" fill="none" xmlns="http://www.w3.org/2000/svg">
<path d="M12 23C5.935 23 1 18.065 1 12C1 5.935 5.935 1 12 1C18.065 1 23 5.935 23 12C23 18.065 18.065 23 12 23ZM12 3C7.038 3 3 7.038 3 12C3 16.963 7.038 21 12 21C16.963 21 21 16.963 21 12C21 7.038 16.963 3 12 3Z" fill="black"/>
<path d="M9.00001 15.9998C8.74401 15.9998 8.48801 15.9018 8.29301 15.7068C7.90201 15.3158 7.90201 14.6838 8.29301 14.2928L14.293 8.29276C14.684 7.90176 15.316 7.90176 15.707 8.29276C16.098 8.68376 16.098 9.31576 15.707 9.70676L9.70701 15.7068C9.51201 15.9018 9.25601 15.9998 9.00001 15.9998Z" fill="black"/>
<path d="M15 15.9998C14.744 15.9998 14.488 15.9018 14.293 15.7068L8.29301 9.70676C7.90201 9.31576 7.90201 8.68376 8.29301 8.29276C8.68401 7.90176 9.31601 7.90176 9.70701 8.29276L15.707 14.2928C16.098 14.6838 16.098 15.3158 15.707 15.7068C15.512 15.9018 15.256 15.9998 15 15.9998Z" fill="black"/>
</svg>
