<svg width="24" height="24" viewBox="0 0 24 24" fill="none" xmlns="http://www.w3.org/2000/svg">
<path d="M6.00001 18.9998C5.74401 18.9998 5.48801 18.9018 5.29301 18.7068C4.90201 18.3158 4.90201 17.6838 5.29301 17.2928L17.293 5.29276C17.684 4.90176 18.316 4.90176 18.707 5.29276C19.098 5.68376 19.098 6.31576 18.707 6.70676L6.70701 18.7068C6.51201 18.9018 6.25601 18.9998 6.00001 18.9998Z" fill="black"/>
<path d="M18 18.9998C17.744 18.9998 17.488 18.9018 17.293 18.7068L5.29301 6.70676C4.90201 6.31576 4.90201 5.68376 5.29301 5.29276C5.68401 4.90176 6.31601 4.90176 6.70701 5.29276L18.707 17.2928C19.098 17.6838 19.098 18.3158 18.707 18.7068C18.512 18.9018 18.256 18.9998 18 18.9998Z" fill="black"/>
</svg>
