<svg width="24" height="24" viewBox="0 0 24 24" fill="none" xmlns="http://www.w3.org/2000/svg">
<g clip-path="url(#clip0)">
<path d="M11.9999 20.46C11.2819 20.46 4.93689 20.446 3.14189 19.966C1.86889 19.617 0.858895 18.617 0.497895 17.355C0.147895 15.444 -0.0121053 13.589 -0.000105277 11.744C-0.00910528 9.924 0.150895 8.083 0.475895 6.283C0.817895 4.908 1.82889 3.866 3.12789 3.498C4.93689 3.014 11.2819 3 11.9999 3C12.7159 3 19.0519 3.013 20.8369 3.448C22.1709 3.824 23.1819 4.866 23.5099 6.177C23.5159 6.198 23.5209 6.22 23.5249 6.242C23.8509 8.054 24.0109 9.909 24.0009 11.756C24.0069 13.567 23.8469 15.394 23.5249 17.178C23.1819 18.553 22.1709 19.595 20.8729 19.962C19.0629 20.446 12.7179 20.46 11.9999 20.46ZM11.9999 5C9.28689 5 4.82689 5.114 3.65789 5.426C3.06089 5.595 2.58389 6.086 2.42989 6.703C2.14089 8.318 1.99189 10.036 1.99989 11.745C1.98889 13.478 2.13889 15.21 2.44389 16.902C2.59089 17.401 3.06789 17.872 3.66389 18.035C4.82689 18.347 9.28689 18.46 11.9999 18.46C14.7129 18.46 19.1729 18.347 20.3409 18.034C20.9399 17.864 21.4149 17.374 21.5699 16.757C21.8559 15.157 22.0059 13.452 21.9999 11.754C22.0109 10.032 21.8629 8.313 21.5619 6.634C21.3999 6.03 20.9299 5.552 20.3279 5.382C19.0479 5.07 13.8799 5 11.9999 5Z" fill="black"/>
<path d="M9.75 16.0201C9.576 16.0201 9.402 15.9751 9.247 15.8841C8.939 15.7051 8.75 15.3761 8.75 15.0201V8.48011C8.75 8.12411 8.939 7.79412 9.247 7.61612C9.555 7.43812 9.935 7.43412 10.244 7.61112L15.994 10.8811C16.306 11.0591 16.5 11.3911 16.5 11.7501C16.5 12.1101 16.307 12.4411 15.994 12.6191L10.244 15.8891C10.091 15.9761 9.92 16.0201 9.75 16.0201ZM10.75 10.1991V13.3011L13.477 11.7501L10.75 10.1991Z" fill="black"/>
</g>
<defs>
<clipPath id="clip0">
<rect width="24" height="24" fill="white"/>
</clipPath>
</defs>
</svg>
