<svg width="24" height="24" viewBox="0 0 24 24" fill="none" xmlns="http://www.w3.org/2000/svg">
<path d="M11 20C6.038 20 2 15.963 2 11C2 6.038 6.038 2 11 2C15.963 2 20 6.038 20 11C20 15.963 15.963 20 11 20ZM11 4C7.14 4 4 7.14 4 11C4 14.859 7.14 18 11 18C14.859 18 18 14.859 18 11C18 7.14 14.859 4 11 4Z" fill="black"/>
<path d="M20.9999 22.0002C20.7439 22.0002 20.4879 21.9022 20.2929 21.7072L15.9429 17.3572C15.5519 16.9662 15.5519 16.3342 15.9429 15.9432C16.3339 15.5522 16.9659 15.5522 17.3569 15.9432L21.7069 20.2932C22.0979 20.6842 22.0979 21.3162 21.7069 21.7072C21.5119 21.9022 21.2559 22.0002 20.9999 22.0002Z" fill="black"/>
<path d="M14 12H8C7.448 12 7 11.552 7 11C7 10.448 7.448 10 8 10H14C14.553 10 15 10.448 15 11C15 11.552 14.553 12 14 12Z" fill="black"/>
</svg>
