<svg width="24" height="24" viewBox="0 0 24 24" fill="none" xmlns="http://www.w3.org/2000/svg">
<path d="M12 2C6.47715 2 2 6.47715 2 12C2 17.5228 6.47715 22 12 22C17.5228 22 22 17.5228 22 12C22 6.47715 17.5228 2 12 2ZM16.7474 10.1644L11.4141 16.1644C11.2243 16.3779 10.9523 16.5 10.6667 16.5C10.381 16.5 10.109 16.3779 9.91927 16.1644L7.2526 13.1644C6.88568 12.7516 6.92286 12.1195 7.33565 11.7526C7.74843 11.3857 8.3805 11.4229 8.74742 11.8356L10.6667 13.9948L15.2526 8.83564C15.6195 8.42285 16.2516 8.38567 16.6644 8.75259C17.0772 9.11951 17.1143 9.75158 16.7474 10.1644Z" fill="#4B5563"/>
</svg>
