<svg width="24" height="24" viewBox="0 0 24 24" fill="none" xmlns="http://www.w3.org/2000/svg">
<path d="M13.7698 3.2156C13.02 1.79092 10.98 1.79093 10.2301 3.2156L1.88651 19.0685C1.18556 20.4003 2.15133 22 3.65635 22H20.3436C21.8486 22 22.8144 20.4003 22.1135 19.0685L13.7698 3.2156ZM11 13V10C11 9.44772 11.4477 9 12 9C12.5523 9 13 9.44772 13 10V13C13 13.5523 12.5523 14 12 14C11.4477 14 11 13.5523 11 13ZM12 15C12.8284 15 13.5 15.6716 13.5 16.5C13.5 17.3284 12.8284 18 12 18C11.1716 18 10.5 17.3284 10.5 16.5C10.5 15.6716 11.1716 15 12 15Z" fill="#4B5563"/>
</svg>
