<?xml version="1.0" encoding="utf-8"?>
<!-- Generator: Adobe Illustrator 17.1.0, SVG Export Plug-In . SVG Version: 6.00 Build 0)  -->
<!DOCTYPE svg PUBLIC "-//W3C//DTD SVG 1.1//EN" "http://www.w3.org/Graphics/SVG/1.1/DTD/svg11.dtd">
<svg version="1.1" id="Layer_1" xmlns="http://www.w3.org/2000/svg" xmlns:xlink="http://www.w3.org/1999/xlink" x="0px" y="0px"
	 viewBox="-8.5 -3.9 64 64" enable-background="new -8.5 -3.9 64 64" xml:space="preserve">
<rect x="-8.5" y="-3.9" fill="#D1D6DA" width="64" height="64"/>
<g>
	<g>
		<ellipse fill="#FFFFFF" cx="23.5" cy="18" rx="11.5" ry="14.1"/>
		<path fill="#FFFFFF" d="M34.8,32.1c1.8-0.5,3.5-0.5,5.1,0.9c6,5.4,6.9,14,7.1,21.6c0.1,3.2-0.1,5.5-0.1,5.5H0c0,0-0.2-1.7,1-15.2
			c0.7-3.8,1.9-7.7,4.7-10.6C8,32,12.1,31,15.1,32.8c3.5,2.2,5.7,5,10.3,3.9C28.2,36,31.6,33.1,34.8,32.1z"/>
	</g>
</g>
</svg>
