<?xml version="1.0" encoding="UTF-8"?>
<svg width="108px" height="24px" viewBox="0 0 108 24" version="1.1" xmlns="http://www.w3.org/2000/svg" xmlns:xlink="http://www.w3.org/1999/xlink">
    <!-- Generator: Sketch 48.2 (47327) - http://www.bohemiancoding.com/sketch -->
    <title>Logo</title>
    <desc>Created with Sketch.</desc>
    <defs></defs>
    <g id="Bedrock---Homepage" stroke="none" stroke-width="1" fill="none" fill-rule="evenodd" transform="translate(-131.000000, -28.000000)">
        <g id="Hero" fill="#000000">
            <g id="Menu">
                <g id="Logo" transform="translate(128.000000, 24.000000)">
                    <path d="M41.36,9.2 L45.98,9.2 C49.24,9.2 51.02,10.36 51.02,12.82 C51.02,14.24 50.3,15.22 49.2,15.76 C50.62,16.28 51.46,17.32 51.46,19.04 C51.46,21.18 50.06,23 46.42,23 L41.36,23 L41.36,9.2 Z M44.16,17.02 L44.16,20.64 L46.18,20.64 C47.86,20.64 48.66,20 48.66,18.82 C48.66,17.52 47.8,17.02 45.92,17.02 L44.16,17.02 Z M44.16,11.56 L44.16,14.66 L46.02,14.66 C47.56,14.66 48.22,14.06 48.22,13.08 C48.22,12.12 47.74,11.56 45.72,11.56 L44.16,11.56 Z M59.18,20.16 L61.08,21.48 C60.38,22.7 59.22,23.18 57.42,23.18 C54.42,23.18 52.98,21.24 52.98,18.66 L52.98,17.3 C52.98,14.28 54.5,12.82 57.1,12.82 C59.92,12.82 61.22,14.46 61.22,17.5 L61.22,18.64 L55.52,18.64 C55.54,20.02 55.98,21.02 57.4,21.02 C58.46,21.02 58.8,20.7 59.18,20.16 Z M57.12,14.98 C56.1,14.98 55.62,15.68 55.52,16.82 L58.66,16.82 C58.6,15.52 58.08,14.98 57.12,14.98 Z M69,13.52 L69,9.2 L71.54,9.2 L71.54,23 L69,23 L69,22.42 C68.48,22.9 67.8,23.18 66.86,23.18 C64.24,23.18 62.9,21.32 62.9,18.66 L62.9,17.3 C62.9,14.38 64.48,12.82 66.86,12.82 C67.72,12.82 68.44,13.04 69,13.52 Z M67.22,21.02 C68.66,21.02 69,19.94 69,18.5 L69,17.24 C69,15.78 68.42,14.98 67.22,14.98 C65.96,14.98 65.44,15.86 65.44,17.46 L65.44,18.5 C65.44,19.94 65.84,21.02 67.22,21.02 Z M81.18,14.38 C80.58,13.34 79.68,12.82 78.48,12.82 C77.3,12.82 76.64,13.34 76.3,13.84 L76.3,13 L73.8,13 L73.8,23 L76.36,23 L76.36,17.12 C76.36,15.72 77,15.02 77.96,15.02 C78.6,15.02 78.96,15.4 79.22,15.78 L81.18,14.38 Z M90.34,17.38 L90.34,18.58 C90.34,21.32 89.04,23.18 86.02,23.18 C83.12,23.18 81.7,21.38 81.7,18.58 L81.7,17.38 C81.7,14.38 83.28,12.82 86.02,12.82 C88.8,12.82 90.34,14.38 90.34,17.38 Z M86.02,21.02 C87.42,21.02 87.8,19.94 87.8,18.5 L87.8,17.46 C87.8,15.86 87.28,14.98 86.02,14.98 C84.76,14.98 84.24,15.86 84.24,17.46 L84.24,18.5 C84.24,19.94 84.6,21.02 86.02,21.02 Z M98.08,20.16 C97.72,20.76 97.18,21.02 96.42,21.02 C94.8,21.02 94.42,19.94 94.42,18.5 L94.42,17.46 C94.42,15.86 94.98,14.98 96.42,14.98 C97.22,14.98 97.72,15.34 98.06,15.82 L99.98,14.48 C99.28,13.38 98.02,12.82 96.48,12.82 C93.5,12.82 91.88,14.38 91.88,17.3 L91.88,18.66 C91.88,21.38 93.48,23.18 96.34,23.18 C98.14,23.18 99.28,22.66 99.98,21.48 L98.08,20.16 Z M106.72,13 L103.92,16.64 L103.92,9.2 L101.36,9.2 L101.36,23 L103.92,23 L103.92,20.08 L104.6,19.24 L107.34,23 L110.34,23 L106.3,17.18 L109.76,13 L106.72,13 Z" id="Bedrock"></path>
                    <g id="Mark">
                        <polygon id="Background" fill-opacity="0" points="0 32 32 32 32 0 0 0"></polygon>
                        <path d="M24.3092667,15.0878667 C25.3572667,13.9092 25.9999333,12.3632 25.9999333,10.6665333 C25.9999333,6.99053333 23.0092667,3.99986667 19.3332667,3.99986667 L3.33326667,3.99986667 L3.33326667,6.66653333 L19.3332667,6.66653333 C21.5392667,6.66653333 23.3332667,8.4612 23.3332667,10.6665333 C23.3332667,12.8725333 21.5392667,14.6665333 19.3332667,14.6665333 L8.6666,14.6665333 L8.6666,17.3332 L21.9999333,17.3332 C24.2059333,17.3332 25.9999333,19.1278667 25.9999333,21.3332 C25.9999333,23.5392 24.2059333,25.3332 21.9999333,25.3332 L3.33326667,25.3332 L3.33326667,27.9998667 L21.9999333,27.9998667 C25.6759333,27.9998667 28.6666,25.0092 28.6666,21.3332 C28.6666,18.4698667 26.8492667,16.0298667 24.3092667,15.0878667 Z M5.99993333,22.6665333 L13.9999333,22.6665333 L13.9999333,19.9998667 L5.99993333,19.9998667 L5.99993333,22.6665333 Z M5.99993333,11.9998667 L13.9999333,11.9998667 L13.9999333,9.3332 L5.99993333,9.3332 L5.99993333,11.9998667 Z" id="Icon"></path>
                    </g>
                </g>
            </g>
        </g>
    </g>
</svg>