<svg width="583" height="432" viewBox="0 0 583 432" fill="none" xmlns="http://www.w3.org/2000/svg">
<ellipse rx="3.39642" ry="1.52871" transform="matrix(0.449079 0.893492 -0.887292 0.461208 101.448 109.848)" fill="#F8D14B"/>
<ellipse rx="3.39642" ry="1.52871" transform="matrix(0.449079 0.893492 -0.887292 0.461208 110.43 134.657)" fill="#F8D14B"/>
<ellipse rx="3.39294" ry="1.5303" transform="matrix(0.512081 0.858937 -0.851211 0.524823 113.635 103.032)" fill="#F8D14B"/>
<ellipse rx="3.40645" ry="1.52409" transform="matrix(0.169165 0.985588 -0.984609 0.174774 105.104 93.737)" fill="#F8D14B"/>
<ellipse rx="3.37409" ry="1.53889" transform="matrix(0.770017 0.638023 -0.625263 0.780414 96.5729 122.861)" fill="#F8D14B"/>
<ellipse rx="3.39294" ry="1.5303" transform="matrix(0.512081 0.858937 -0.851211 0.524823 116.072 126.579)" fill="#F8D14B"/>
<ellipse rx="3.39294" ry="1.5303" transform="matrix(0.512081 0.858937 -0.851211 0.524823 54.5296 142.69)" fill="#F8D14B"/>
<ellipse rx="3.39294" ry="1.5303" transform="matrix(0.512081 0.858937 -0.851211 0.524823 83.168 82.5832)" fill="#F8D14B"/>
<ellipse rx="3.39294" ry="1.5303" transform="matrix(0.512081 0.858937 -0.851211 0.524823 85.6053 124.72)" fill="#F8D14B"/>
<ellipse rx="3.39294" ry="1.5303" transform="matrix(0.512081 0.858937 -0.851211 0.524823 54.5296 124.72)" fill="#F8D14B"/>
<ellipse rx="3.39294" ry="1.5303" transform="matrix(0.512081 0.858937 -0.851211 0.524823 88.0425 109.848)" fill="#F8D14B"/>
<ellipse rx="3.4029" ry="1.52573" transform="matrix(0.299405 0.954126 -0.951166 0.30868 73.4185 115.425)" fill="#F8D14B"/>
<ellipse rx="3.4029" ry="1.52573" transform="matrix(0.299405 0.954126 -0.951166 0.30868 66.7554 149.506)" fill="#F8D14B"/>
<ellipse rx="3.37687" ry="1.53763" transform="matrix(0.737341 0.675521 -0.663102 0.748529 57.576 110.468)" fill="#F8D14B"/>
<ellipse rx="3.39141" ry="1.531" transform="matrix(0.537422 0.843313 -0.83497 0.550296 66.7162 132.156)" fill="#F8D14B"/>
<ellipse rx="3.38487" ry="1.53399" transform="matrix(0.634922 0.772576 -0.76197 0.647613 78.2933 97.4549)" fill="#F8D14B"/>
<ellipse rx="3.39294" ry="1.5303" transform="matrix(0.512081 0.858937 -0.851211 0.524823 63.0601 93.737)" fill="#F8D14B"/>
<ellipse rx="3.39294" ry="1.5303" transform="matrix(0.512081 0.858937 -0.851211 0.524823 93.5266 95.5959)" fill="#F8D14B"/>
<path d="M74.4973 348.276C70.0713 362.7 79.0028 388.343 82.4358 397.283C83.0912 398.99 85.0064 399.63 86.4677 398.624C93.7371 393.621 113.182 379.102 118.327 363.708C123.82 347.27 115.68 321.844 112.386 312.771C111.742 310.997 109.744 310.354 108.263 311.434C100.445 317.136 78.9164 333.875 74.4973 348.276Z" fill="#40C075"/>
<path d="M87.3601 401.284L86.4393 401.674C86.5536 401.944 86.7804 402.15 87.0597 402.238C87.3391 402.326 87.6429 402.287 87.8911 402.132L87.3601 401.284ZM78.1541 349.098L77.1981 348.804L77.1981 348.804L78.1541 349.098ZM114.764 310.234L115.689 309.853C115.574 309.575 115.34 309.363 115.052 309.276C114.763 309.19 114.451 309.238 114.202 309.407L114.764 310.234ZM121.983 364.529L122.932 364.846L121.983 364.529ZM116.012 310.689C116.111 310.146 115.751 309.625 115.207 309.526C114.664 309.427 114.143 309.788 114.045 310.331L116.012 310.689ZM86.5056 400.408C86.2518 400.898 86.4437 401.502 86.9342 401.755C87.4247 402.009 88.028 401.817 88.2819 401.327L86.5056 400.408ZM101.725 367.174C102.062 366.737 101.981 366.109 101.544 365.772C101.106 365.434 100.478 365.515 100.141 365.953L101.725 367.174ZM79.8149 377.612C79.2627 377.619 78.8204 378.072 78.8271 378.624C78.8338 379.177 79.2869 379.619 79.8391 379.612L79.8149 377.612ZM105.865 353.615C105.808 353.065 105.317 352.666 104.767 352.724C104.218 352.781 103.819 353.272 103.876 353.822L105.865 353.615ZM117.257 373.962C117.755 374.202 118.353 373.993 118.593 373.496C118.832 372.998 118.623 372.4 118.126 372.161L117.257 373.962ZM109.609 338.123C109.929 337.672 109.823 337.048 109.373 336.728C108.923 336.408 108.299 336.514 107.979 336.964L109.609 338.123ZM77.9448 349.841C77.3956 349.783 76.9036 350.182 76.8459 350.731C76.7883 351.28 77.1868 351.772 77.7361 351.83L77.9448 349.841ZM105.687 354.614C105.982 354.147 105.843 353.53 105.376 353.234C104.909 352.939 104.292 353.078 103.997 353.545L105.687 354.614ZM77.6877 366.045C77.1357 366.063 76.7026 366.525 76.7204 367.077C76.7381 367.629 77.2 368.062 77.752 368.044L77.6877 366.045ZM109.628 339.531C109.728 338.987 109.368 338.467 108.824 338.367C108.281 338.268 107.76 338.628 107.661 339.171L109.628 339.531ZM121.487 364.668C121.932 364.995 122.558 364.899 122.885 364.454C123.212 364.009 123.116 363.383 122.671 363.056L121.487 364.668ZM87.3601 401.284C88.2808 400.894 88.2808 400.894 88.2807 400.894C88.2806 400.894 88.2805 400.893 88.2803 400.893C88.28 400.892 88.2794 400.891 88.2786 400.889C88.277 400.885 88.2745 400.879 88.2712 400.871C88.2645 400.855 88.2544 400.831 88.2409 400.799C88.2141 400.735 88.174 400.638 88.1218 400.512C88.0174 400.258 87.8644 399.882 87.6712 399.397C87.2847 398.426 86.7378 397.017 86.098 395.271C84.8179 391.777 83.1682 386.938 81.6878 381.553C80.2065 376.164 78.9003 370.25 78.2992 364.601C77.6964 358.937 77.8118 353.622 79.1101 349.391L77.1981 348.804C75.785 353.409 75.6955 359.035 76.3104 364.813C76.927 370.606 78.2612 376.634 79.7593 382.083C81.2582 387.535 82.9268 392.429 84.2201 395.959C84.867 397.725 85.4206 399.151 85.813 400.136C86.0092 400.629 86.1651 401.012 86.2724 401.273C86.326 401.403 86.3674 401.503 86.3956 401.57C86.4097 401.604 86.4204 401.63 86.4278 401.647C86.4315 401.656 86.4343 401.662 86.4362 401.667C86.4372 401.669 86.4379 401.671 86.4384 401.672C86.4387 401.673 86.4389 401.673 86.4391 401.674C86.4392 401.674 86.4393 401.674 87.3601 401.284ZM79.1101 349.391C80.41 345.155 83.2822 340.635 86.9338 336.206C90.5755 331.788 94.9412 327.521 99.1557 323.787C103.368 320.056 107.414 316.872 110.407 314.62C111.904 313.495 113.136 312.603 113.993 311.994C114.421 311.689 114.756 311.455 114.983 311.298C115.096 311.219 115.183 311.159 115.24 311.12C115.269 311.1 115.291 311.085 115.305 311.075C115.313 311.07 115.318 311.067 115.321 311.064C115.323 311.063 115.324 311.062 115.325 311.062C115.325 311.061 115.326 311.061 115.326 311.061C115.326 311.061 115.326 311.061 114.764 310.234C114.202 309.407 114.202 309.407 114.201 309.407C114.201 309.407 114.201 309.408 114.2 309.408C114.199 309.409 114.197 309.41 114.195 309.411C114.191 309.414 114.185 309.418 114.177 309.424C114.162 309.434 114.139 309.45 114.108 309.471C114.048 309.512 113.958 309.574 113.842 309.655C113.609 309.816 113.269 310.055 112.834 310.364C111.964 310.983 110.717 311.885 109.205 313.022C106.182 315.296 102.092 318.514 97.8295 322.29C93.5693 326.064 89.1215 330.408 85.3905 334.934C81.6693 339.448 78.6096 344.204 77.1981 348.804L79.1101 349.391ZM114.764 310.234C113.839 310.615 113.839 310.615 113.839 310.615C113.839 310.615 113.84 310.615 113.84 310.616C113.84 310.616 113.841 310.618 113.841 310.62C113.843 310.623 113.845 310.629 113.848 310.637C113.855 310.652 113.864 310.676 113.877 310.707C113.902 310.77 113.941 310.865 113.99 310.99C114.09 311.24 114.235 311.611 114.418 312.091C114.784 313.051 115.301 314.448 115.9 316.189C117.1 319.672 118.628 324.525 119.945 330.004C122.593 341.022 124.33 354.353 121.035 364.212L122.932 364.846C126.42 354.41 124.547 340.593 121.89 329.537C120.554 323.98 119.006 319.064 117.791 315.538C117.184 313.774 116.66 312.356 116.287 311.378C116.1 310.889 115.951 310.509 115.849 310.251C115.798 310.122 115.758 310.024 115.731 309.957C115.717 309.923 115.707 309.898 115.7 309.881C115.696 309.872 115.694 309.865 115.692 309.861C115.691 309.858 115.69 309.857 115.69 309.855C115.689 309.855 115.689 309.854 115.689 309.854C115.689 309.853 115.689 309.853 114.764 310.234ZM121.035 364.212C117.943 373.463 109.471 382.502 101.63 389.293C97.7296 392.672 94.0246 395.461 91.2946 397.405C89.9302 398.377 88.8105 399.137 88.0335 399.653C87.645 399.911 87.3422 400.108 87.1374 400.24C87.0349 400.306 86.957 400.356 86.9051 400.389C86.8792 400.405 86.8597 400.417 86.847 400.425C86.8406 400.429 86.8359 400.432 86.8329 400.434C86.8314 400.435 86.8304 400.436 86.8297 400.436C86.8294 400.437 86.8292 400.437 86.8291 400.437C86.829 400.437 86.8291 400.437 87.3601 401.284C87.8911 402.132 87.8913 402.131 87.8917 402.131C87.892 402.131 87.8925 402.131 87.893 402.13C87.8941 402.13 87.8956 402.129 87.8975 402.127C87.9013 402.125 87.9069 402.122 87.9141 402.117C87.9286 402.108 87.9498 402.094 87.9775 402.077C88.0329 402.042 88.1145 401.99 88.2206 401.921C88.4328 401.785 88.7433 401.582 89.1399 401.319C89.9331 400.792 91.0708 400.02 92.4549 399.034C95.2222 397.063 98.9795 394.235 102.939 390.805C110.818 383.981 119.658 374.643 122.932 364.846L121.035 364.212ZM115.028 310.51C114.045 310.331 114.045 310.331 114.045 310.331C114.044 310.332 114.044 310.332 114.044 310.333C114.044 310.335 114.043 310.337 114.043 310.341C114.042 310.347 114.04 310.357 114.037 310.371C114.032 310.398 114.025 310.439 114.015 310.492C113.995 310.6 113.965 310.761 113.925 310.973C113.845 311.396 113.726 312.023 113.568 312.832C113.251 314.451 112.78 316.803 112.16 319.729C110.921 325.583 109.088 333.735 106.718 342.927C101.971 361.331 95.0847 383.829 86.5056 400.408L88.2819 401.327C96.9693 384.539 103.9 361.859 108.654 343.426C111.034 334.2 112.873 326.018 114.117 320.143C114.739 317.206 115.213 314.844 115.531 313.216C115.69 312.402 115.81 311.771 115.891 311.343C115.931 311.129 115.961 310.966 115.981 310.856C115.992 310.801 115.999 310.76 116.004 310.732C116.007 310.718 116.009 310.707 116.01 310.7C116.011 310.696 116.011 310.694 116.012 310.692C116.012 310.691 116.012 310.69 116.012 310.69C116.012 310.689 116.012 310.689 115.028 310.51ZM100.933 366.564C100.141 365.953 100.141 365.953 100.141 365.952C100.141 365.952 100.141 365.952 100.141 365.952C100.141 365.952 100.141 365.953 100.141 365.953C100.14 365.954 100.139 365.955 100.137 365.958C100.134 365.962 100.128 365.969 100.12 365.979C100.105 365.999 100.08 366.03 100.048 366.071C99.9819 366.152 99.8822 366.274 99.7501 366.431C99.4858 366.745 99.0921 367.197 98.5818 367.742C97.5601 368.834 96.0762 370.29 94.2309 371.749C90.5191 374.685 85.4559 377.544 79.8149 377.612L79.8391 379.612C86.1217 379.536 91.6114 376.371 95.4715 373.318C97.4123 371.783 98.9692 370.255 100.042 369.109C100.579 368.536 100.995 368.057 101.28 367.72C101.422 367.551 101.531 367.417 101.606 367.324C101.643 367.278 101.672 367.242 101.692 367.216C101.702 367.204 101.709 367.194 101.715 367.187C101.718 367.183 101.72 367.181 101.721 367.178C101.722 367.177 101.723 367.177 101.723 367.176C101.724 367.175 101.724 367.175 101.724 367.175C101.724 367.175 101.725 367.174 100.933 366.564ZM104.871 353.718C103.876 353.822 103.876 353.822 103.876 353.823C103.876 353.823 103.876 353.823 103.876 353.824C103.876 353.825 103.876 353.826 103.877 353.827C103.877 353.83 103.877 353.833 103.878 353.838C103.879 353.847 103.88 353.859 103.882 353.874C103.885 353.904 103.891 353.948 103.898 354.004C103.912 354.115 103.935 354.276 103.967 354.481C104.032 354.889 104.137 355.474 104.298 356.19C104.621 357.62 105.174 359.584 106.095 361.727C107.933 366.005 111.273 371.077 117.257 373.962L118.126 372.161C112.731 369.56 109.661 364.96 107.933 360.938C107.071 358.931 106.552 357.088 106.249 355.749C106.098 355.08 106.001 354.539 105.943 354.168C105.913 353.983 105.894 353.841 105.881 353.747C105.875 353.7 105.871 353.665 105.868 353.642C105.867 353.631 105.866 353.623 105.866 353.619C105.865 353.616 105.865 353.615 105.865 353.614C105.865 353.614 105.865 353.614 105.865 353.614C105.865 353.614 105.865 353.614 105.865 353.614C105.865 353.614 105.865 353.615 104.871 353.718ZM108.794 337.543C107.979 336.964 107.979 336.964 107.979 336.964C107.979 336.964 107.979 336.963 107.979 336.963C107.979 336.963 107.979 336.964 107.979 336.964C107.978 336.965 107.977 336.967 107.975 336.969C107.971 336.975 107.965 336.984 107.955 336.996C107.937 337.021 107.908 337.06 107.869 337.112C107.79 337.216 107.67 337.371 107.508 337.571C107.185 337.969 106.696 338.543 106.047 339.227C104.747 340.597 102.807 342.407 100.258 344.152C95.1655 347.639 87.6605 350.86 77.9448 349.841L77.7361 351.83C88.0371 352.911 96.0089 349.486 101.388 345.802C104.076 343.962 106.122 342.054 107.498 340.604C108.186 339.878 108.709 339.266 109.061 338.831C109.238 338.613 109.372 338.44 109.463 338.32C109.509 338.259 109.544 338.212 109.568 338.179C109.581 338.162 109.59 338.149 109.597 338.14C109.6 338.135 109.603 338.131 109.605 338.128C109.606 338.127 109.607 338.126 109.608 338.125C109.608 338.124 109.608 338.124 109.608 338.124C109.609 338.123 109.609 338.123 108.794 337.543ZM104.842 354.08C103.997 353.545 103.997 353.545 103.997 353.545C103.997 353.544 103.997 353.544 103.997 353.544C103.998 353.544 103.998 353.544 103.997 353.544C103.997 353.544 103.997 353.545 103.996 353.547C103.993 353.55 103.989 353.557 103.983 353.566C103.971 353.584 103.951 353.614 103.924 353.654C103.869 353.735 103.783 353.857 103.666 354.016C103.43 354.333 103.068 354.795 102.572 355.355C101.58 356.476 100.054 357.986 97.9386 359.519C93.7152 362.58 87.1246 365.741 77.6877 366.045L77.752 368.044C87.6337 367.726 94.6041 364.405 99.1121 361.139C101.362 359.508 102.995 357.894 104.069 356.681C104.607 356.074 105.005 355.567 105.272 355.207C105.406 355.027 105.506 354.883 105.575 354.783C105.61 354.732 105.636 354.692 105.655 354.664C105.664 354.65 105.671 354.639 105.677 354.63C105.679 354.626 105.682 354.623 105.683 354.62C105.684 354.619 105.685 354.617 105.686 354.616C105.686 354.616 105.686 354.615 105.686 354.615C105.687 354.614 105.687 354.614 104.842 354.08ZM108.645 339.351C107.661 339.171 107.661 339.172 107.661 339.173C107.661 339.173 107.66 339.174 107.66 339.175C107.66 339.176 107.66 339.177 107.66 339.179C107.659 339.182 107.658 339.186 107.657 339.191C107.656 339.201 107.654 339.214 107.651 339.23C107.646 339.262 107.639 339.306 107.631 339.362C107.616 339.475 107.596 339.635 107.578 339.839C107.542 340.248 107.51 340.833 107.523 341.568C107.55 343.037 107.76 345.104 108.481 347.54C109.928 352.428 113.416 358.738 121.487 364.668L122.671 363.056C114.95 357.384 111.721 351.439 110.399 346.972C109.735 344.731 109.547 342.845 109.523 341.531C109.511 340.874 109.54 340.36 109.57 340.018C109.586 339.846 109.601 339.718 109.613 339.635C109.618 339.594 109.623 339.565 109.626 339.547C109.627 339.538 109.628 339.532 109.629 339.53C109.629 339.528 109.629 339.528 109.629 339.528C109.629 339.528 109.629 339.528 109.629 339.529C109.629 339.529 109.629 339.529 109.629 339.53C109.629 339.53 109.628 339.531 108.645 339.351Z" fill="black"/>
<path d="M59.173 280.016C44.7458 280.594 25.2616 298.251 18.63 304.678C17.371 305.898 17.5198 307.983 18.9486 309.081C26.045 314.536 46.0492 328.75 61.58 328.549C78.1844 328.335 97.7599 311.539 104.564 305.201C105.887 303.969 105.713 301.797 104.21 300.705C96.2924 294.948 73.557 279.439 59.173 280.016Z" fill="#2E8557"/>
<path d="M16.9233 310.878L16.202 310.186C16.0101 310.385 15.9097 310.656 15.9248 310.933C15.9399 311.209 16.0691 311.467 16.2815 311.645L16.9233 310.878ZM59.7868 283.907L59.7468 282.908L59.7468 282.908L59.7868 283.907ZM107.655 306.706L108.369 307.406C108.568 307.203 108.672 306.924 108.653 306.639C108.634 306.355 108.494 306.092 108.269 305.917L107.655 306.706ZM62.1939 332.44L62.1809 331.44L62.1809 331.44L62.1939 332.44ZM107.675 308.046C108.22 307.953 108.585 307.436 108.492 306.892C108.399 306.347 107.882 305.982 107.338 306.075L107.675 308.046ZM17.4585 309.779C16.9128 309.694 16.4014 310.068 16.3163 310.613C16.2312 311.159 16.6046 311.67 17.1503 311.755L17.4585 309.779ZM52.3305 313.309C52.8505 313.495 53.4229 313.224 53.6089 312.704C53.795 312.184 53.5243 311.612 53.0042 311.426L52.3305 313.309ZM35.1813 295.315C34.9832 294.799 34.4047 294.542 33.8891 294.74C33.3736 294.938 33.1163 295.517 33.3145 296.032L35.1813 295.315ZM65.9601 312.736C66.449 312.479 66.6372 311.874 66.3804 311.385C66.1235 310.896 65.519 310.708 65.03 310.965L65.9601 312.736ZM52.0609 331.078C52.032 331.63 52.4557 332.1 53.0073 332.129C53.5588 332.158 54.0293 331.734 54.0581 331.183L52.0609 331.078ZM80.9679 311.13C81.4951 311.295 82.0559 311.001 82.2206 310.474C82.3853 309.947 82.0915 309.386 81.5643 309.221L80.9679 311.13ZM59.0979 283.933C58.955 283.4 58.4067 283.083 57.8732 283.226C57.3397 283.369 57.0231 283.917 57.166 284.45L59.0979 283.933ZM64.9202 312.915C65.4558 313.049 65.9992 312.724 66.1338 312.189C66.2684 311.653 65.9433 311.11 65.4077 310.975L64.9202 312.915ZM44.652 289.254C44.4445 288.742 43.8614 288.495 43.3496 288.702C42.8377 288.91 42.591 289.493 42.7984 290.005L44.652 289.254ZM79.7781 311.635C80.3225 311.542 80.6886 311.025 80.5957 310.481C80.5029 309.936 79.9862 309.57 79.4418 309.663L79.7781 311.635ZM61.8456 332.082C61.7221 332.62 62.0584 333.157 62.5967 333.28C63.1351 333.404 63.6715 333.067 63.795 332.529L61.8456 332.082ZM16.9233 310.878C17.6447 311.571 17.6447 311.571 17.6448 311.571C17.6449 311.571 17.6451 311.57 17.6454 311.57C17.646 311.569 17.647 311.568 17.6484 311.567C17.6511 311.564 17.6554 311.56 17.6612 311.554C17.6728 311.542 17.6904 311.523 17.7138 311.499C17.7608 311.451 17.8313 311.378 17.9245 311.284C18.1107 311.094 18.3873 310.814 18.7462 310.458C19.4641 309.744 20.5109 308.722 21.8227 307.493C24.4475 305.034 28.1278 301.749 32.353 298.445C36.5812 295.139 41.3364 291.828 46.1115 289.303C50.901 286.771 55.631 285.074 59.8269 284.906L59.7468 282.908C55.1185 283.093 50.0786 284.944 45.1767 287.535C40.2604 290.134 35.4027 293.522 31.121 296.87C26.8364 300.22 23.1099 303.546 20.4553 306.034C19.1274 307.278 18.0664 308.313 17.3363 309.039C16.9713 309.402 16.6889 309.687 16.4972 309.883C16.4013 309.98 16.3281 310.055 16.2786 310.106C16.2538 310.132 16.235 310.151 16.2222 310.165C16.2158 310.171 16.2109 310.176 16.2075 310.18C16.2058 310.182 16.2045 310.183 16.2036 310.184C16.2031 310.184 16.2027 310.185 16.2025 310.185C16.2022 310.185 16.202 310.186 16.9233 310.878ZM59.8269 284.906C64.0331 284.737 69.0775 286.016 74.3434 288.101C79.5918 290.179 84.9741 293.022 89.8288 295.901C94.6805 298.778 98.9868 301.679 102.081 303.861C103.627 304.952 104.87 305.862 105.724 306.499C106.152 306.818 106.482 307.068 106.705 307.237C106.816 307.322 106.901 307.387 106.957 307.431C106.986 307.453 107.007 307.469 107.021 307.48C107.028 307.485 107.033 307.489 107.036 307.492C107.038 307.493 107.039 307.494 107.04 307.495C107.04 307.495 107.041 307.495 107.041 307.495C107.041 307.495 107.041 307.495 107.655 306.706C108.269 305.917 108.269 305.917 108.268 305.916C108.268 305.916 108.268 305.916 108.267 305.915C108.266 305.914 108.264 305.913 108.262 305.912C108.258 305.909 108.253 305.904 108.245 305.898C108.23 305.886 108.207 305.869 108.178 305.846C108.119 305.801 108.032 305.734 107.917 305.647C107.689 305.473 107.353 305.218 106.919 304.895C106.052 304.25 104.796 303.329 103.234 302.227C100.11 300.024 95.7582 297.092 90.849 294.181C85.9427 291.272 80.4611 288.372 75.0797 286.241C69.7158 284.117 64.3647 282.723 59.7468 282.908L59.8269 284.906ZM107.655 306.706C106.941 306.006 106.941 306.006 106.941 306.006C106.941 306.006 106.941 306.006 106.94 306.006C106.94 306.007 106.939 306.008 106.938 306.009C106.935 306.012 106.931 306.016 106.925 306.022C106.914 306.033 106.896 306.051 106.873 306.074C106.827 306.121 106.757 306.191 106.665 306.282C106.48 306.466 106.205 306.736 105.847 307.081C105.131 307.771 104.084 308.759 102.762 309.946C100.118 312.321 96.3817 315.49 92.0135 318.665C83.2227 325.054 72.0797 331.312 62.1809 331.44L62.2068 333.44C72.7804 333.304 84.3678 326.694 93.1894 320.283C97.6275 317.057 101.418 313.842 104.099 311.434C105.44 310.229 106.504 309.225 107.235 308.521C107.6 308.169 107.882 307.892 108.074 307.702C108.169 307.607 108.242 307.534 108.292 307.484C108.317 307.459 108.335 307.44 108.348 307.427C108.355 307.421 108.36 307.416 108.363 307.412C108.365 307.41 108.366 307.409 108.367 307.408C108.367 307.408 108.368 307.407 108.368 307.407C108.368 307.407 108.369 307.406 107.655 306.706ZM62.1809 331.44C52.8817 331.56 41.7773 326.312 32.8735 320.898C28.4487 318.207 24.6174 315.507 21.892 313.48C20.5299 312.466 19.4453 311.622 18.7026 311.032C18.3313 310.737 18.0454 310.505 17.8532 310.348C17.7571 310.27 17.6843 310.21 17.636 310.17C17.6118 310.15 17.5937 310.135 17.5819 310.125C17.576 310.12 17.5716 310.117 17.5688 310.114C17.5674 310.113 17.5664 310.112 17.5658 310.112C17.5655 310.112 17.5654 310.111 17.5652 310.111C17.5651 310.111 17.5652 310.111 16.9233 310.878C16.2815 311.645 16.2817 311.645 16.2821 311.645C16.2823 311.646 16.2828 311.646 16.2832 311.646C16.2842 311.647 16.2856 311.648 16.2874 311.65C16.2909 311.653 16.296 311.657 16.3027 311.663C16.3161 311.674 16.3357 311.69 16.3614 311.711C16.4128 311.754 16.4888 311.816 16.5882 311.898C16.787 312.06 17.0798 312.297 17.4585 312.598C18.2159 313.2 19.3172 314.057 20.6982 315.084C23.4591 317.139 27.3431 319.876 31.8344 322.607C40.7626 328.036 52.2935 333.568 62.2068 333.44L62.1809 331.44ZM107.507 307.06C107.338 306.075 107.338 306.075 107.337 306.075C107.337 306.075 107.336 306.075 107.336 306.075C107.334 306.075 107.332 306.076 107.329 306.076C107.322 306.077 107.313 306.079 107.3 306.081C107.274 306.086 107.235 306.092 107.184 306.101C107.081 306.118 106.928 306.144 106.726 306.177C106.322 306.243 105.723 306.34 104.948 306.461C103.399 306.704 101.143 307.045 98.3232 307.436C92.6835 308.22 84.7902 309.206 75.7781 310.017C57.7325 311.642 35.2824 312.559 17.4585 309.779L17.1503 311.755C35.2258 314.574 57.8768 313.638 75.9574 312.009C85.0084 311.194 92.9345 310.204 98.5984 309.417C101.431 309.024 103.698 308.682 105.258 308.437C106.038 308.315 106.641 308.218 107.05 308.15C107.254 308.117 107.41 308.091 107.515 308.073C107.568 308.064 107.608 308.058 107.634 308.053C107.648 308.051 107.658 308.049 107.665 308.048C107.668 308.047 107.671 308.047 107.673 308.047C107.673 308.046 107.674 308.046 107.675 308.046C107.675 308.046 107.675 308.046 107.507 307.06ZM52.6674 312.367C53.0042 311.426 53.0045 311.426 53.0047 311.426C53.0047 311.426 53.0048 311.426 53.0048 311.426C53.0048 311.426 53.0045 311.426 53.0041 311.426C53.0032 311.425 53.0015 311.425 52.9989 311.424C52.9938 311.422 52.9854 311.419 52.9739 311.415C52.9507 311.406 52.9147 311.393 52.8666 311.374C52.7704 311.338 52.6259 311.281 52.4387 311.205C52.0642 311.052 51.5195 310.819 50.8498 310.502C49.509 309.869 47.6739 308.904 45.7028 307.583C41.7441 304.929 37.3281 300.9 35.1813 295.315L33.3145 296.032C35.6702 302.161 40.4639 306.479 44.5893 309.244C46.6603 310.632 48.5858 311.644 49.9952 312.31C50.7005 312.644 51.2783 312.891 51.6825 313.056C51.8846 313.139 52.0435 313.201 52.1534 313.243C52.2083 313.264 52.251 313.28 52.2808 313.291C52.2957 313.296 52.3073 313.3 52.3156 313.303C52.3198 313.305 52.3231 313.306 52.3256 313.307C52.3269 313.307 52.3279 313.308 52.3287 313.308C52.3291 313.308 52.3296 313.308 52.3298 313.309C52.3302 313.309 52.3305 313.309 52.6674 312.367ZM65.4951 311.85C65.03 310.965 65.0296 310.965 65.0292 310.966C65.0289 310.966 65.0284 310.966 65.028 310.966C65.0272 310.967 65.0261 310.967 65.0249 310.968C65.0225 310.969 65.0194 310.971 65.0156 310.973C65.0079 310.977 64.9975 310.982 64.9843 310.99C64.958 311.004 64.9208 311.024 64.8734 311.051C64.7787 311.104 64.6433 311.182 64.4728 311.285C64.1319 311.49 63.6501 311.795 63.0726 312.202C61.9187 313.015 60.3757 314.238 58.8095 315.886C55.678 319.182 52.4198 324.216 52.0609 331.078L54.0581 331.183C54.3849 324.937 57.3445 320.331 60.2593 317.264C61.7163 315.731 63.1536 314.591 64.2243 313.837C64.759 313.461 65.2005 313.181 65.5049 312.998C65.657 312.906 65.7747 312.839 65.8525 312.795C65.8913 312.773 65.9202 312.757 65.9384 312.747C65.9475 312.742 65.9539 312.739 65.9575 312.737C65.9594 312.736 65.9605 312.736 65.9609 312.735C65.9611 312.735 65.9612 312.735 65.9611 312.735C65.961 312.735 65.9608 312.735 65.9607 312.735C65.9604 312.736 65.9601 312.736 65.4951 311.85ZM81.2661 310.176C81.5643 309.221 81.5647 309.221 81.565 309.221C81.5651 309.221 81.5653 309.221 81.5653 309.221C81.5654 309.221 81.5652 309.221 81.5648 309.221C81.5638 309.221 81.5618 309.22 81.5588 309.219C81.5528 309.217 81.5425 309.214 81.5283 309.209C81.4997 309.2 81.4549 309.185 81.3948 309.164C81.2746 309.122 81.0931 309.057 80.8576 308.966C80.3866 308.784 79.7001 308.499 78.8558 308.093C77.1663 307.28 74.8505 305.987 72.3664 304.068C67.4032 300.235 61.7713 293.913 59.0979 283.933L57.166 284.45C59.9755 294.939 65.9107 301.61 71.1439 305.651C73.7579 307.67 76.1977 309.034 77.9891 309.895C78.8853 310.326 79.6206 310.632 80.1363 310.831C80.3942 310.931 80.5973 311.004 80.7383 311.053C80.8088 311.078 80.8638 311.096 80.9024 311.109C80.9217 311.115 80.9369 311.12 80.9478 311.124C80.9533 311.125 80.9577 311.127 80.9611 311.128C80.9628 311.128 80.9642 311.129 80.9653 311.129C80.9659 311.129 80.9665 311.13 80.9668 311.13C80.9674 311.13 80.9679 311.13 81.2661 310.176ZM65.1639 311.945C65.4077 310.975 65.4081 310.975 65.4086 310.975C65.4087 310.975 65.4091 310.975 65.4092 310.975C65.4095 310.975 65.4096 310.976 65.4095 310.975C65.4093 310.975 65.4083 310.975 65.4064 310.975C65.4027 310.974 65.3958 310.972 65.3856 310.969C65.3653 310.964 65.3322 310.954 65.2869 310.941C65.1963 310.915 65.0572 310.872 64.8742 310.811C64.5082 310.688 63.9672 310.49 63.2899 310.193C61.935 309.599 60.036 308.611 57.8995 307.048C53.6332 303.926 48.3963 298.492 44.652 289.254L42.7984 290.005C46.6926 299.614 52.1751 305.338 56.7185 308.662C58.9868 310.322 61.0154 311.379 62.4867 312.024C63.2225 312.347 63.8194 312.567 64.2379 312.707C64.4472 312.777 64.6119 312.828 64.7273 312.861C64.7849 312.878 64.8303 312.891 64.8626 312.9C64.8788 312.904 64.8917 312.907 64.9014 312.91C64.9062 312.911 64.9102 312.912 64.9133 312.913C64.9149 312.913 64.9162 312.914 64.9174 312.914C64.918 312.914 64.9187 312.914 64.9189 312.914C64.9196 312.915 64.9202 312.915 65.1639 311.945ZM79.61 310.649C79.4418 309.663 79.4411 309.663 79.4403 309.663C79.4399 309.663 79.4391 309.663 79.4384 309.664C79.4371 309.664 79.4355 309.664 79.4338 309.664C79.4304 309.665 79.4263 309.666 79.4213 309.667C79.4115 309.668 79.3987 309.671 79.3831 309.674C79.3517 309.68 79.3088 309.689 79.255 309.701C79.1474 309.724 78.9959 309.761 78.8057 309.813C78.4252 309.919 77.8891 310.09 77.2376 310.357C75.9342 310.892 74.1685 311.814 72.2649 313.368C68.4439 316.488 64.1346 322.102 61.8456 332.082L63.795 332.529C65.9919 322.951 70.0774 317.736 73.5298 314.917C75.2628 313.502 76.8534 312.677 77.9972 312.207C78.5693 311.972 79.0294 311.827 79.3394 311.741C79.4943 311.698 79.6116 311.67 79.6864 311.654C79.7238 311.645 79.7505 311.64 79.766 311.637C79.7737 311.635 79.7787 311.634 79.7807 311.634C79.7817 311.634 79.782 311.634 79.7816 311.634C79.7814 311.634 79.781 311.634 79.7804 311.634C79.7801 311.634 79.7795 311.634 79.7794 311.634C79.7788 311.634 79.7781 311.635 79.61 310.649Z" fill="black"/>
<rect x="69.4189" y="129.453" width="341.668" height="206.983" rx="3" fill="white"/>
<g filter="url(#filter0_d)">
<rect x="74.7578" y="124.023" width="341.668" height="206.983" rx="3" fill="white"/>
<rect x="75.7578" y="125.023" width="339.668" height="204.983" rx="2" stroke="black" stroke-width="2"/>
</g>
<path d="M77.7578 125.024H413.426C414.531 125.024 415.426 125.919 415.426 127.024V136.597H75.7578V127.024C75.7578 125.919 76.6532 125.024 77.7578 125.024Z" fill="white" stroke="black" stroke-width="2"/>
<g filter="url(#filter1_d)">
<rect x="107" y="171" width="65" height="80" rx="3" fill="white"/>
<rect x="108" y="172" width="63" height="78" rx="2" stroke="black" stroke-width="2"/>
</g>
<g filter="url(#filter2_d)">
<rect x="180" y="171" width="158" height="128" rx="3" fill="white"/>
<rect x="181" y="172" width="156" height="126" rx="2" stroke="black" stroke-width="2"/>
</g>
<g filter="url(#filter3_d)">
<rect x="246" y="187" width="16" height="51" rx="3" transform="rotate(90 246 187)" fill="white"/>
<rect x="245" y="188" width="14" height="49" rx="2" transform="rotate(90 245 188)" stroke="black" stroke-width="2"/>
</g>
<path d="M499.405 252.93C514.022 232.741 511.867 186.722 510.949 173.943C510.82 172.143 509.166 170.956 507.435 171.413C495.704 174.508 455.301 186.446 438.976 207.82C421.553 230.631 422.647 275.85 423.355 288.768C423.457 290.626 425.179 291.852 426.95 291.329C439.658 287.575 484.8 273.1 499.405 252.93Z" fill="#16875B"/>
<path d="M505.405 167.527L506.4 167.429C506.372 167.143 506.222 166.883 505.989 166.715C505.755 166.547 505.461 166.488 505.181 166.552L505.405 167.527ZM418.319 289.218L417.323 289.306C417.349 289.6 417.504 289.868 417.746 290.038C417.988 290.207 418.293 290.261 418.579 290.184L418.319 289.218ZM433.705 204.75L434.499 205.357L434.499 205.357L433.705 204.75ZM417.17 288.19C416.903 288.673 417.078 289.282 417.561 289.549C418.045 289.816 418.653 289.641 418.92 289.157L417.17 288.19ZM505.838 168.856C506.239 168.475 506.255 167.842 505.875 167.442C505.494 167.041 504.862 167.025 504.461 167.405L505.838 168.856ZM466.807 211.517C466.345 211.819 466.214 212.438 466.516 212.901C466.817 213.364 467.437 213.494 467.9 213.193L466.807 211.517ZM505.692 206.035C506.219 206.2 506.78 205.906 506.944 205.379C507.109 204.852 506.816 204.291 506.289 204.126L505.692 206.035ZM453.977 229.279C453.862 229.819 454.206 230.35 454.747 230.465C455.287 230.58 455.818 230.236 455.933 229.695L453.977 229.279ZM445.22 193.485C444.815 193.109 444.182 193.132 443.806 193.537C443.43 193.941 443.453 194.574 443.858 194.95L445.22 193.485ZM440.372 250.767C439.922 251.087 439.816 251.711 440.136 252.161C440.455 252.612 441.079 252.718 441.53 252.398L440.372 250.767ZM495.068 248.347C495.573 248.57 496.163 248.341 496.386 247.835C496.609 247.33 496.38 246.74 495.875 246.517L495.068 248.347ZM454.555 228.181C454.123 228.524 454.051 229.153 454.395 229.586C454.739 230.018 455.368 230.09 455.8 229.746L454.555 228.181ZM503.314 224.324C503.845 224.479 504.4 224.174 504.555 223.644C504.709 223.114 504.405 222.559 503.875 222.404L503.314 224.324ZM441.192 248.483C440.924 248.966 441.099 249.574 441.582 249.842C442.065 250.109 442.674 249.934 442.942 249.451L441.192 248.483ZM434.031 205.097C433.701 204.655 433.075 204.563 432.632 204.893C432.189 205.223 432.098 205.85 432.428 206.293L434.031 205.097ZM505.405 167.527C504.41 167.625 504.41 167.625 504.41 167.625C504.41 167.626 504.41 167.626 504.41 167.627C504.41 167.629 504.41 167.631 504.411 167.634C504.411 167.641 504.412 167.651 504.414 167.665C504.416 167.693 504.42 167.734 504.425 167.789C504.436 167.899 504.451 168.064 504.47 168.28C504.508 168.712 504.561 169.351 504.623 170.173C504.748 171.818 504.907 174.196 505.044 177.124C505.32 182.982 505.51 191.034 505.169 199.817C504.828 208.603 503.956 218.098 502.115 226.847C500.27 235.611 497.47 243.546 493.323 249.273L494.943 250.446C499.328 244.39 502.203 236.141 504.072 227.259C505.944 218.361 506.823 208.746 507.167 199.895C507.511 191.04 507.32 182.928 507.042 177.03C506.904 174.081 506.743 171.684 506.618 170.023C506.555 169.192 506.501 168.545 506.462 168.105C506.443 167.885 506.427 167.717 506.417 167.603C506.411 167.546 506.407 167.503 506.404 167.474C506.403 167.459 506.402 167.448 506.401 167.441C506.401 167.437 506.401 167.434 506.4 167.432C506.4 167.431 506.4 167.43 506.4 167.43C506.4 167.429 506.4 167.429 505.405 167.527ZM493.323 249.273C489.172 255.006 482.432 260.329 474.57 265.096C466.723 269.854 457.83 274.015 449.448 277.451C441.069 280.885 433.218 283.587 427.46 285.43C424.583 286.351 422.229 287.058 420.597 287.534C419.781 287.771 419.145 287.952 418.714 288.072C418.498 288.132 418.334 288.178 418.224 288.208C418.169 288.223 418.127 288.234 418.1 288.242C418.086 288.245 418.076 288.248 418.069 288.25C418.066 288.251 418.063 288.251 418.061 288.252C418.061 288.252 418.06 288.252 418.06 288.252C418.059 288.252 418.059 288.252 418.319 289.218C418.579 290.184 418.579 290.184 418.58 290.184C418.58 290.184 418.581 290.183 418.582 290.183C418.584 290.183 418.587 290.182 418.59 290.181C418.598 290.179 418.609 290.176 418.624 290.172C418.653 290.164 418.696 290.152 418.752 290.137C418.866 290.106 419.033 290.059 419.252 289.998C419.69 289.876 420.333 289.694 421.157 289.454C422.804 288.974 425.174 288.262 428.07 287.335C433.862 285.48 441.765 282.761 450.206 279.302C458.645 275.843 467.639 271.637 475.607 266.806C483.56 261.984 490.563 256.496 494.943 250.446L493.323 249.273ZM418.319 289.218C419.315 289.131 419.315 289.131 419.315 289.13C419.315 289.13 419.315 289.129 419.315 289.129C419.315 289.127 419.315 289.125 419.314 289.122C419.314 289.115 419.313 289.105 419.312 289.092C419.31 289.065 419.306 289.024 419.302 288.971C419.293 288.863 419.28 288.701 419.264 288.489C419.232 288.065 419.188 287.437 419.139 286.627C419.041 285.007 418.923 282.661 418.846 279.76C418.69 273.957 418.696 265.944 419.337 257.101C420.625 239.353 424.462 218.498 434.499 205.357L432.91 204.143C422.489 217.787 418.633 239.167 417.343 256.956C416.695 265.882 416.69 273.964 416.846 279.813C416.925 282.739 417.043 285.108 417.143 286.748C417.192 287.568 417.237 288.205 417.27 288.639C417.286 288.855 417.299 289.021 417.308 289.133C417.313 289.189 417.316 289.232 417.319 289.261C417.32 289.275 417.321 289.286 417.322 289.294C417.322 289.298 417.322 289.3 417.323 289.302C417.323 289.303 417.323 289.304 417.323 289.305C417.323 289.305 417.323 289.306 418.319 289.218ZM434.499 205.357C443.921 193.021 461.618 183.797 477.124 177.641C484.85 174.574 491.982 172.287 497.182 170.768C499.782 170.008 501.897 169.441 503.361 169.064C504.093 168.875 504.662 168.734 505.047 168.64C505.239 168.594 505.386 168.559 505.484 168.535C505.533 168.524 505.57 168.515 505.594 168.51C505.606 168.507 505.615 168.505 505.621 168.503C505.624 168.503 505.626 168.502 505.628 168.502C505.628 168.502 505.629 168.502 505.629 168.501C505.629 168.501 505.629 168.501 505.405 167.527C505.181 166.552 505.18 166.552 505.18 166.553C505.179 166.553 505.178 166.553 505.177 166.553C505.176 166.553 505.173 166.554 505.17 166.555C505.163 166.556 505.153 166.559 505.14 166.562C505.113 166.568 505.075 166.577 505.024 166.589C504.922 166.613 504.771 166.649 504.574 166.697C504.181 166.793 503.603 166.936 502.862 167.127C501.38 167.509 499.244 168.082 496.621 168.848C491.378 170.38 484.184 172.686 476.386 175.783C460.841 181.954 442.688 191.341 432.91 204.143L434.499 205.357ZM418.045 288.674C418.92 289.157 418.92 289.157 418.921 289.157C418.921 289.156 418.921 289.155 418.922 289.154C418.923 289.152 418.925 289.148 418.928 289.143C418.933 289.134 418.941 289.12 418.952 289.101C418.973 289.063 419.004 289.006 419.046 288.93C419.13 288.78 419.256 288.555 419.422 288.259C419.753 287.668 420.246 286.795 420.888 285.669C422.172 283.417 424.056 280.152 426.452 276.106C431.244 268.014 438.081 256.798 446.264 244.304C462.642 219.3 484.367 189.245 505.838 168.856L504.461 167.405C482.814 187.961 460.986 218.177 444.591 243.209C436.388 255.733 429.534 266.975 424.731 275.087C422.329 279.143 420.44 282.417 419.151 284.678C418.506 285.808 418.011 286.685 417.677 287.28C417.511 287.578 417.384 287.805 417.299 287.958C417.256 288.034 417.224 288.092 417.203 288.131C417.192 288.15 417.184 288.165 417.178 288.175C417.175 288.18 417.173 288.183 417.172 288.186C417.171 288.187 417.171 288.188 417.17 288.189C417.17 288.19 417.17 288.19 418.045 288.674ZM467.353 212.355C467.9 213.193 467.899 213.193 467.899 213.193C467.899 213.193 467.899 213.193 467.899 213.193C467.9 213.193 467.9 213.192 467.901 213.192C467.903 213.191 467.906 213.189 467.91 213.186C467.918 213.181 467.931 213.172 467.949 213.161C467.985 213.138 468.039 213.104 468.112 213.058C468.258 212.968 468.476 212.834 468.762 212.665C469.333 212.326 470.174 211.847 471.243 211.288C473.382 210.169 476.425 208.737 480.037 207.485C487.285 204.971 496.703 203.223 505.692 206.035L506.289 204.126C496.712 201.13 486.811 203.019 479.382 205.595C475.656 206.887 472.521 208.363 470.316 209.515C469.213 210.092 468.341 210.589 467.743 210.944C467.443 211.121 467.212 211.263 467.055 211.361C466.976 211.41 466.915 211.448 466.874 211.474C466.853 211.488 466.837 211.498 466.826 211.505C466.821 211.509 466.816 211.511 466.813 211.514C466.812 211.515 466.81 211.515 466.809 211.516C466.809 211.516 466.808 211.517 466.808 211.517C466.808 211.517 466.807 211.517 467.353 212.355ZM454.955 229.487C455.933 229.695 455.933 229.695 455.933 229.694C455.933 229.694 455.933 229.693 455.933 229.693C455.934 229.692 455.934 229.69 455.934 229.688C455.935 229.685 455.936 229.68 455.937 229.674C455.94 229.661 455.944 229.644 455.948 229.621C455.957 229.576 455.97 229.511 455.986 229.426C456.017 229.257 456.06 229.012 456.109 228.696C456.207 228.065 456.33 227.154 456.428 226.019C456.625 223.752 456.728 220.582 456.353 216.967C455.605 209.742 452.938 200.662 445.22 193.485L443.858 194.95C451.104 201.687 453.646 210.241 454.364 217.173C454.723 220.636 454.624 223.675 454.436 225.846C454.341 226.931 454.225 227.797 454.133 228.388C454.087 228.684 454.047 228.911 454.019 229.061C454.005 229.137 453.994 229.193 453.987 229.23C453.983 229.248 453.98 229.261 453.979 229.269C453.978 229.273 453.977 229.276 453.977 229.278C453.977 229.279 453.977 229.279 453.977 229.279C453.977 229.279 453.977 229.279 453.977 229.279C453.977 229.279 453.977 229.279 454.955 229.487ZM440.951 251.583C441.53 252.398 441.53 252.398 441.529 252.398C441.529 252.398 441.529 252.398 441.53 252.398C441.53 252.398 441.53 252.398 441.531 252.397C441.533 252.396 441.537 252.393 441.542 252.39C441.552 252.383 441.567 252.372 441.589 252.357C441.632 252.328 441.698 252.283 441.787 252.223C441.965 252.105 442.233 251.931 442.588 251.712C443.296 251.275 444.348 250.66 445.706 249.962C448.423 248.564 452.358 246.832 457.217 245.508C466.929 242.861 480.316 241.842 495.068 248.347L495.875 246.517C480.607 239.785 466.733 240.841 456.691 243.578C451.672 244.946 447.606 246.735 444.791 248.183C443.383 248.908 442.286 249.548 441.537 250.01C441.163 250.241 440.876 250.428 440.68 250.558C440.582 250.623 440.507 250.674 440.456 250.709C440.43 250.727 440.41 250.741 440.396 250.75C440.389 250.755 440.384 250.759 440.38 250.762C440.378 250.763 440.376 250.764 440.375 250.765C440.374 250.766 440.374 250.766 440.373 250.766C440.373 250.767 440.372 250.767 440.951 251.583ZM455.177 228.963C455.8 229.746 455.8 229.746 455.799 229.746C455.799 229.746 455.799 229.747 455.799 229.747C455.799 229.747 455.799 229.746 455.8 229.746C455.801 229.745 455.803 229.743 455.806 229.741C455.813 229.736 455.824 229.727 455.839 229.716C455.869 229.692 455.917 229.656 455.982 229.608C456.113 229.512 456.312 229.369 456.578 229.187C457.112 228.825 457.914 228.311 458.974 227.719C461.094 226.534 464.241 225.037 468.323 223.809C476.478 221.355 488.384 219.967 503.314 224.324L503.875 222.404C488.535 217.928 476.233 219.34 467.747 221.894C463.508 223.169 460.227 224.728 457.998 225.973C456.884 226.596 456.032 227.141 455.454 227.533C455.165 227.73 454.945 227.888 454.795 227.999C454.72 228.054 454.662 228.098 454.622 228.129C454.602 228.144 454.586 228.156 454.575 228.165C454.57 228.169 454.565 228.173 454.562 228.175C454.56 228.177 454.559 228.178 454.558 228.179C454.557 228.179 454.556 228.18 454.556 228.18C454.556 228.18 454.555 228.181 455.177 228.963ZM442.067 248.967C442.942 249.451 442.942 249.451 442.942 249.45C442.942 249.449 442.943 249.449 442.943 249.448C442.944 249.447 442.945 249.445 442.946 249.443C442.948 249.439 442.951 249.434 442.954 249.428C442.96 249.416 442.969 249.4 442.98 249.379C443.002 249.338 443.032 249.279 443.07 249.202C443.146 249.05 443.251 248.829 443.375 248.542C443.625 247.969 443.955 247.131 444.287 246.05C444.953 243.888 445.63 240.753 445.704 236.817C445.85 228.927 443.567 217.893 434.031 205.097L432.428 206.293C441.707 218.743 443.842 229.346 443.704 236.78C443.635 240.506 442.994 243.455 442.376 245.462C442.067 246.465 441.764 247.233 441.542 247.744C441.431 247.999 441.34 248.19 441.278 248.314C441.247 248.376 441.224 248.421 441.209 248.45C441.202 248.464 441.197 248.474 441.194 248.479C441.192 248.482 441.191 248.483 441.191 248.484C441.191 248.484 441.191 248.484 441.191 248.484C441.191 248.484 441.191 248.484 441.191 248.484C441.191 248.483 441.192 248.483 442.067 248.967Z" fill="black"/>
<path d="M462.169 374.188C481.451 389.74 526.627 389.227 539.31 388.752C541.11 388.684 542.373 387.032 541.986 385.259C539.361 373.213 529.077 331.742 508.662 314.39C486.91 295.9 442.555 295.361 429.744 295.615C427.887 295.652 426.581 297.37 427.031 299.186C430.267 312.245 442.875 358.626 462.169 374.188Z" fill="#40C075"/>
<path d="M545.88 383.345L545.945 384.343C546.231 384.324 546.494 384.184 546.67 383.959C546.845 383.733 546.916 383.443 546.863 383.162L545.88 383.345ZM465.376 368.941L466.003 368.163L465.376 368.941ZM429.412 290.482L429.358 289.483C429.065 289.499 428.793 289.644 428.616 289.878C428.438 290.112 428.372 290.412 428.436 290.699L429.412 290.482ZM511.869 309.143L511.221 309.905L511.221 309.905L511.869 309.143ZM430.484 289.374C430.015 289.082 429.398 289.227 429.107 289.696C428.816 290.165 428.96 290.782 429.429 291.073L430.484 289.374ZM544.535 383.714C544.894 384.134 545.525 384.183 545.945 383.824C546.365 383.466 546.415 382.834 546.056 382.414L544.535 383.714ZM504.055 342.566C503.777 342.088 503.165 341.927 502.688 342.204C502.21 342.482 502.048 343.094 502.326 343.571L504.055 342.566ZM508.009 382.272C507.831 382.795 508.11 383.363 508.632 383.542C509.155 383.72 509.723 383.441 509.902 382.919L508.009 382.272ZM487.049 328.886C486.515 328.748 485.969 329.069 485.831 329.604C485.692 330.138 486.014 330.684 486.548 330.822L487.049 328.886ZM522.55 321.226C522.934 320.829 522.923 320.195 522.526 319.812C522.129 319.428 521.496 319.439 521.112 319.836L522.55 321.226ZM466.431 314.295C466.134 313.829 465.516 313.691 465.05 313.987C464.584 314.283 464.446 314.901 464.742 315.367L466.431 314.295ZM466.808 369.964C466.573 370.464 466.789 371.06 467.289 371.294C467.789 371.528 468.384 371.313 468.619 370.813L466.808 369.964ZM488.118 329.518C487.798 329.069 487.173 328.964 486.724 329.285C486.274 329.606 486.17 330.231 486.491 330.68L488.118 329.518ZM490.121 379.201C489.952 379.726 490.242 380.289 490.768 380.458C491.294 380.627 491.857 380.337 492.026 379.811L490.121 379.201ZM468.644 315.209C468.175 314.917 467.559 315.061 467.267 315.531C466.976 316 467.12 316.616 467.589 316.908L468.644 315.209ZM511.538 309.44C511.987 309.119 512.091 308.494 511.77 308.045C511.449 307.596 510.824 307.492 510.375 307.813L511.538 309.44ZM545.88 383.345C545.815 382.347 545.815 382.347 545.815 382.347C545.814 382.347 545.814 382.347 545.813 382.347C545.812 382.347 545.809 382.347 545.806 382.347C545.799 382.348 545.789 382.348 545.776 382.349C545.749 382.351 545.708 382.354 545.654 382.357C545.545 382.363 545.383 382.373 545.17 382.384C544.744 382.407 544.114 382.439 543.304 382.473C541.684 382.54 539.342 382.617 536.46 382.652C530.695 382.722 522.776 382.626 514.16 381.966C505.54 381.304 496.243 380.078 487.715 377.895C479.172 375.708 471.48 372.58 466.003 368.163L464.748 369.72C470.545 374.395 478.553 377.614 487.219 379.833C495.899 382.055 505.319 383.293 514.007 383.96C522.698 384.626 530.678 384.722 536.484 384.651C539.388 384.616 541.75 384.539 543.388 384.471C544.206 384.437 544.844 384.405 545.278 384.381C545.495 384.37 545.661 384.36 545.773 384.353C545.829 384.35 545.872 384.347 545.901 384.345C545.915 384.345 545.926 384.344 545.934 384.343C545.937 384.343 545.94 384.343 545.942 384.343C545.943 384.343 545.944 384.343 545.944 384.343C545.945 384.343 545.945 384.343 545.88 383.345ZM466.003 368.163C460.519 363.739 455.528 356.698 451.124 348.535C446.728 340.388 442.957 331.2 439.881 322.557C436.805 313.916 434.431 305.84 432.826 299.922C432.023 296.964 431.413 294.547 431.004 292.87C430.8 292.032 430.645 291.379 430.542 290.937C430.491 290.715 430.452 290.547 430.427 290.434C430.414 290.377 430.404 290.334 430.398 290.306C430.395 290.292 430.392 290.282 430.391 290.275C430.39 290.271 430.389 290.269 430.389 290.267C430.389 290.266 430.389 290.266 430.389 290.265C430.388 290.265 430.388 290.265 429.412 290.482C428.436 290.699 428.436 290.7 428.436 290.7C428.437 290.701 428.437 290.702 428.437 290.703C428.437 290.705 428.438 290.707 428.439 290.711C428.441 290.719 428.443 290.73 428.447 290.745C428.453 290.775 428.463 290.819 428.476 290.877C428.503 290.993 428.542 291.165 428.595 291.39C428.699 291.839 428.855 292.499 429.061 293.344C429.474 295.035 430.088 297.469 430.896 300.446C432.51 306.398 434.899 314.526 437.996 323.227C441.092 331.926 444.903 341.216 449.364 349.485C453.817 357.738 458.959 365.05 464.748 369.72L466.003 368.163ZM429.412 290.482C429.467 291.48 429.467 291.48 429.467 291.48C429.467 291.48 429.468 291.48 429.468 291.48C429.47 291.48 429.472 291.48 429.475 291.48C429.482 291.48 429.492 291.479 429.505 291.479C429.531 291.477 429.571 291.475 429.624 291.473C429.73 291.468 429.889 291.46 430.098 291.452C430.516 291.435 431.135 291.412 431.932 291.391C433.527 291.35 435.836 291.314 438.689 291.339C444.396 291.389 452.268 291.681 460.933 292.65C478.325 294.593 498.672 299.238 511.221 309.905L512.516 308.381C499.476 297.297 478.595 292.611 461.156 290.662C452.405 289.684 444.462 289.389 438.706 289.339C435.828 289.314 433.495 289.35 431.88 289.392C431.072 289.413 430.444 289.436 430.016 289.453C429.803 289.462 429.639 289.47 429.528 289.475C429.473 289.478 429.431 289.48 429.403 289.481C429.388 289.482 429.377 289.482 429.37 289.483C429.366 289.483 429.363 289.483 429.361 289.483C429.36 289.483 429.36 289.483 429.359 289.483C429.359 289.483 429.358 289.483 429.412 290.482ZM511.221 309.905C523.006 319.922 531.439 338.241 536.934 354.224C539.673 362.187 541.664 369.518 542.972 374.859C543.625 377.529 544.107 379.699 544.426 381.201C544.585 381.952 544.703 382.535 544.781 382.93C544.82 383.128 544.85 383.278 544.869 383.378C544.878 383.428 544.886 383.466 544.89 383.491C544.893 383.504 544.894 383.513 544.896 383.519C544.896 383.522 544.897 383.524 544.897 383.526C544.897 383.526 544.897 383.527 544.897 383.527C544.897 383.527 544.897 383.527 545.88 383.345C546.863 383.162 546.863 383.162 546.863 383.161C546.863 383.161 546.863 383.16 546.863 383.159C546.863 383.157 546.862 383.154 546.861 383.151C546.86 383.144 546.858 383.134 546.856 383.12C546.851 383.093 546.843 383.054 546.833 383.001C546.813 382.897 546.783 382.743 546.743 382.541C546.663 382.138 546.543 381.546 546.382 380.786C546.06 379.267 545.573 377.075 544.914 374.383C543.597 369.001 541.589 361.609 538.826 353.573C533.319 337.558 524.746 318.776 512.516 308.381L511.221 309.905ZM429.957 290.223C429.429 291.073 429.43 291.073 429.43 291.074C429.431 291.074 429.432 291.074 429.433 291.075C429.435 291.076 429.438 291.079 429.443 291.081C429.452 291.087 429.466 291.096 429.484 291.107C429.52 291.13 429.575 291.164 429.648 291.209C429.793 291.3 430.01 291.436 430.294 291.615C430.863 291.973 431.703 292.505 432.787 293.198C434.954 294.584 438.094 296.615 441.985 299.195C449.765 304.354 460.542 311.704 472.526 320.468C496.511 338.007 525.267 361.162 544.535 383.714L546.056 382.414C526.631 359.679 497.718 336.413 473.707 318.854C461.693 310.068 450.89 302.7 443.09 297.528C439.19 294.942 436.04 292.904 433.864 291.513C432.777 290.817 431.932 290.283 431.36 289.922C431.073 289.742 430.855 289.605 430.708 289.513C430.634 289.467 430.578 289.432 430.541 289.409C430.522 289.397 430.508 289.389 430.499 289.383C430.494 289.38 430.49 289.378 430.488 289.376C430.486 289.375 430.486 289.375 430.485 289.374C430.484 289.374 430.484 289.374 429.957 290.223ZM503.19 343.069C502.326 343.571 502.326 343.571 502.326 343.571C502.326 343.571 502.326 343.571 502.326 343.571C502.326 343.572 502.326 343.572 502.327 343.573C502.328 343.575 502.33 343.578 502.332 343.582C502.337 343.591 502.345 343.605 502.356 343.623C502.377 343.66 502.409 343.717 502.451 343.793C502.535 343.944 502.658 344.171 502.815 344.467C503.127 345.061 503.568 345.933 504.079 347.04C505.102 349.255 506.402 352.4 507.504 356.119C509.715 363.578 511.099 373.224 508.009 382.272L509.902 382.919C513.184 373.307 511.686 363.189 509.421 355.55C508.286 351.719 506.949 348.482 505.895 346.201C505.368 345.06 504.911 344.157 504.584 343.536C504.421 343.226 504.29 342.986 504.2 342.822C504.154 342.741 504.119 342.678 504.094 342.635C504.082 342.613 504.073 342.597 504.066 342.585C504.063 342.579 504.06 342.575 504.058 342.572C504.057 342.57 504.057 342.569 504.056 342.568C504.056 342.567 504.055 342.567 504.055 342.567C504.055 342.566 504.055 342.566 503.19 343.069ZM486.799 329.854C486.548 330.822 486.549 330.822 486.549 330.822C486.55 330.822 486.55 330.823 486.551 330.823C486.552 330.823 486.553 330.823 486.555 330.824C486.559 330.825 486.564 330.826 486.57 330.828C486.582 330.831 486.599 330.835 486.621 330.84C486.665 330.851 486.729 330.867 486.812 330.886C486.977 330.924 487.218 330.976 487.526 331.038C488.144 331.16 489.036 331.317 490.149 331.458C492.373 331.74 495.487 331.958 499.057 331.707C506.194 331.204 515.22 328.815 522.55 321.226L521.112 319.836C514.233 326.958 505.744 329.231 498.916 329.712C495.505 329.952 492.525 329.743 490.4 329.474C489.338 329.34 488.493 329.19 487.916 329.076C487.628 329.019 487.407 328.97 487.26 328.936C487.187 328.92 487.132 328.906 487.097 328.898C487.079 328.893 487.066 328.89 487.058 328.888C487.054 328.887 487.051 328.886 487.05 328.886C487.049 328.886 487.049 328.886 487.049 328.886C487.049 328.886 487.049 328.886 487.049 328.886C487.049 328.886 487.049 328.886 486.799 329.854ZM465.586 314.831C464.742 315.367 464.742 315.367 464.742 315.367C464.742 315.367 464.742 315.367 464.742 315.367C464.742 315.367 464.743 315.368 464.743 315.369C464.745 315.371 464.747 315.375 464.75 315.38C464.757 315.39 464.767 315.406 464.781 315.429C464.808 315.474 464.85 315.543 464.905 315.636C465.015 315.821 465.177 316.1 465.379 316.468C465.784 317.205 466.35 318.296 466.989 319.702C468.266 322.514 469.827 326.578 470.956 331.567C473.211 341.541 473.733 355.194 466.808 369.964L468.619 370.813C475.776 355.548 475.235 341.422 472.906 331.126C471.743 325.98 470.132 321.786 468.81 318.875C468.148 317.419 467.559 316.282 467.132 315.505C466.918 315.117 466.746 314.818 466.625 314.615C466.565 314.513 466.517 314.435 466.484 314.382C466.468 314.355 466.455 314.334 466.446 314.32C466.442 314.313 466.438 314.307 466.435 314.303C466.434 314.301 466.433 314.299 466.432 314.298C466.432 314.297 466.431 314.296 466.431 314.296C466.431 314.296 466.431 314.295 465.586 314.831ZM487.304 330.099C486.491 330.68 486.49 330.68 486.49 330.68C486.49 330.68 486.49 330.679 486.49 330.679C486.49 330.679 486.49 330.68 486.491 330.68C486.491 330.681 486.493 330.684 486.495 330.687C486.5 330.694 486.508 330.705 486.519 330.721C486.541 330.753 486.575 330.803 486.62 330.871C486.71 331.007 486.844 331.215 487.012 331.492C487.349 332.048 487.826 332.882 488.37 333.981C489.459 336.18 490.819 339.435 491.881 343.63C494.003 352.014 494.94 364.174 490.121 379.201L492.026 379.811C496.971 364.392 496.024 351.848 493.82 343.14C492.719 338.789 491.306 335.401 490.163 333.094C489.591 331.939 489.086 331.055 488.722 330.454C488.539 330.154 488.392 329.925 488.288 329.768C488.236 329.69 488.196 329.63 488.167 329.588C488.153 329.567 488.141 329.551 488.133 329.539C488.129 329.533 488.126 329.529 488.123 329.525C488.122 329.523 488.121 329.522 488.12 329.521C488.12 329.52 488.119 329.52 488.119 329.519C488.119 329.519 488.118 329.518 487.304 330.099ZM468.116 316.058C467.589 316.908 467.589 316.908 467.59 316.909C467.59 316.909 467.591 316.909 467.592 316.91C467.593 316.91 467.595 316.911 467.597 316.913C467.6 316.915 467.605 316.918 467.611 316.921C467.623 316.928 467.638 316.938 467.659 316.95C467.699 316.974 467.756 317.007 467.83 317.048C467.977 317.13 468.191 317.245 468.469 317.383C469.024 317.657 469.837 318.023 470.889 318.4C472.992 319.155 476.053 319.957 479.924 320.173C487.686 320.605 498.619 318.676 511.538 309.44L510.375 307.813C497.81 316.795 487.324 318.582 480.036 318.176C476.382 317.972 473.511 317.216 471.564 316.518C470.591 316.168 469.848 315.834 469.355 315.59C469.109 315.468 468.925 315.369 468.806 315.302C468.746 315.269 468.703 315.244 468.676 315.228C468.662 315.22 468.653 315.214 468.647 315.211C468.645 315.209 468.643 315.208 468.643 315.208C468.642 315.208 468.642 315.208 468.643 315.208C468.643 315.208 468.643 315.208 468.643 315.208C468.644 315.209 468.644 315.209 468.116 316.058Z" fill="black"/>
<path d="M353.874 45.3263C348.635 29.2174 323.305 12.5177 314.656 7.19809C313.119 6.25274 311.156 6.93403 310.525 8.63055C307.107 17.8095 298.083 44.8851 303.292 62.4183C308.843 81.1051 333.295 98.1527 341.909 103.68C343.475 104.684 345.508 103.966 346.112 102.2C349.577 92.0664 359.116 61.4445 353.874 45.3263Z" fill="#F8D14B"/>
<path d="M317.214 2.11891L317.709 1.24983C317.46 1.10807 317.162 1.07997 316.891 1.17266C316.619 1.26535 316.401 1.46991 316.291 1.73446L317.214 2.11891ZM359.333 41.9821L360.284 41.6728L359.333 41.9821ZM350.385 102.205L349.881 103.069C350.135 103.217 350.442 103.246 350.72 103.147C350.998 103.049 351.218 102.832 351.321 102.557L350.385 102.205ZM308.751 59.074L307.793 59.3588L307.793 59.3588L308.751 59.074ZM349.057 102.568C349.29 103.069 349.886 103.285 350.386 103.051C350.886 102.817 351.102 102.222 350.868 101.721L349.057 102.568ZM318.443 2.3822C318.372 1.83457 317.87 1.44863 317.322 1.52018C316.774 1.59173 316.388 2.09367 316.46 2.6413L318.443 2.3822ZM325.968 42.4276C325.941 42.9792 326.365 43.4488 326.917 43.4766C327.468 43.5043 327.938 43.0797 327.966 42.5281L325.968 42.4276ZM339.403 17.7434C339.839 17.4049 339.919 16.7767 339.58 16.3403C339.242 15.9039 338.614 15.8245 338.177 16.163L339.403 17.7434ZM330.84 57.3217C331.211 57.7306 331.844 57.761 332.252 57.3897C332.661 57.0184 332.692 56.3859 332.32 55.9771L330.84 57.3217ZM307.025 47.5077C306.486 47.6273 306.145 48.1614 306.265 48.7005C306.385 49.2397 306.919 49.5798 307.458 49.4602L307.025 47.5077ZM337.35 73.7538C337.344 74.306 337.786 74.7587 338.338 74.7649C338.891 74.7711 339.343 74.3285 339.35 73.7762L337.35 73.7538ZM359.029 41.0708C359.5 40.7823 359.648 40.1667 359.359 39.6957C359.071 39.2247 358.455 39.0768 357.984 39.3652L359.029 41.0708ZM330.375 56.3508C330.399 56.9025 330.865 57.3307 331.417 57.307C331.969 57.2833 332.397 56.8169 332.373 56.2651L330.375 56.3508ZM348.815 26.5215C349.245 26.1748 349.313 25.5453 348.966 25.1153C348.62 24.6854 347.99 24.6178 347.56 24.9645L348.815 26.5215ZM336.418 72.4789C336.652 72.9794 337.247 73.1959 337.747 72.9624C338.248 72.7289 338.464 72.1338 338.231 71.6334L336.418 72.4789ZM309.056 58.7342C308.504 58.754 308.072 59.2175 308.092 59.7695C308.112 60.3214 308.576 60.7527 309.127 60.7329L309.056 58.7342ZM317.214 2.11891C316.719 2.98799 316.719 2.98798 316.719 2.98806C316.72 2.98819 316.72 2.98834 316.72 2.98859C316.721 2.9891 316.723 2.98992 316.725 2.99105C316.729 2.99331 316.735 2.9968 316.743 3.00151C316.759 3.01092 316.784 3.02522 316.817 3.04433C316.884 3.08254 316.983 3.13995 317.113 3.21593C317.373 3.3679 317.757 3.59409 318.249 3.88932C319.232 4.47984 320.646 5.34633 322.364 6.44737C325.8 8.65021 330.445 11.7881 335.284 15.5296C340.126 19.2732 345.144 23.6076 349.338 28.2016C353.542 32.8066 356.86 37.6115 358.382 42.2913L360.284 41.6728C358.635 36.6032 355.103 31.5506 350.815 26.8532C346.517 22.1448 341.402 17.7322 336.507 13.9473C331.609 10.1604 326.913 6.98849 323.443 4.76366C321.707 3.65087 320.277 2.77406 319.278 2.17473C318.779 1.87504 318.388 1.64468 318.122 1.48881C317.988 1.41088 317.886 1.35156 317.816 1.31152C317.781 1.2915 317.755 1.27629 317.737 1.26598C317.728 1.26083 317.721 1.2569 317.716 1.2542C317.714 1.25286 317.712 1.25182 317.711 1.25109C317.71 1.25072 317.71 1.25041 317.709 1.25023C317.709 1.24999 317.709 1.24983 317.214 2.11891ZM358.382 42.2913C359.907 46.9806 360.151 53.0272 359.614 59.5356C359.078 66.0268 357.773 72.8915 356.265 79.1721C354.758 85.4496 353.052 91.1237 351.723 95.2293C351.059 97.2815 350.49 98.9403 350.086 100.085C349.885 100.657 349.725 101.101 349.615 101.401C349.561 101.551 349.519 101.664 349.491 101.741C349.477 101.779 349.466 101.807 349.459 101.826C349.455 101.836 349.453 101.843 349.451 101.847C349.45 101.85 349.45 101.851 349.449 101.852C349.449 101.853 349.449 101.853 349.449 101.853C349.449 101.854 349.449 101.854 350.385 102.205C351.321 102.557 351.321 102.556 351.321 102.556C351.321 102.556 351.322 102.555 351.322 102.554C351.322 102.553 351.323 102.551 351.324 102.548C351.326 102.543 351.329 102.535 351.333 102.525C351.341 102.504 351.352 102.474 351.366 102.435C351.396 102.356 351.439 102.239 351.495 102.085C351.606 101.779 351.769 101.329 351.973 100.749C352.381 99.5907 352.956 97.9156 353.626 95.8452C354.966 91.7057 356.687 85.9801 358.21 79.6391C359.731 73.3013 361.06 66.3289 361.607 59.7002C362.153 53.0889 361.93 46.7329 360.284 41.6728L358.382 42.2913ZM350.385 102.205C350.889 101.341 350.889 101.341 350.889 101.341C350.889 101.341 350.888 101.341 350.888 101.341C350.887 101.34 350.886 101.34 350.884 101.339C350.88 101.336 350.874 101.333 350.866 101.328C350.851 101.319 350.826 101.305 350.794 101.286C350.73 101.248 350.634 101.19 350.507 101.114C350.254 100.962 349.88 100.735 349.401 100.437C348.444 99.8416 347.065 98.964 345.389 97.8394C342.034 95.5894 337.493 92.3543 332.745 88.414C323.2 80.4941 313.003 69.8743 309.71 58.7893L307.793 59.3588C311.268 71.0578 321.887 82.0035 331.468 89.9531C336.281 93.9476 340.88 97.2233 344.274 99.5003C345.972 100.639 347.37 101.529 348.346 102.136C348.833 102.439 349.215 102.671 349.476 102.828C349.607 102.906 349.707 102.966 349.775 103.006C349.809 103.027 349.835 103.042 349.853 103.052C349.862 103.058 349.868 103.062 349.873 103.064C349.875 103.066 349.877 103.067 349.879 103.067C349.879 103.068 349.88 103.068 349.88 103.068C349.881 103.069 349.881 103.069 350.385 102.205ZM309.71 58.7893C306.617 48.3778 308.665 34.371 311.57 22.8223C313.016 17.0761 314.659 11.9913 315.942 8.34292C316.583 6.51931 317.133 5.05605 317.522 4.05019C317.717 3.5473 317.871 3.15885 317.977 2.89698C318.03 2.76604 318.07 2.66676 318.097 2.60065C318.111 2.56759 318.121 2.54283 318.128 2.52655C318.131 2.51841 318.133 2.5124 318.135 2.50852C318.136 2.50659 318.136 2.50519 318.137 2.50432C318.137 2.50389 318.137 2.50365 318.137 2.50344C318.137 2.50333 318.137 2.50336 317.214 2.11891C316.291 1.73446 316.291 1.73476 316.291 1.7352C316.29 1.73552 316.29 1.73609 316.29 1.73675C316.289 1.73805 316.289 1.73989 316.288 1.74228C316.286 1.74704 316.283 1.75395 316.279 1.76299C316.272 1.78108 316.261 1.80766 316.246 1.84257C316.218 1.91238 316.176 2.01546 316.121 2.15029C316.013 2.41995 315.855 2.81665 315.657 3.32823C315.261 4.35131 314.704 5.83426 314.055 7.67973C312.758 11.3695 311.095 16.5144 309.631 22.3343C306.717 33.9177 304.534 48.3884 307.793 59.3588L309.71 58.7893ZM349.963 102.145C350.868 101.721 350.868 101.721 350.868 101.721C350.868 101.72 350.868 101.72 350.867 101.719C350.867 101.717 350.865 101.715 350.864 101.712C350.861 101.705 350.856 101.694 350.849 101.681C350.837 101.653 350.817 101.612 350.792 101.557C350.741 101.447 350.665 101.283 350.566 101.067C350.367 100.635 350.075 99.995 349.701 99.1652C348.952 97.5054 347.877 95.0864 346.568 92.0526C343.951 85.9845 340.404 77.459 336.688 67.6317C329.248 47.958 321.155 23.1387 318.443 2.3822L316.46 2.6413C319.203 23.6371 327.366 48.6343 334.817 68.3391C338.547 78.2011 342.105 86.7553 344.732 92.8446C346.045 95.8895 347.125 98.3186 347.878 99.9873C348.254 100.822 348.548 101.466 348.749 101.902C348.849 102.12 348.926 102.286 348.977 102.398C349.003 102.454 349.023 102.496 349.036 102.525C349.043 102.539 349.048 102.55 349.051 102.557C349.053 102.561 349.054 102.563 349.055 102.565C349.056 102.566 349.056 102.567 349.056 102.567C349.056 102.568 349.057 102.568 349.963 102.145ZM326.967 42.4779C327.966 42.5281 327.966 42.5283 327.966 42.5285C327.966 42.5285 327.966 42.5286 327.966 42.5285C327.966 42.5284 327.966 42.5281 327.966 42.5274C327.966 42.5262 327.966 42.5239 327.966 42.5206C327.967 42.514 327.967 42.5034 327.968 42.4889C327.97 42.4598 327.973 42.4149 327.977 42.3551C327.985 42.2354 327.999 42.0558 328.021 41.8226C328.064 41.3559 328.139 40.6751 328.262 39.8297C328.508 38.1374 328.949 35.7931 329.724 33.1905C331.283 27.9621 334.157 21.8118 339.403 17.7434L338.177 16.163C332.457 20.5995 329.419 27.2116 327.808 32.6193C326.998 35.3347 326.54 37.7769 326.283 39.5416C326.154 40.4246 326.076 41.1399 326.03 41.6373C326.006 41.886 325.991 42.0804 325.982 42.2142C325.977 42.2811 325.974 42.3328 325.972 42.3686C325.971 42.3866 325.97 42.4005 325.969 42.4103C325.969 42.4153 325.969 42.4192 325.969 42.4221C325.968 42.4235 325.968 42.4247 325.968 42.4256C325.968 42.4261 325.968 42.4266 325.968 42.4268C325.968 42.4272 325.968 42.4276 326.967 42.4779ZM331.58 56.6494C332.32 55.9771 332.32 55.9768 332.32 55.9764C332.319 55.9762 332.319 55.9758 332.319 55.9754C332.318 55.9746 332.317 55.9737 332.316 55.9727C332.314 55.9705 332.312 55.9676 332.308 55.9641C332.302 55.9571 332.293 55.9474 332.282 55.9351C332.259 55.9106 332.226 55.8757 332.183 55.8314C332.098 55.7426 331.974 55.6158 331.813 55.4572C331.49 55.1401 331.018 54.6954 330.407 54.174C329.188 53.1322 327.413 51.778 325.183 50.5234C320.725 48.0163 314.385 45.8749 307.025 47.5077L307.458 49.4602C314.182 47.9685 320.012 49.9099 324.202 52.2666C326.296 53.4439 327.964 54.7169 329.108 55.6944C329.679 56.1826 330.118 56.5955 330.411 56.8836C330.558 57.0276 330.668 57.1403 330.74 57.2154C330.776 57.253 330.802 57.2811 330.819 57.2991C330.827 57.3081 330.833 57.3146 330.837 57.3184C330.838 57.3203 330.84 57.3215 330.84 57.3221C330.84 57.3224 330.84 57.3225 330.84 57.3224C330.84 57.3224 330.84 57.3222 330.84 57.3222C330.84 57.322 330.84 57.3217 331.58 56.6494ZM338.35 73.765C339.35 73.7762 339.35 73.7766 339.35 73.7769C339.35 73.7769 339.35 73.7771 339.35 73.7771C339.35 73.777 339.35 73.7767 339.35 73.776C339.35 73.7746 339.35 73.7719 339.35 73.768C339.35 73.7602 339.35 73.7473 339.351 73.7294C339.352 73.6937 339.353 73.6382 339.356 73.5638C339.363 73.4149 339.374 73.1907 339.396 72.8984C339.44 72.3138 339.524 71.4577 339.687 70.3891C340.012 68.2509 340.65 65.2693 341.896 61.9141C344.388 55.2077 349.305 47.0258 359.029 41.0708L357.984 39.3652C347.79 45.6082 342.629 54.1999 340.022 61.2175C338.719 64.7243 338.052 67.8422 337.71 70.0882C337.539 71.2117 337.449 72.1187 337.402 72.7492C337.378 73.0646 337.365 73.3109 337.358 73.4808C337.355 73.5657 337.352 73.6316 337.351 73.6774C337.351 73.7003 337.35 73.7182 337.35 73.7309C337.35 73.7373 337.35 73.7424 337.35 73.7463C337.35 73.7482 337.35 73.7497 337.35 73.751C337.35 73.7516 337.35 73.7523 337.35 73.7526C337.35 73.7533 337.35 73.7538 338.35 73.765ZM331.374 56.3079C332.373 56.2651 332.373 56.2656 332.373 56.266C332.373 56.266 332.373 56.2664 332.373 56.2665C332.373 56.2667 332.373 56.2667 332.373 56.2664C332.373 56.2658 332.373 56.2643 332.373 56.2618C332.373 56.2567 332.373 56.2478 332.372 56.235C332.372 56.2094 332.371 56.1684 332.371 56.1127C332.37 56.0012 332.371 55.8305 332.378 55.6052C332.392 55.1546 332.431 54.4859 332.531 53.6354C332.731 51.9341 333.177 49.5081 334.158 46.6462C336.117 40.9297 340.218 33.453 348.815 26.5215L347.56 24.9645C338.639 32.157 334.334 39.9629 332.266 45.9978C331.233 49.0116 330.759 51.5786 330.545 53.4013C330.437 54.3129 330.394 55.039 330.379 55.5426C330.371 55.7945 330.37 55.9908 330.371 56.127C330.371 56.1951 330.372 56.2482 330.373 56.2857C330.374 56.3044 330.374 56.3193 330.374 56.3301C330.375 56.3356 330.375 56.34 330.375 56.3434C330.375 56.3452 330.375 56.3466 330.375 56.3479C330.375 56.3485 330.375 56.3492 330.375 56.3495C330.375 56.3502 330.375 56.3508 331.374 56.3079ZM337.324 72.0561C338.231 71.6334 338.23 71.6327 338.23 71.632C338.23 71.6316 338.23 71.6309 338.229 71.6303C338.229 71.629 338.228 71.6276 338.227 71.626C338.226 71.6227 338.224 71.6186 338.221 71.6138C338.217 71.6041 338.211 71.5913 338.203 71.5755C338.187 71.5438 338.165 71.5001 338.136 71.445C338.079 71.335 337.994 71.1798 337.88 70.9862C337.652 70.5991 337.305 70.0579 336.821 69.4163C335.852 68.1332 334.329 66.4475 332.096 64.7931C327.612 61.4732 320.33 58.3289 309.056 58.7342L309.127 60.7329C319.966 60.3432 326.8 63.3603 330.905 66.4004C332.965 67.926 334.355 69.47 335.225 70.6216C335.66 71.1974 335.964 71.6747 336.157 72.0019C336.253 72.1654 336.322 72.2913 336.365 72.373C336.386 72.4139 336.401 72.4437 336.41 72.4616C336.414 72.4706 336.417 72.4766 336.418 72.4795C336.419 72.481 336.42 72.4816 336.419 72.4816C336.419 72.4815 336.419 72.4813 336.419 72.4808C336.419 72.4806 336.419 72.4801 336.419 72.48C336.419 72.4795 336.418 72.4789 337.324 72.0561Z" fill="black"/>
<path d="M301.795 84.2684C281.565 71.9652 238.503 78.2484 226.299 80.3576C224.536 80.6624 223.502 82.4636 224.102 84.1676C228.078 95.4621 242.722 133.451 264.216 147.303C287.144 162.079 329.538 156.912 341.896 154.999C343.719 154.717 344.791 152.847 344.123 151.109C339.436 138.915 322.018 96.5666 301.795 84.2684Z" fill="#40C075"/>
<path d="M225.753 72.6089L225.555 71.6286C225.277 71.6848 225.036 71.8566 224.892 72.1012C224.748 72.3457 224.714 72.6401 224.8 72.9107L225.753 72.6089ZM348.1 146.067L348.287 147.05C348.574 146.995 348.823 146.818 348.968 146.564C349.113 146.311 349.14 146.007 349.042 145.732L348.1 146.067ZM266.955 138.952L267.497 138.112L267.497 138.112L266.955 138.952ZM347.306 147.286C347.81 147.512 348.401 147.286 348.627 146.782C348.853 146.278 348.627 145.687 348.123 145.461L347.306 147.286ZM227.065 72.0892C226.654 71.7195 226.022 71.7525 225.652 72.1629C225.283 72.5732 225.316 73.2055 225.726 73.5752L227.065 72.0892ZM270.529 106.091C270.865 106.529 271.493 106.612 271.931 106.276C272.369 105.94 272.452 105.312 272.116 104.874L270.529 106.091ZM262.185 68.749C262.299 68.2086 261.953 67.678 261.413 67.5638C260.873 67.4496 260.342 67.7951 260.228 68.3354L262.185 68.749ZM288.441 116.952C288.989 117.017 289.486 116.626 289.552 116.077C289.617 115.529 289.225 115.031 288.676 114.966L288.441 116.952ZM255.288 128.785C254.957 129.226 255.047 129.853 255.488 130.185C255.93 130.516 256.557 130.426 256.888 129.985L255.288 128.785ZM309.853 128.175C310.206 128.6 310.836 128.658 311.261 128.305C311.686 127.952 311.744 127.321 311.391 126.896L309.853 128.175ZM303.077 75.152C303.249 74.6273 302.963 74.0623 302.438 73.89C301.914 73.7178 301.349 74.0036 301.176 74.5283L303.077 75.152ZM287.313 116.471C287.689 116.876 288.322 116.899 288.726 116.523C289.131 116.147 289.154 115.515 288.778 115.11L287.313 116.471ZM279.675 69.3605C279.779 68.8181 279.423 68.2941 278.881 68.19C278.339 68.0859 277.815 68.4412 277.711 68.9836L279.675 69.3605ZM307.646 127.606C308.15 127.833 308.742 127.608 308.968 127.104C309.195 126.6 308.97 126.008 308.466 125.782L307.646 127.606ZM267.208 138.594C266.804 138.969 266.78 139.602 267.155 140.007C267.531 140.412 268.163 140.436 268.568 140.06L267.208 138.594ZM225.753 72.6089C225.951 73.5891 225.951 73.5891 225.951 73.5891C225.952 73.589 225.952 73.5889 225.953 73.5888C225.954 73.5885 225.957 73.588 225.96 73.5874C225.966 73.5861 225.976 73.5842 225.988 73.5817C226.014 73.5765 226.053 73.5689 226.104 73.5587C226.208 73.5385 226.362 73.5086 226.564 73.47C226.97 73.3929 227.569 73.2813 228.341 73.1442C229.884 72.8701 232.119 72.494 234.874 72.0874C240.388 71.2741 247.982 70.3397 256.311 69.8542C264.643 69.3686 273.687 69.3336 282.107 70.3107C290.542 71.2896 298.265 73.2752 304.015 76.772L305.054 75.0631C298.949 71.3502 290.897 69.3174 282.338 68.324C273.763 67.3289 264.594 67.368 256.194 67.8576C247.791 68.3474 240.136 69.2895 234.583 70.1088C231.805 70.5186 229.552 70.8979 227.991 71.175C227.211 71.3136 226.603 71.4267 226.191 71.5052C225.984 71.5445 225.826 71.5752 225.719 71.5961C225.666 71.6066 225.625 71.6147 225.598 71.6201C225.584 71.6228 225.574 71.6249 225.567 71.6264C225.563 71.6271 225.56 71.6276 225.559 71.628C225.558 71.6282 225.557 71.6283 225.556 71.6284C225.556 71.6286 225.555 71.6286 225.753 72.6089ZM304.015 76.772C309.773 80.2739 315.366 86.3339 320.531 93.544C325.686 100.74 330.365 109.009 334.316 116.85C338.265 124.688 341.477 132.08 343.702 137.513C344.814 140.229 345.679 142.455 346.266 144C346.559 144.772 346.783 145.374 346.933 145.783C347.008 145.987 347.064 146.143 347.102 146.247C347.121 146.299 347.135 146.339 347.144 146.365C347.149 146.378 347.153 146.388 347.155 146.394C347.156 146.397 347.157 146.4 347.157 146.401C347.158 146.402 347.158 146.402 347.158 146.403C347.158 146.403 347.158 146.403 348.1 146.067C349.042 145.732 349.042 145.731 349.042 145.731C349.042 145.73 349.041 145.73 349.041 145.729C349.04 145.727 349.039 145.724 349.038 145.721C349.036 145.713 349.032 145.703 349.027 145.689C349.017 145.662 349.002 145.621 348.983 145.567C348.944 145.46 348.886 145.301 348.81 145.093C348.658 144.678 348.432 144.069 348.136 143.29C347.544 141.731 346.672 139.489 345.553 136.755C343.314 131.289 340.08 123.847 336.102 115.95C332.125 108.056 327.394 99.6885 322.157 92.3793C316.931 85.0845 311.151 78.771 305.054 75.0631L304.015 76.772ZM348.1 146.067C347.913 145.085 347.913 145.085 347.913 145.085C347.912 145.085 347.912 145.085 347.911 145.085C347.91 145.086 347.908 145.086 347.905 145.087C347.899 145.088 347.889 145.09 347.877 145.092C347.852 145.097 347.814 145.104 347.763 145.113C347.662 145.132 347.511 145.159 347.312 145.194C346.913 145.265 346.324 145.366 345.563 145.489C344.041 145.735 341.833 146.068 339.098 146.414C333.627 147.105 326.054 147.846 317.643 148.044C300.758 148.443 280.742 146.648 267.497 138.112L266.413 139.793C280.205 148.681 300.762 150.444 317.69 150.044C326.186 149.843 333.83 149.095 339.349 148.398C342.109 148.049 344.34 147.713 345.882 147.464C346.653 147.339 347.253 147.236 347.66 147.164C347.864 147.128 348.02 147.099 348.125 147.08C348.178 147.07 348.218 147.063 348.245 147.058C348.258 147.055 348.269 147.053 348.276 147.052C348.279 147.051 348.282 147.051 348.284 147.05C348.285 147.05 348.286 147.05 348.286 147.05C348.287 147.05 348.287 147.05 348.1 146.067ZM267.497 138.112C255.058 130.096 244.858 113.734 237.737 99.2081C234.189 91.9717 231.43 85.2414 229.557 80.3198C228.621 77.8597 227.908 75.853 227.428 74.4629C227.189 73.7679 227.008 73.2271 226.887 72.861C226.826 72.6779 226.781 72.5385 226.751 72.4453C226.736 72.3988 226.725 72.3637 226.717 72.3406C226.714 72.329 226.711 72.3204 226.709 72.3148C226.708 72.312 226.707 72.3099 226.707 72.3086C226.707 72.308 226.707 72.3076 226.707 72.3073C226.707 72.3071 226.707 72.307 225.753 72.6089C224.8 72.9107 224.8 72.9111 224.8 72.9116C224.8 72.9121 224.801 72.9128 224.801 72.9137C224.801 72.9154 224.802 72.9179 224.803 72.9212C224.805 72.9277 224.808 72.9373 224.812 72.9498C224.82 72.9748 224.832 73.0117 224.848 73.0602C224.879 73.1572 224.926 73.3005 224.988 73.4876C225.111 73.8617 225.295 74.411 225.537 75.1148C226.023 76.5225 226.744 78.5491 227.688 81.031C229.576 85.9938 232.36 92.7831 235.941 100.088C243.077 114.646 253.477 131.456 266.413 139.793L267.497 138.112ZM347.714 146.373C348.123 145.461 348.123 145.461 348.123 145.461C348.122 145.46 348.121 145.46 348.12 145.459C348.118 145.458 348.114 145.457 348.11 145.455C348.1 145.451 348.086 145.444 348.067 145.436C348.03 145.419 347.973 145.393 347.899 145.36C347.749 145.292 347.526 145.191 347.232 145.057C346.646 144.789 345.779 144.392 344.66 143.872C342.423 142.832 339.178 141.303 335.151 139.349C327.098 135.44 315.918 129.832 303.417 123.033C278.397 109.425 248.152 91.0854 227.065 72.0892L225.726 73.5752C246.996 92.7354 277.411 111.166 302.461 124.79C314.995 131.607 326.203 137.229 334.278 141.148C338.316 143.107 341.571 144.641 343.817 145.685C344.941 146.207 345.812 146.607 346.402 146.877C346.698 147.011 346.923 147.113 347.075 147.182C347.151 147.216 347.208 147.242 347.247 147.26C347.266 147.268 347.281 147.275 347.29 147.279C347.295 147.281 347.299 147.283 347.302 147.284C347.303 147.285 347.304 147.285 347.304 147.286C347.305 147.286 347.306 147.286 347.714 146.373ZM271.323 105.482C272.116 104.874 272.116 104.874 272.116 104.874C272.116 104.874 272.116 104.874 272.116 104.874C272.116 104.874 272.116 104.873 272.115 104.872C272.114 104.871 272.112 104.868 272.109 104.864C272.103 104.857 272.094 104.845 272.082 104.829C272.058 104.796 272.021 104.746 271.972 104.68C271.874 104.547 271.729 104.347 271.546 104.085C271.178 103.56 270.654 102.786 270.037 101.798C268.801 99.821 267.192 96.9924 265.705 93.5928C262.723 86.7725 260.279 77.7652 262.185 68.749L260.228 68.3354C258.199 77.9356 260.814 87.3984 263.873 94.3941C265.407 97.9025 267.065 100.818 268.341 102.858C268.979 103.879 269.522 104.682 269.908 105.232C270.1 105.508 270.254 105.72 270.36 105.864C270.413 105.936 270.454 105.992 270.483 106.03C270.497 106.049 270.508 106.063 270.516 106.074C270.52 106.079 270.523 106.083 270.525 106.086C270.526 106.087 270.527 106.088 270.528 106.089C270.528 106.089 270.528 106.09 270.529 106.09C270.529 106.091 270.529 106.091 271.323 105.482ZM288.559 115.959C288.676 114.966 288.676 114.966 288.675 114.966C288.675 114.966 288.674 114.966 288.674 114.966C288.673 114.966 288.671 114.966 288.669 114.965C288.666 114.965 288.661 114.964 288.655 114.964C288.643 114.962 288.626 114.961 288.604 114.958C288.56 114.954 288.497 114.947 288.415 114.94C288.252 114.925 288.016 114.906 287.712 114.887C287.106 114.85 286.232 114.816 285.149 114.826C282.985 114.845 279.975 115.04 276.583 115.743C269.802 117.147 261.43 120.595 255.288 128.785L256.888 129.985C262.646 122.308 270.509 119.043 276.988 117.701C280.226 117.031 283.103 116.844 285.167 116.826C286.199 116.816 287.026 116.849 287.59 116.884C287.873 116.901 288.09 116.918 288.234 116.932C288.306 116.938 288.36 116.944 288.394 116.947C288.412 116.949 288.425 116.95 288.432 116.951C288.436 116.952 288.439 116.952 288.44 116.952C288.441 116.952 288.441 116.952 288.441 116.952C288.441 116.952 288.441 116.952 288.441 116.952C288.441 116.952 288.441 116.952 288.559 115.959ZM310.622 127.536C311.391 126.896 311.391 126.897 311.391 126.897C311.391 126.897 311.391 126.897 311.391 126.897C311.391 126.897 311.39 126.896 311.389 126.895C311.388 126.893 311.385 126.89 311.382 126.886C311.375 126.877 311.363 126.863 311.347 126.843C311.316 126.804 311.268 126.744 311.205 126.663C311.078 126.501 310.891 126.256 310.655 125.932C310.183 125.284 309.514 124.317 308.74 123.061C307.191 120.548 305.225 116.878 303.566 112.272C300.249 103.063 298.163 90.1233 303.077 75.152L301.176 74.5283C296.093 90.0175 298.254 103.425 301.684 112.949C303.399 117.709 305.431 121.503 307.037 124.11C307.841 125.414 308.538 126.423 309.038 127.11C309.288 127.453 309.489 127.715 309.628 127.894C309.698 127.984 309.753 128.052 309.791 128.099C309.81 128.122 309.824 128.141 309.835 128.153C309.84 128.16 309.844 128.165 309.847 128.168C309.849 128.17 309.85 128.172 309.851 128.173C309.851 128.173 309.852 128.174 309.852 128.174C309.852 128.175 309.853 128.175 310.622 127.536ZM288.046 115.791C288.778 115.11 288.779 115.11 288.779 115.111C288.779 115.111 288.779 115.111 288.779 115.111C288.779 115.111 288.779 115.111 288.778 115.11C288.778 115.109 288.776 115.107 288.773 115.105C288.768 115.099 288.759 115.089 288.747 115.075C288.722 115.048 288.684 115.005 288.633 114.946C288.532 114.829 288.38 114.649 288.187 114.406C287.8 113.922 287.248 113.189 286.6 112.213C285.303 110.261 283.624 107.337 282.121 103.479C279.118 95.7687 276.807 84.3051 279.675 69.3605L277.711 68.9836C274.765 84.3327 277.131 96.1784 280.258 104.204C281.819 108.214 283.569 111.264 284.934 113.32C285.616 114.348 286.203 115.127 286.624 115.654C286.834 115.917 287.002 116.117 287.12 116.254C287.179 116.322 287.225 116.374 287.258 116.41C287.274 116.429 287.287 116.443 287.296 116.453C287.301 116.458 287.304 116.462 287.307 116.465C287.309 116.467 287.31 116.468 287.311 116.469C287.311 116.469 287.312 116.47 287.312 116.47C287.313 116.471 287.313 116.471 288.046 115.791ZM308.056 126.694C308.466 125.782 308.466 125.782 308.465 125.781C308.464 125.781 308.464 125.781 308.463 125.781C308.461 125.78 308.46 125.779 308.458 125.778C308.454 125.777 308.449 125.774 308.443 125.772C308.431 125.766 308.414 125.759 308.393 125.751C308.352 125.733 308.293 125.709 308.217 125.679C308.066 125.619 307.847 125.537 307.564 125.442C306.998 125.251 306.175 125.007 305.123 124.783C303.017 124.335 299.988 123.967 296.252 124.263C288.762 124.856 278.511 128.113 267.208 138.594L268.568 140.06C279.556 129.871 289.389 126.812 296.41 126.256C299.93 125.978 302.764 126.326 304.707 126.74C305.678 126.946 306.426 127.169 306.925 127.337C307.175 127.421 307.362 127.491 307.483 127.539C307.544 127.563 307.588 127.581 307.615 127.593C307.629 127.599 307.638 127.603 307.643 127.605C307.646 127.606 307.648 127.607 307.648 127.607C307.648 127.607 307.648 127.607 307.648 127.607C307.648 127.607 307.647 127.607 307.647 127.607C307.647 127.606 307.646 127.606 308.056 126.694Z" fill="black"/>
<g filter="url(#filter4_d)">
<path d="M443.409 70.3904H320.274C319.104 70.3904 315.521 71.1593 310.553 74.2349C305.584 77.3105 304.342 85.7685 304.342 89.613C304.072 184.17 303.694 374.493 304.342 379.326C305.078 384.818 307.042 386.741 313.253 391.134C318.222 394.649 327.205 395.528 330.535 395.254C367.89 395.07 444.219 394.375 450.7 393.057C457.18 391.738 459.521 381.523 459.881 376.58V137.67V104.717C459.701 98.6752 458.963 85.2742 457.45 80.0017C455.938 74.7292 448.539 70.3904 443.409 70.3904Z" fill="white"/>
<path d="M330.53 394.254L330.492 394.254L330.453 394.257C328.9 394.385 325.915 394.245 322.695 393.633C319.467 393.018 316.143 391.954 313.831 390.318C310.711 388.111 308.786 386.608 307.529 385.021C306.314 383.487 305.686 381.822 305.333 379.193C305.302 378.963 305.265 378.013 305.232 376.295C305.199 374.618 305.17 372.284 305.145 369.359C305.094 363.511 305.056 355.313 305.031 345.314C304.979 325.316 304.974 298.119 304.998 268.117C305.045 208.113 305.207 136.894 305.342 89.6159V89.613C305.342 87.7752 305.642 84.8022 306.539 81.9341C307.444 79.0393 308.899 76.4347 311.079 75.0852C315.963 72.062 319.36 71.3904 320.274 71.3904H443.409C445.729 71.3904 448.675 72.3871 451.241 74.0571C453.815 75.7318 455.825 77.9628 456.489 80.2774C457.214 82.8054 457.772 87.3789 458.169 92.1536C458.562 96.8896 458.791 101.724 458.881 104.732V137.67V376.543C458.703 378.935 458.045 382.589 456.667 385.781C455.263 389.034 453.243 391.519 450.5 392.077C449.779 392.223 447.96 392.377 445.155 392.523C442.386 392.668 438.736 392.804 434.414 392.931C425.77 393.184 414.46 393.4 402.18 393.581C377.623 393.942 349.206 394.162 330.53 394.254Z" stroke="black" stroke-width="2"/>
</g>
<g filter="url(#filter5_d)">
<path d="M416.03 83.2183C415.382 86.2939 411.98 87.612 410.359 87.8866H351.762H350.682H348.792C347.982 87.8866 346.362 87.0628 345.282 85.6898C344.201 84.3167 344.742 82.669 344.471 81.0214C344.255 79.7033 343.481 78.4584 343.121 78.0007H327.999C325.299 77.9091 318.98 78.2753 315.308 80.4722C311.635 82.669 310.357 87.612 310.177 89.8089V371.833C309.817 373.755 310.015 378.533 313.688 382.268C317.36 386.003 321.159 386.57 322.599 386.387C359.503 386.845 434.986 387.486 441.683 386.387C448.38 385.289 451.314 379.339 451.944 376.501L454.105 103.814C454.375 99.6948 453.673 89.4244 453.025 84.5913C452.377 79.7582 447.894 77.7261 444.924 77.7261H419.811C418.82 78.2753 416.678 80.1426 416.03 83.2183Z" fill="white"/>
<path d="M410.359 88.8866H410.444L410.526 88.8726C411.453 88.7155 412.844 88.2729 414.11 87.4375C415.382 86.598 416.613 85.3019 417.009 83.4245C417.54 80.9038 419.211 79.3052 420.09 78.7261H444.924C447.587 78.7261 451.475 80.5579 452.033 84.7242C452.678 89.5314 453.37 99.7262 453.107 103.749L453.105 103.777L453.105 103.806L450.945 376.384C450.313 379.061 447.567 384.409 441.521 385.4C440.763 385.525 438.923 385.635 436.126 385.722C433.359 385.808 429.725 385.871 425.431 385.915C416.842 386.002 405.631 386.011 393.472 385.971C369.155 385.891 341.062 385.616 322.611 385.387L322.542 385.386L322.473 385.395C321.371 385.535 317.875 385.1 314.401 381.567C311.014 378.123 310.844 373.706 311.16 372.017L311.177 371.926V371.833V89.8511C311.264 88.8534 311.604 87.2022 312.345 85.55C313.098 83.873 314.223 82.2866 315.821 81.3303C317.49 80.332 319.835 79.7153 322.166 79.3673C324.478 79.0222 326.672 78.9563 327.966 79.0001L327.983 79.0007H327.999H342.6C342.926 79.5177 343.348 80.3497 343.485 81.1831C343.54 81.5199 343.556 81.8721 343.56 82.2632C343.561 82.377 343.561 82.5004 343.561 82.6291C343.561 82.9107 343.561 83.2172 343.574 83.5013C343.611 84.3758 343.766 85.3803 344.496 86.308C345.122 87.1039 345.896 87.7321 346.631 88.1648C347.332 88.5778 348.124 88.8866 348.792 88.8866H350.682H351.762H410.359Z" stroke="black" stroke-width="2"/>
</g>
<g filter="url(#filter6_d)">
<rect x="325" y="231" width="113" height="20" rx="3" fill="white"/>
<rect x="326" y="232" width="111" height="18" rx="2" stroke="black" stroke-width="2"/>
</g>
<g filter="url(#filter7_d)">
<rect x="325" y="171" width="113" height="50" rx="3" fill="white"/>
<rect x="326" y="172" width="111" height="48" rx="2" stroke="black" stroke-width="2"/>
</g>
<defs>
<filter id="filter0_d" x="70.7578" y="124.023" width="345.668" height="210.983" filterUnits="userSpaceOnUse" color-interpolation-filters="sRGB">
<feFlood flood-opacity="0" result="BackgroundImageFix"/>
<feColorMatrix in="SourceAlpha" type="matrix" values="0 0 0 0 0 0 0 0 0 0 0 0 0 0 0 0 0 0 127 0"/>
<feOffset dx="-4" dy="4"/>
<feColorMatrix type="matrix" values="0 0 0 0 0.827451 0 0 0 0 0.835294 0 0 0 0 0.847059 0 0 0 1 0"/>
<feBlend mode="normal" in2="BackgroundImageFix" result="effect1_dropShadow"/>
<feBlend mode="normal" in="SourceGraphic" in2="effect1_dropShadow" result="shape"/>
</filter>
<filter id="filter1_d" x="104.5" y="171" width="67.5" height="82.5" filterUnits="userSpaceOnUse" color-interpolation-filters="sRGB">
<feFlood flood-opacity="0" result="BackgroundImageFix"/>
<feColorMatrix in="SourceAlpha" type="matrix" values="0 0 0 0 0 0 0 0 0 0 0 0 0 0 0 0 0 0 127 0"/>
<feOffset dx="-2.5" dy="2.5"/>
<feColorMatrix type="matrix" values="0 0 0 0 0.827451 0 0 0 0 0.835294 0 0 0 0 0.847059 0 0 0 1 0"/>
<feBlend mode="normal" in2="BackgroundImageFix" result="effect1_dropShadow"/>
<feBlend mode="normal" in="SourceGraphic" in2="effect1_dropShadow" result="shape"/>
</filter>
<filter id="filter2_d" x="177.5" y="171" width="160.5" height="130.5" filterUnits="userSpaceOnUse" color-interpolation-filters="sRGB">
<feFlood flood-opacity="0" result="BackgroundImageFix"/>
<feColorMatrix in="SourceAlpha" type="matrix" values="0 0 0 0 0 0 0 0 0 0 0 0 0 0 0 0 0 0 127 0"/>
<feOffset dx="-2.5" dy="2.5"/>
<feColorMatrix type="matrix" values="0 0 0 0 0.827451 0 0 0 0 0.835294 0 0 0 0 0.847059 0 0 0 1 0"/>
<feBlend mode="normal" in2="BackgroundImageFix" result="effect1_dropShadow"/>
<feBlend mode="normal" in="SourceGraphic" in2="effect1_dropShadow" result="shape"/>
</filter>
<filter id="filter3_d" x="192.5" y="187" width="53.5" height="18.5" filterUnits="userSpaceOnUse" color-interpolation-filters="sRGB">
<feFlood flood-opacity="0" result="BackgroundImageFix"/>
<feColorMatrix in="SourceAlpha" type="matrix" values="0 0 0 0 0 0 0 0 0 0 0 0 0 0 0 0 0 0 127 0"/>
<feOffset dx="-2.5" dy="2.5"/>
<feColorMatrix type="matrix" values="0 0 0 0 0.827451 0 0 0 0 0.835294 0 0 0 0 0.847059 0 0 0 1 0"/>
<feBlend mode="normal" in2="BackgroundImageFix" result="effect1_dropShadow"/>
<feBlend mode="normal" in="SourceGraphic" in2="effect1_dropShadow" result="shape"/>
</filter>
<filter id="filter4_d" x="301.484" y="70.3904" width="158.397" height="327.41" filterUnits="userSpaceOnUse" color-interpolation-filters="sRGB">
<feFlood flood-opacity="0" result="BackgroundImageFix"/>
<feColorMatrix in="SourceAlpha" type="matrix" values="0 0 0 0 0 0 0 0 0 0 0 0 0 0 0 0 0 0 127 0"/>
<feOffset dx="-2.5" dy="2.5"/>
<feColorMatrix type="matrix" values="0 0 0 0 0.827451 0 0 0 0 0.835294 0 0 0 0 0.847059 0 0 0 1 0"/>
<feBlend mode="normal" in2="BackgroundImageFix" result="effect1_dropShadow"/>
<feBlend mode="normal" in="SourceGraphic" in2="effect1_dropShadow" result="shape"/>
</filter>
<filter id="filter5_d" x="307.551" y="77.7261" width="146.613" height="311.768" filterUnits="userSpaceOnUse" color-interpolation-filters="sRGB">
<feFlood flood-opacity="0" result="BackgroundImageFix"/>
<feColorMatrix in="SourceAlpha" type="matrix" values="0 0 0 0 0 0 0 0 0 0 0 0 0 0 0 0 0 0 127 0"/>
<feOffset dx="-2.5" dy="2.5"/>
<feColorMatrix type="matrix" values="0 0 0 0 0.827451 0 0 0 0 0.835294 0 0 0 0 0.847059 0 0 0 1 0"/>
<feBlend mode="normal" in2="BackgroundImageFix" result="effect1_dropShadow"/>
<feBlend mode="normal" in="SourceGraphic" in2="effect1_dropShadow" result="shape"/>
</filter>
<filter id="filter6_d" x="322.5" y="231" width="115.5" height="22.5" filterUnits="userSpaceOnUse" color-interpolation-filters="sRGB">
<feFlood flood-opacity="0" result="BackgroundImageFix"/>
<feColorMatrix in="SourceAlpha" type="matrix" values="0 0 0 0 0 0 0 0 0 0 0 0 0 0 0 0 0 0 127 0"/>
<feOffset dx="-2.5" dy="2.5"/>
<feColorMatrix type="matrix" values="0 0 0 0 0.827451 0 0 0 0 0.835294 0 0 0 0 0.847059 0 0 0 1 0"/>
<feBlend mode="normal" in2="BackgroundImageFix" result="effect1_dropShadow"/>
<feBlend mode="normal" in="SourceGraphic" in2="effect1_dropShadow" result="shape"/>
</filter>
<filter id="filter7_d" x="322.5" y="171" width="115.5" height="52.5" filterUnits="userSpaceOnUse" color-interpolation-filters="sRGB">
<feFlood flood-opacity="0" result="BackgroundImageFix"/>
<feColorMatrix in="SourceAlpha" type="matrix" values="0 0 0 0 0 0 0 0 0 0 0 0 0 0 0 0 0 0 127 0"/>
<feOffset dx="-2.5" dy="2.5"/>
<feColorMatrix type="matrix" values="0 0 0 0 0.827451 0 0 0 0 0.835294 0 0 0 0 0.847059 0 0 0 1 0"/>
<feBlend mode="normal" in2="BackgroundImageFix" result="effect1_dropShadow"/>
<feBlend mode="normal" in="SourceGraphic" in2="effect1_dropShadow" result="shape"/>
</filter>
</defs>
</svg>
