<svg width="121" height="36" viewBox="0 0 121 36" fill="none" xmlns="http://www.w3.org/2000/svg">
<path d="M48.7166 11.3047C49.8075 11.3047 50.6738 10.4705 50.6738 9.47585C50.6738 8.4812 49.8075 7.64697 48.7166 7.64697C47.6257 7.64697 46.7273 8.4812 46.7273 9.47585C46.7273 10.4705 47.6257 11.3047 48.7166 11.3047ZM47.3262 11.9785C47.0663 11.9785 46.8556 12.1892 46.8556 12.4491V24.6202C46.8556 25.4224 46.5668 26.0641 45.123 26.0641H44.8235C44.5636 26.0641 44.3529 26.2748 44.3529 26.5347V28.4812C44.3529 28.7411 44.5636 28.9518 44.8235 28.9518H45.7005C48.4599 28.9518 50.5454 27.6684 50.5454 24.6844V12.4491C50.5454 12.1892 50.3348 11.9785 50.0749 11.9785H47.3262Z" fill="black"/>
<path d="M60.0154 18.524C60.0154 20.2566 59.5662 21.54 58.1865 21.54C57.1919 21.54 56.4218 20.8662 56.4218 19.5507V12.4491C56.4218 12.1892 56.2112 11.9785 55.9513 11.9785H53.2026C52.9427 11.9785 52.732 12.1892 52.732 12.4491V19.6791C52.732 23.2406 54.7855 24.4598 56.871 24.4598C58.2655 24.4598 59.4409 23.8963 60.1497 23.0167C60.1664 22.9961 60.1913 22.9839 60.2178 22.9839C60.2655 22.9839 60.3042 23.0225 60.3042 23.0702V23.8288C60.3042 24.0887 60.5149 24.2994 60.7748 24.2994H63.2347C63.4946 24.2994 63.7053 24.0887 63.7053 23.8288V12.4491C63.7053 12.1892 63.4946 11.9785 63.2347 11.9785H60.486C60.2261 11.9785 60.0154 12.1892 60.0154 12.4491V18.524Z" fill="black"/>
<path d="M69.4754 17.7539C69.4754 16.0213 69.9246 14.7379 71.3042 14.7379C72.2989 14.7379 73.069 15.4117 73.069 16.7272V23.8288C73.069 24.0887 73.2796 24.2994 73.5395 24.2994H76.2882C76.5481 24.2994 76.7588 24.0887 76.7588 23.8288V16.5988C76.7588 13.0373 74.7053 11.8181 72.6198 11.8181C71.2253 11.8181 70.0499 12.3816 69.3411 13.2612C69.3244 13.2818 69.2995 13.294 69.273 13.294C69.2253 13.294 69.1866 13.2554 69.1866 13.2077V12.4491C69.1866 12.1892 68.9759 11.9785 68.716 11.9785H66.2561C65.9962 11.9785 65.7855 12.1892 65.7855 12.4491V23.8288C65.7855 24.0887 65.9962 24.2994 66.2561 24.2994H69.0048C69.2647 24.2994 69.4754 24.0887 69.4754 23.8288V17.7539Z" fill="black"/>
<path d="M86.4607 12.0427C86.2008 12.0427 85.9901 12.2534 85.9901 12.5133V13.1967C85.9901 13.2504 85.9465 13.294 85.8928 13.294C85.8544 13.294 85.8198 13.2714 85.803 13.2368C85.3687 12.3412 84.3272 11.8181 83.0703 11.8181C80.5998 11.8181 78.3217 13.8395 78.3217 18.0427C78.3217 22.2459 80.5998 24.0427 83.0703 24.0427C84.4966 24.0427 85.4734 23.4435 85.8271 22.824C85.8495 22.7849 85.8903 22.7593 85.9353 22.7593C86.001 22.7593 86.0543 22.8125 86.0543 22.8783V23.5614C86.0543 25.3582 85.0917 26.032 83.5516 26.032C82.4917 26.032 81.6069 25.7038 80.8971 25.2642C80.6617 25.1183 80.3462 25.1767 80.201 25.4126L79.1261 27.1593C79.0119 27.3449 79.0388 27.5862 79.2131 27.717C80.0425 28.3393 81.7234 29.016 83.68 29.016C87.2415 29.016 89.6479 27.155 89.6479 23.7539V12.5133C89.6479 12.2534 89.4372 12.0427 89.1773 12.0427H86.4607ZM81.7869 18.0427C81.7869 16.0213 82.5891 14.7379 84.1613 14.7379C85.7976 14.7379 86.3752 16.2459 86.3752 18.0427C86.3752 19.9037 85.7655 21.1871 84.1613 21.1871C82.7174 21.1871 81.7869 20.1924 81.7869 18.0427Z" fill="black"/>
<path d="M95.428 8.34216C95.428 8.08226 95.2173 7.87157 94.9574 7.87157H92.2088C91.9489 7.87157 91.7382 8.08226 91.7382 8.34216V23.8288C91.7382 24.0887 91.9489 24.2994 92.2088 24.2994H94.9574C95.2173 24.2994 95.428 24.0887 95.428 23.8288V8.34216Z" fill="black"/>
<path d="M103.191 24.524C106.406 24.524 107.944 22.7941 108.483 21.2734C108.569 21.0329 108.417 20.7816 108.171 20.7157L105.796 20.0807C105.558 20.0171 105.316 20.1505 105.209 20.3725C104.911 20.9893 104.37 21.5721 103.159 21.5721C101.806 21.5721 101.048 20.8492 100.749 19.6926C100.678 19.4173 100.901 19.1657 101.185 19.1657H108.24C108.499 19.1657 108.71 18.955 108.71 18.6951V17.6256C108.71 13.9678 106.496 11.8181 103.095 11.8181C99.2449 11.8181 97.1273 14.5775 97.1273 18.3315C97.1273 22.2138 99.4374 24.524 103.191 24.524ZM103.063 14.7379C104.305 14.7379 105.048 15.4025 105.232 16.3235C105.283 16.5784 105.066 16.7914 104.806 16.7914H101.359C101.054 16.7914 100.828 16.5041 100.943 16.2221C101.329 15.279 102.042 14.7379 103.063 14.7379Z" fill="black"/>
<path fill-rule="evenodd" clip-rule="evenodd" d="M5.76124 11.4118C5.62226 11.4113 5.48041 11.4679 5.41724 11.5917C4.62618 13.1418 4.11316 14.8575 3.9439 16.673C3.92052 16.9238 4.10677 17.1423 4.35645 17.1758C4.44757 17.1881 4.54248 17.2016 4.64099 17.2165C5.6661 17.3718 7.08681 17.6811 8.6908 18.298C11.0243 19.1955 13.7444 20.7445 16.189 23.4069C16.4893 23.7339 17.0588 23.5285 17.0588 23.0846V18.4773C17.0588 18.3734 17.024 18.2716 16.9601 18.1898C14.3308 14.8245 11.543 13.1368 9.41516 12.2856C8.30895 11.8431 7.37523 11.6245 6.72762 11.5166C6.4039 11.4627 6.15212 11.4364 5.98664 11.4237C5.90392 11.4173 5.84285 11.4144 5.80524 11.413C5.78643 11.4123 5.7735 11.412 5.76667 11.4118L5.76124 11.4118ZM6.88766 9.29133C6.77938 9.42929 6.86409 9.63103 7.03708 9.65986C7.80124 9.78722 8.86752 10.0392 10.1143 10.5379C11.9078 11.2553 14.063 12.4788 16.2214 14.5576C16.529 14.8539 17.0588 14.642 17.0588 14.215V13.2941V4.41581C17.0588 4.14375 16.8285 3.92765 16.5578 3.95511C12.6386 4.35278 9.19322 6.35352 6.88766 9.29133ZM19.0399 18.1898C18.976 18.2716 18.9412 18.3734 18.9412 18.4773V23.0846C18.9412 23.5285 19.5107 23.7339 19.811 23.4069C22.2556 20.7445 24.9757 19.1955 27.3092 18.298C28.9132 17.6811 30.3339 17.3718 31.359 17.2165C31.4575 17.2016 31.5524 17.1881 31.6436 17.1758C31.8932 17.1423 32.0795 16.9238 32.0561 16.673C31.8868 14.8575 31.3738 13.1418 30.5828 11.5917C30.5196 11.4679 30.3777 11.4113 30.2388 11.4118L30.2333 11.4118C30.2265 11.412 30.2136 11.4123 30.1948 11.413C30.1571 11.4144 30.0961 11.4173 30.0134 11.4237C29.8479 11.4364 29.5961 11.4627 29.2724 11.5166C28.6248 11.6245 27.691 11.8431 26.5848 12.2856C24.457 13.1368 21.6692 14.8245 19.0399 18.1898ZM28.9629 9.65986C29.1359 9.63103 29.2206 9.42929 29.1123 9.29133C26.8068 6.35352 23.3614 4.35278 19.4422 3.95511C19.1715 3.92765 18.9412 4.14375 18.9412 4.41581V13.2941V14.215C18.9412 14.642 19.471 14.8539 19.7786 14.5576C21.937 12.4788 24.0922 11.2553 25.8857 10.5379C27.1325 10.0392 28.1988 9.78722 28.9629 9.65986ZM18 2C26.8366 2 34 9.16344 34 18C34 26.8366 26.8366 34 18 34C9.16344 34 2 26.8366 2 18C2 9.16344 9.16344 2 18 2ZM31.641 19.0776C31.8689 19.0431 32.0665 19.2318 32.043 19.4611C31.3606 26.0974 26.0814 31.3711 19.4426 32.0448C19.1719 32.0723 18.9412 31.8563 18.9412 31.5842V27.8089C18.9412 27.7217 18.9657 27.6354 19.012 27.5614C21.6822 23.2918 25.1556 21.1431 27.9849 20.0549C29.4398 19.4954 30.7249 19.2164 31.641 19.0776ZM4.35901 19.0776C4.13106 19.0431 3.93347 19.2318 3.95705 19.4611C4.63942 26.0974 9.91861 31.3711 16.5575 32.0448C16.8281 32.0723 17.0588 31.8563 17.0588 31.5842V27.8089C17.0588 27.7217 17.0343 27.6354 16.988 27.5614C14.3178 23.2918 10.8444 21.1431 8.01508 20.0549C6.56025 19.4954 5.27508 19.2164 4.35901 19.0776Z" fill="black"/>
</svg>
