<svg width="287" height="241" viewBox="0 0 287 241" fill="none" xmlns="http://www.w3.org/2000/svg">
<path d="M137.604 137.65C143.48 168.414 188.144 205.586 199.578 214.67C200.99 215.792 203.01 215.392 203.87 213.808C210.536 201.523 235.087 153.368 229.587 119.937C223.723 84.2918 180.642 46.84 169.269 37.4951C167.833 36.3151 165.742 36.7716 164.905 38.4309C158.014 52.0802 131.728 106.891 137.604 137.65Z" fill="#47BF7C"/>
<path fill-rule="evenodd" clip-rule="evenodd" d="M210.347 214.98L209.662 214.583C210.347 214.98 210.348 214.979 210.348 214.979L210.373 214.935L210.447 214.807C210.511 214.694 210.607 214.526 210.73 214.306C210.978 213.867 211.339 213.219 211.795 212.381C212.709 210.705 214.005 208.271 215.541 205.23C218.611 199.15 222.638 190.638 226.468 180.913C234.106 161.518 241.04 137.093 237.818 117.508C234.383 96.6311 218.429 75.2805 203.494 59.2421C196.005 51.2002 188.73 44.4506 183.328 39.7115C180.627 37.3415 178.393 35.4732 176.832 34.1963C176.302 33.7628 175.85 33.3975 175.484 33.1037L175.451 33.0004L175.426 32.9226C175.426 32.9226 175.426 32.9218 175.305 32.9605L175.425 32.9212C175.281 32.4736 174.847 32.2006 174.397 32.2435L174.39 32.2373L174.381 32.2309L174.379 32.2292L174.378 32.2303C174.376 32.2321 174.373 32.2365 174.364 32.2472L174.378 32.2284C174.145 32.0482 173.844 31.9799 173.556 32.0419C173.268 32.1039 173.022 32.2897 172.884 32.5499L173.558 32.9086C172.884 32.5499 172.883 32.5509 172.883 32.5509L172.857 32.6007L172.779 32.7475C172.711 32.8768 172.611 33.0687 172.48 33.32C172.219 33.8227 171.837 34.5634 171.355 35.5178C170.389 37.4267 169.019 40.1913 167.395 43.6184C164.149 50.4717 159.891 59.9803 155.842 70.5988C151.795 81.2143 147.951 92.9582 145.542 104.279C143.136 115.582 142.142 126.548 143.865 135.571C145.591 144.602 150.564 154.097 156.975 163.219C162.067 170.463 168.096 177.514 174.204 183.964C174.225 184.025 174.252 184.085 174.285 184.144C174.401 184.344 174.577 184.488 174.776 184.566C176.181 186.039 177.588 187.48 178.987 188.883C186.671 196.589 194.14 203.184 199.688 207.853C202.462 210.188 204.757 212.041 206.36 213.313C207.161 213.948 207.79 214.438 208.218 214.77C208.433 214.936 208.597 215.062 208.708 215.147L208.835 215.243L208.867 215.268L208.878 215.276C208.878 215.276 208.879 215.277 209.305 214.713L208.879 215.277C209.107 215.45 209.399 215.516 209.68 215.459C209.961 215.403 210.204 215.228 210.347 214.98ZM175.419 182.338C170.724 177.366 166.095 172.053 161.923 166.585C178.473 156.382 187.424 144.183 192.239 134.455C194.572 129.741 195.932 125.612 196.717 122.578C198.031 128.889 199.294 135.331 200.47 141.832C200.452 141.882 200.438 141.934 200.429 141.988L200.425 142.004L200.415 142.063C200.405 142.115 200.389 142.195 200.368 142.3C200.326 142.511 200.261 142.825 200.17 143.23C199.989 144.041 199.705 145.217 199.3 146.669C198.489 149.573 197.19 153.571 195.244 157.944C191.442 166.487 185.215 176.349 175.419 182.338ZM158.612 162.069C159.302 163.052 160.011 164.031 160.735 165.007C160.94 164.881 161.143 164.755 161.345 164.629C177.259 154.698 185.852 142.925 190.476 133.582C192.846 128.795 194.176 124.64 194.913 121.691C195.282 120.217 195.502 119.045 195.629 118.247C195.657 118.069 195.681 117.91 195.701 117.771L195.601 117.307C194.025 109.978 192.393 102.859 190.76 96.0672C190.178 93.6426 189.595 91.26 189.015 88.9249C188.996 88.8728 188.981 88.8296 188.969 88.7956C188.964 88.7789 188.959 88.7645 188.955 88.7523C188.952 88.7451 188.95 88.7386 188.948 88.733L188.942 88.7146L188.94 88.7088L188.939 88.7066C188.939 88.7066 188.939 88.7062 188.959 88.6995L188.939 88.7051C188.909 88.6131 188.894 88.52 188.892 88.4281C188.88 88.3812 188.869 88.3343 188.857 88.2875C188.649 89.1869 188.376 90.2695 188.023 91.5037C186.941 95.2797 185.106 100.482 182.087 106.204C176.104 117.544 165.463 130.941 146.832 139.299C149.021 146.715 153.266 154.464 158.612 162.069ZM190.898 88.3454C187.19 73.4178 183.599 60.4306 180.811 50.7885C179.195 45.2008 177.85 40.7358 176.907 37.6669C176.788 37.2793 176.676 36.914 176.57 36.5715C178.015 37.7686 179.863 39.3318 182.009 41.2149C187.375 45.9224 194.598 52.6247 202.03 60.6051C216.327 75.9578 231.243 95.8818 235.376 115.35C216.884 113.299 205.777 106.524 199.285 100.275C195.968 97.0833 193.842 94.015 192.548 91.7561C191.901 90.6266 191.463 89.6999 191.188 89.062C191.054 88.7511 190.959 88.5089 190.898 88.3454ZM235.767 117.371C235.793 117.525 235.819 117.679 235.845 117.832C236.756 123.37 236.829 129.329 236.287 135.473C224.327 136.24 214.667 131.486 207.924 126.441C204.484 123.867 201.819 121.228 200.014 119.233C199.112 118.237 198.427 117.403 197.97 116.821C197.741 116.53 197.569 116.302 197.456 116.149C197.399 116.073 197.357 116.015 197.33 115.977L197.325 115.97C195.806 108.946 194.238 102.124 192.672 95.6068L192.671 95.6024C193.98 97.4607 195.698 99.5531 197.921 101.693C204.809 108.323 216.496 115.357 235.767 117.371ZM187.882 84.4056C187.676 84.5573 187.529 84.7887 187.491 85.0621L187.491 85.0658L187.488 85.0823C187.487 85.0905 187.485 85.1011 187.483 85.1142C187.482 85.1258 187.48 85.1393 187.477 85.1547C187.467 85.2202 187.451 85.32 187.429 85.4523C187.384 85.7168 187.312 86.1113 187.208 86.6218C186.999 87.6427 186.658 89.1268 186.132 90.9623C185.081 94.6343 183.292 99.7059 180.348 105.286C174.548 116.279 164.274 129.231 146.31 137.377L146.308 137.37C146.127 136.642 145.968 135.916 145.83 135.195C144.18 126.557 145.114 115.896 147.498 104.695C149.878 93.5106 153.685 81.8713 157.711 71.3113C161.736 60.7544 165.972 51.2952 169.203 44.4746C170.818 41.0648 172.181 38.3159 173.139 36.4205C173.461 35.7854 173.736 35.2461 173.961 34.8101C174.212 35.6064 174.572 36.7618 175.028 38.245C175.967 41.3046 177.309 45.7592 178.922 51.3356C181.426 59.9957 184.579 71.3598 187.882 84.4056ZM208.16 212.186C207.952 191.828 205.201 169.027 201.332 146.697C201.287 146.86 201.241 147.027 201.194 147.198C200.363 150.172 199.035 154.264 197.041 158.744C193.21 167.35 186.878 177.489 176.805 183.794C178.005 185.044 179.206 186.271 180.403 187.471C188.035 195.124 195.459 201.68 200.976 206.323C203.733 208.643 206.013 210.485 207.603 211.746C207.799 211.902 207.985 212.048 208.16 212.186ZM224.607 180.18C229.772 167.065 234.531 151.829 236.092 137.456C223.665 138.158 213.663 133.192 206.746 128.017C203.183 125.351 200.425 122.62 198.556 120.554C198.442 120.428 198.332 120.305 198.225 120.184C204.5 149.953 209.725 182.89 210.116 211.283C211.016 209.629 212.273 207.265 213.755 204.329C216.805 198.288 220.806 189.834 224.607 180.18Z" fill="black"/>
<path d="M57.3643 33.1476C32.7496 50.5099 17.8958 104.297 14.417 118.133C13.9775 119.881 15.174 121.549 16.972 121.677C30.5971 122.647 82.4462 124.974 109.541 106.886C138.432 87.5995 154.168 35.0958 157.906 21.2048C158.389 19.4099 157.117 17.6985 155.26 17.6214C140.335 17.0018 81.9758 15.7875 57.3643 33.1476Z" fill="#40C075"/>
<path fill-rule="evenodd" clip-rule="evenodd" d="M18.4017 127.86L18.4798 127.075C18.4018 127.86 18.4022 127.86 18.4028 127.86L18.4054 127.86L18.4516 127.865L18.5937 127.878C18.7188 127.89 18.904 127.907 19.1464 127.928C19.631 127.97 20.3442 128.03 21.262 128.097C23.0975 128.233 25.7521 128.402 29.0345 128.54C35.5981 128.816 44.6787 128.965 54.7461 128.457C74.8229 127.444 99.0445 123.811 114.972 113.178C131.951 101.843 144.355 79.322 152.496 59.8181C156.578 50.0376 159.611 40.9601 161.623 34.3281C162.629 31.0115 163.381 28.3047 163.881 26.4255C164.057 25.7653 164.202 25.2072 164.316 24.7606L164.374 24.7079L164.433 24.6551C164.433 24.6548 164.433 24.6545 164.362 24.5808L164.434 24.6541C164.767 24.3512 164.835 23.8787 164.627 23.512L164.632 23.4896L164.633 23.4869C164.633 23.4868 164.633 23.4867 164.629 23.4855L164.608 23.4805L164.633 23.4858C164.701 23.199 164.639 22.8969 164.464 22.6601C164.288 22.4233 164.017 22.2759 163.723 22.2573L163.674 23.0348C163.723 22.2573 163.723 22.2572 163.722 22.2572L163.668 22.2538L163.508 22.2443C163.367 22.236 163.159 22.2241 162.886 22.2095C162.34 22.1802 161.538 22.14 160.507 22.096C158.446 22.0079 155.472 21.9046 151.815 21.8432C144.503 21.7205 134.455 21.7656 123.516 22.4373C112.58 23.1088 100.733 24.4078 89.8282 26.7989C78.9406 29.1864 68.9082 32.6803 61.6638 37.7902C54.412 42.9053 48.0494 51.0584 42.5891 60.3227C38.2412 67.6996 34.439 75.8271 31.1994 83.7814C31.1727 83.8086 31.1472 83.8377 31.1234 83.8686C30.9876 84.0442 30.9239 84.2498 30.9275 84.452C30.1913 86.2751 29.4847 88.0877 28.8081 89.8786C25.0988 99.6959 22.2793 108.883 20.3872 115.615C19.441 118.982 18.7262 121.736 18.2477 123.65C18.0084 124.607 17.8282 125.354 17.7076 125.863C17.6473 126.117 17.6019 126.312 17.5715 126.443L17.5371 126.593L17.5255 126.644C17.5254 126.644 17.5253 126.645 18.1924 126.795L17.5253 126.645C17.4622 126.924 17.5221 127.218 17.6897 127.45C17.8573 127.682 18.1166 127.832 18.4017 127.86ZM33.2038 84.1633L33.2128 84.1414C35.7057 78.0513 38.5242 71.8838 41.6582 66.0557C57.1871 76.4982 71.4498 79.4991 81.9082 79.8555C86.9891 80.0287 91.1656 79.5776 94.1472 79.0575C89.1199 82.73 83.9568 86.4096 78.7077 90.0361C78.659 90.0411 78.6101 90.0497 78.5611 90.0621L78.5582 90.0628L78.5454 90.066L78.4902 90.0796C78.4403 90.0917 78.3643 90.1099 78.2636 90.1332C78.062 90.18 77.7609 90.2475 77.3694 90.3291C76.5862 90.4923 75.4414 90.7115 74.0065 90.9331C71.1352 91.3764 67.1096 91.8277 62.4984 91.8592C53.4895 91.9207 42.3578 90.3794 33.2038 84.1633ZM97.5006 76.3951C97.6634 76.3505 97.809 76.3091 97.937 76.2717C103.874 71.8804 109.599 67.5214 115.024 63.2985C116.921 61.822 118.781 60.3624 120.601 58.924C120.638 58.887 120.67 58.8567 120.695 58.8329C120.708 58.8211 120.719 58.8109 120.728 58.8023L120.742 58.7891L120.756 58.7763L120.76 58.7722L120.762 58.7708C120.762 58.7706 120.762 58.7705 120.777 58.7849C120.777 58.7847 120.776 58.7851 120.777 58.7849L120.763 58.7697C120.834 58.7058 120.911 58.6538 120.993 58.6136C121.039 58.577 121.086 58.5404 121.132 58.5038C120.257 58.6799 119.195 58.8716 117.967 59.053C114.216 59.6071 108.912 60.0666 102.679 59.6928C90.339 58.9527 74.3516 54.9439 59.6064 41.943C53.9715 46.8136 48.8606 53.6209 44.3121 61.3382C43.7251 62.3342 43.1479 63.3445 42.5807 64.3667C57.8602 74.7003 71.8357 77.6262 81.999 77.9725C87.1422 78.1478 91.3163 77.6626 94.1956 77.1366C95.6352 76.8736 96.7504 76.6006 97.5006 76.3951ZM121.913 60.309C133.548 51.1098 143.525 42.785 150.884 36.4979C155.149 32.8543 158.535 29.8947 160.855 27.8453C161.119 27.612 161.37 27.3905 161.606 27.1811C161.131 28.9177 160.5 31.1423 159.709 33.7475C157.711 40.3335 154.7 49.3448 150.65 59.0477C142.863 77.7032 131.316 98.7114 115.887 110.091C110.345 93.0519 111.874 80.6088 114.777 72.4228C116.261 68.2372 118.109 65.1475 119.578 63.1126C120.312 62.095 120.951 61.3414 121.401 60.8467C121.62 60.6065 121.794 60.4275 121.913 60.309ZM114.22 111.273C114.101 111.354 113.981 111.434 113.862 111.514C109.369 114.514 104.173 116.947 98.571 118.915C93.1566 108.721 93.4891 98.3528 95.2341 90.4303C96.1257 86.3823 97.3832 82.9886 98.4169 80.6091C98.9334 79.4201 99.3933 78.4862 99.7222 77.8526C99.8866 77.5359 100.018 77.2944 100.108 77.1337C100.152 77.0534 100.187 76.9933 100.209 76.9542L100.212 76.9492C105.755 72.8357 111.102 68.7585 116.184 64.8034C115.074 66.6913 113.922 69.0303 112.929 71.8311C109.851 80.5121 108.327 93.5633 114.22 111.273ZM124.149 56.1054C123.93 55.9926 123.665 55.961 123.406 56.0373L123.403 56.0383L123.388 56.0427C123.381 56.0447 123.372 56.0473 123.361 56.0504C123.35 56.0536 123.336 56.0574 123.32 56.0618C123.259 56.0789 123.165 56.1046 123.041 56.1374C122.791 56.203 122.417 56.2971 121.928 56.4084C120.949 56.6309 119.511 56.9219 117.692 57.1907C114.052 57.7284 108.89 58.1762 102.822 57.8122C90.8712 57.0955 75.4132 53.2327 61.1092 40.7005C61.6733 40.2552 62.2425 39.8295 62.8167 39.4245C69.7415 34.54 79.4713 31.1175 90.2566 28.7525C101.025 26.3912 112.762 25.1014 123.638 24.4335C134.512 23.7659 144.505 23.7209 151.782 23.8429C155.419 23.904 158.376 24.0067 160.422 24.0941C161.087 24.1226 161.656 24.1494 162.121 24.1726C161.522 24.7091 160.656 25.4806 159.545 26.4622C157.232 28.5052 153.854 31.4577 149.598 35.0937C142.995 40.7349 134.28 48.0202 124.149 56.1054ZM74.8025 92.7132C74.6372 92.7399 74.4677 92.7667 74.2942 92.7935C71.3488 93.2482 67.222 93.711 62.4904 93.7433C53.4171 93.8052 42.0105 92.2847 32.4698 85.9777C31.8517 87.5236 31.2547 89.0619 30.679 90.5855C26.9957 100.334 24.1938 109.463 22.3126 116.156C21.3722 119.502 20.6624 122.238 20.188 124.135C20.1315 124.361 20.0784 124.575 20.0286 124.777C37.8193 116.487 56.74 104.997 74.8025 92.7132ZM54.6453 126.459C68.2106 125.775 83.4703 123.892 96.7039 119.549C91.1538 108.93 91.5336 98.1851 93.3235 90.0586C94.2461 85.8702 95.5461 82.3614 96.6164 79.8976C96.6812 79.7486 96.7451 79.6033 96.8081 79.4619C73.186 96.803 46.3736 114.478 21.6176 126.118C23.425 126.249 25.982 126.41 29.1184 126.542C35.6378 126.816 44.6546 126.964 54.6453 126.459Z" fill="black"/>
</svg>
