<svg width="334" height="252" viewBox="0 0 334 252" fill="none" xmlns="http://www.w3.org/2000/svg">
<path d="M136.252 113.004C136.007 86.0479 104.072 47.6201 95.2746 37.5403C94.0928 36.1863 92.0527 36.2238 90.9236 37.6221C82.8997 47.5592 54.9225 84.254 54.4359 113.368C53.9167 144.43 84.4234 182.851 93.1281 193.17C94.3233 194.587 96.4412 194.528 97.5629 193.052C106.007 181.943 136.497 139.943 136.252 113.004Z" fill="#40C075"/>
<path d="M102.575 32.833L103.311 32.1564C103.118 31.9459 102.844 31.8283 102.558 31.8332C102.272 31.838 102.002 31.9649 101.816 32.1817L102.575 32.833ZM145.774 110.795L146.774 110.786L146.774 110.786L145.774 110.795ZM104.941 193.615L104.197 194.284C104.394 194.502 104.677 194.623 104.971 194.614C105.264 194.606 105.539 194.468 105.723 194.238L104.941 193.615ZM63.9577 111.158L64.9576 111.175L64.9576 111.175L63.9577 111.158ZM103.36 193.457C103.432 194.004 103.935 194.389 104.483 194.316C105.03 194.243 105.415 193.741 105.342 193.193L103.36 193.457ZM103.725 33.6927C103.823 33.149 103.461 32.6295 102.917 32.5324C102.373 32.4352 101.854 32.7971 101.757 33.3408L103.725 33.6927ZM97.2973 95.5713C97.1031 96.0883 97.3648 96.6648 97.8818 96.8591C98.3988 97.0533 98.9753 96.7916 99.1696 96.2746L97.2973 95.5713ZM127.61 65.6328C128.131 65.4494 128.405 64.8785 128.222 64.3575C128.038 63.8366 127.467 63.5629 126.946 63.7463L127.61 65.6328ZM97.5371 119.066C97.7679 119.568 98.3618 119.787 98.8635 119.557C99.3653 119.326 99.5849 118.732 99.3541 118.23L97.5371 119.066ZM66.7331 94.116C66.1837 94.0595 65.6926 94.4591 65.6361 95.0085C65.5797 95.5579 65.9793 96.0491 66.5286 96.1055L66.7331 94.116ZM99.505 146.357C99.3315 146.881 99.6158 147.447 100.14 147.621C100.664 147.794 101.23 147.51 101.404 146.986L99.505 146.357ZM145.604 108.82C146.142 108.695 146.477 108.158 146.353 107.62C146.228 107.082 145.691 106.747 145.153 106.872L145.604 108.82ZM97.3375 117.793C97.1929 118.326 97.5078 118.875 98.0408 119.02C98.5738 119.164 99.1231 118.849 99.2678 118.316L97.3375 117.793ZM137.315 82.8697C137.833 82.6765 138.095 82.1004 137.902 81.583C137.709 81.0657 137.133 80.8029 136.615 80.9962L137.315 82.8697ZM98.7512 143.837C98.8237 144.384 99.3263 144.769 99.8738 144.697C100.421 144.624 100.806 144.122 100.734 143.574L98.7512 143.837ZM64.4303 111.318C63.9 111.163 63.3451 111.468 63.191 111.999C63.0368 112.529 63.3418 113.084 63.8721 113.238L64.4303 111.318ZM102.575 32.833C101.839 33.5097 101.839 33.5097 101.839 33.51C101.839 33.5103 101.84 33.5107 101.84 33.5113C101.842 33.5126 101.843 33.5146 101.846 33.5172C101.851 33.5226 101.858 33.5307 101.868 33.5417C101.888 33.5636 101.918 33.5967 101.958 33.6407C102.038 33.7286 102.158 33.8603 102.314 34.0337C102.625 34.3805 103.084 34.8944 103.668 35.5601C104.836 36.8917 106.508 38.8306 108.515 41.2555C112.529 46.1064 117.884 52.897 123.245 60.658C128.608 68.4219 133.966 77.1388 137.997 85.8438C142.034 94.5627 144.705 103.193 144.774 110.804L146.774 110.786C146.701 102.765 143.901 93.8335 139.812 85.0033C135.716 76.1593 130.292 67.3397 124.891 59.5213C119.488 51.6999 114.096 44.8621 110.055 39.9803C108.035 37.5389 106.351 35.5853 105.171 34.241C104.582 33.5689 104.118 33.0489 103.801 32.6965C103.642 32.5202 103.521 32.3858 103.438 32.2952C103.397 32.2498 103.366 32.2155 103.344 32.1922C103.334 32.1806 103.326 32.1718 103.32 32.1658C103.317 32.1628 103.315 32.1605 103.314 32.159C103.313 32.1582 103.313 32.1575 103.312 32.1571C103.312 32.1566 103.311 32.1564 102.575 32.833ZM144.774 110.804C144.843 118.424 142.384 127.363 138.59 136.544C134.802 145.709 129.717 155.036 124.61 163.409C119.506 171.779 114.391 179.178 110.551 184.485C108.631 187.138 107.032 189.267 105.913 190.731C105.353 191.464 104.914 192.03 104.615 192.412C104.465 192.604 104.351 192.749 104.274 192.846C104.236 192.895 104.207 192.931 104.187 192.956C104.178 192.968 104.171 192.977 104.166 192.983C104.163 192.986 104.162 192.988 104.161 192.989C104.16 192.99 104.16 192.99 104.159 192.991C104.159 192.991 104.159 192.991 104.941 193.615C105.723 194.238 105.723 194.238 105.723 194.237C105.724 194.237 105.724 194.236 105.725 194.235C105.726 194.234 105.728 194.231 105.731 194.228C105.736 194.221 105.744 194.212 105.754 194.199C105.774 194.173 105.804 194.136 105.844 194.086C105.922 193.986 106.039 193.838 106.19 193.644C106.494 193.256 106.937 192.684 107.502 191.946C108.63 190.469 110.24 188.326 112.171 185.657C116.032 180.321 121.179 172.877 126.318 164.45C131.455 156.026 136.597 146.602 140.438 137.308C144.273 128.029 146.847 118.799 146.774 110.786L144.774 110.804ZM104.941 193.615C105.684 192.946 105.684 192.946 105.684 192.946C105.684 192.945 105.684 192.945 105.683 192.944C105.682 192.943 105.68 192.941 105.678 192.939C105.673 192.933 105.666 192.925 105.656 192.915C105.637 192.893 105.608 192.86 105.569 192.817C105.492 192.73 105.377 192.6 105.226 192.428C104.925 192.084 104.481 191.573 103.917 190.909C102.787 189.582 101.172 187.643 99.2354 185.203C95.3608 180.322 90.202 173.438 85.0639 165.431C74.7538 149.362 64.6602 128.967 64.9576 111.175L62.9579 111.142C62.6498 129.574 73.0477 150.407 83.3806 166.511C88.5639 174.589 93.7645 181.528 97.6689 186.447C99.6215 188.907 101.251 190.863 102.393 192.206C102.965 192.877 103.414 193.395 103.722 193.746C103.876 193.921 103.994 194.055 104.074 194.145C104.114 194.19 104.145 194.224 104.165 194.248C104.176 194.259 104.183 194.268 104.189 194.274C104.192 194.277 104.194 194.279 104.195 194.281C104.196 194.282 104.196 194.282 104.197 194.283C104.197 194.283 104.197 194.284 104.941 193.615ZM64.9576 111.175C65.2368 94.4726 74.7543 75.0936 84.3275 59.7778C89.0986 52.1446 93.8536 45.5669 97.4161 40.8974C99.197 38.5632 100.679 36.7071 101.714 35.4358C102.232 34.8002 102.638 34.3109 102.914 33.9812C103.052 33.8163 103.158 33.6914 103.229 33.608C103.264 33.5663 103.291 33.535 103.308 33.5143C103.317 33.504 103.324 33.4963 103.328 33.4913C103.33 33.4888 103.332 33.4869 103.333 33.4858C103.333 33.4852 103.334 33.4848 103.334 33.4845C103.334 33.4843 103.334 33.4843 102.575 32.833C101.816 32.1817 101.816 32.182 101.816 32.1825C101.815 32.1829 101.815 32.1835 101.814 32.1843C101.813 32.1858 101.811 32.188 101.808 32.1909C101.804 32.1967 101.796 32.2051 101.787 32.2162C101.768 32.2384 101.74 32.2712 101.703 32.3144C101.63 32.4009 101.522 32.529 101.381 32.6972C101.099 33.0334 100.688 33.5297 100.164 34.1727C99.1163 35.4585 97.6212 37.3313 95.826 39.6843C92.2365 44.3892 87.4437 51.0189 82.6315 58.7177C73.0381 74.0659 63.2469 93.8496 62.9579 111.142L64.9576 111.175ZM104.351 193.325C105.342 193.193 105.342 193.193 105.342 193.192C105.342 193.191 105.342 193.19 105.342 193.189C105.341 193.186 105.341 193.182 105.34 193.176C105.338 193.165 105.336 193.147 105.333 193.124C105.327 193.078 105.318 193.009 105.306 192.917C105.282 192.733 105.247 192.458 105.201 192.097C105.11 191.375 104.977 190.307 104.813 188.925C104.483 186.161 104.025 182.14 103.51 177.117C102.48 167.071 101.224 153.02 100.319 137.002C98.5095 104.946 98.1135 65.0901 103.725 33.6927L101.757 33.3408C96.1019 64.9778 96.5108 105.026 98.3226 137.115C99.229 153.17 100.488 167.252 101.52 177.321C102.036 182.356 102.496 186.388 102.827 189.162C102.992 190.549 103.125 191.622 103.217 192.348C103.263 192.711 103.298 192.988 103.323 193.174C103.335 193.267 103.344 193.338 103.35 193.385C103.353 193.409 103.356 193.426 103.357 193.438C103.358 193.444 103.359 193.449 103.359 193.452C103.359 193.454 103.359 193.455 103.359 193.456C103.36 193.456 103.36 193.457 104.351 193.325ZM98.2334 95.9229C99.1696 96.2746 99.1695 96.2748 99.1694 96.2749C99.1695 96.2748 99.1695 96.2748 99.1695 96.2746C99.1697 96.2743 99.1699 96.2736 99.1703 96.2725C99.1712 96.2703 99.1725 96.2667 99.1745 96.2617C99.1783 96.2516 99.1844 96.2357 99.1927 96.2143C99.2093 96.1715 99.2347 96.1063 99.2691 96.0201C99.338 95.8477 99.4426 95.5912 99.5833 95.2606C99.8648 94.5993 100.291 93.6422 100.864 92.4698C102.013 90.1237 103.749 86.9223 106.099 83.5064C110.812 76.6549 117.922 69.0431 127.61 65.6328L126.946 63.7463C116.685 67.3583 109.273 75.3633 104.451 82.3729C102.033 85.8875 100.249 89.1778 99.068 91.5907C98.4774 92.7978 98.0369 93.7871 97.7431 94.4772C97.5962 94.8223 97.4859 95.0928 97.4117 95.2785C97.3747 95.3714 97.3466 95.443 97.3276 95.4922C97.318 95.5168 97.3108 95.5358 97.3057 95.5491C97.3032 95.5557 97.3012 95.5608 97.2998 95.5646C97.2991 95.5664 97.2986 95.5679 97.2981 95.569C97.2979 95.5696 97.2977 95.5701 97.2976 95.5704C97.2974 95.5709 97.2973 95.5713 98.2334 95.9229ZM98.4456 118.648C99.3541 118.23 99.3539 118.23 99.3536 118.229C99.3535 118.229 99.3532 118.228 99.353 118.228C99.3524 118.227 99.3518 118.225 99.3509 118.223C99.3493 118.22 99.347 118.215 99.3442 118.209C99.3385 118.197 99.3304 118.179 99.3198 118.157C99.2987 118.113 99.2679 118.049 99.2273 117.967C99.1461 117.802 99.0258 117.563 98.8656 117.261C98.5454 116.657 98.0658 115.797 97.4216 114.761C96.1341 112.69 94.1847 109.906 91.5318 107.048C86.2294 101.337 78.0671 95.2809 66.7331 94.116L66.5286 96.1055C77.2231 97.2047 84.9681 102.918 90.066 108.409C92.6133 111.153 94.4872 113.828 95.723 115.817C96.3405 116.81 96.7974 117.63 97.0985 118.198C97.249 118.482 97.3604 118.703 97.4333 118.851C97.4698 118.925 97.4966 118.98 97.5139 119.017C97.5225 119.035 97.5288 119.048 97.5326 119.056C97.5346 119.061 97.5359 119.063 97.5367 119.065C97.537 119.066 97.5373 119.066 97.5373 119.066C97.5374 119.067 97.5373 119.066 97.5373 119.066C97.5372 119.066 97.5371 119.066 98.4456 118.648ZM100.454 146.671C101.404 146.986 101.404 146.986 101.404 146.986C101.404 146.986 101.404 146.986 101.404 146.986C101.404 146.986 101.404 146.985 101.404 146.984C101.405 146.981 101.407 146.977 101.409 146.97C101.413 146.958 101.42 146.938 101.429 146.911C101.448 146.858 101.477 146.776 101.516 146.667C101.596 146.45 101.718 146.126 101.887 145.708C102.225 144.873 102.748 143.663 103.484 142.183C104.958 139.222 107.281 135.185 110.674 130.9C117.458 122.333 128.507 112.784 145.604 108.82L145.153 106.872C127.514 110.961 116.101 120.825 109.107 129.658C105.611 134.072 103.216 138.232 101.694 141.292C100.932 142.823 100.388 144.08 100.033 144.959C99.8552 145.398 99.7248 145.743 99.638 145.981C99.5947 146.099 99.5622 146.191 99.5402 146.254C99.5292 146.286 99.5208 146.311 99.5149 146.328C99.512 146.336 99.5097 146.343 99.5081 146.348C99.5073 146.35 99.5066 146.352 99.5061 146.354C99.5058 146.355 99.5056 146.355 99.5055 146.356C99.5052 146.357 99.505 146.357 100.454 146.671ZM98.3027 118.055C99.2678 118.316 99.2676 118.317 99.2676 118.317C99.2676 118.317 99.2675 118.317 99.2675 118.317C99.2675 118.317 99.2676 118.317 99.2678 118.316C99.2682 118.315 99.2691 118.312 99.2703 118.307C99.2728 118.299 99.2769 118.284 99.2827 118.264C99.2944 118.224 99.313 118.161 99.339 118.077C99.3911 117.91 99.473 117.657 99.5894 117.328C99.8221 116.67 100.193 115.708 100.737 114.512C101.827 112.119 103.613 108.793 106.39 105.092C111.938 97.6987 121.453 88.7943 137.315 82.8697L136.615 80.9962C120.36 87.0675 110.544 96.2238 104.79 103.892C101.916 107.723 100.058 111.177 98.9172 113.683C98.3465 114.936 97.9546 115.952 97.7039 116.661C97.5786 117.015 97.4885 117.293 97.429 117.484C97.3993 117.58 97.3771 117.654 97.3621 117.706C97.3546 117.732 97.3488 117.752 97.3448 117.767C97.3427 117.774 97.3411 117.78 97.3399 117.784C97.3393 117.786 97.3388 117.788 97.3384 117.789C97.3382 117.79 97.338 117.791 97.3379 117.791C97.3377 117.792 97.3375 117.793 98.3027 118.055ZM99.7426 143.705C100.734 143.574 100.734 143.573 100.734 143.573C100.734 143.572 100.734 143.571 100.733 143.57C100.733 143.569 100.733 143.567 100.733 143.565C100.732 143.56 100.731 143.554 100.73 143.547C100.728 143.533 100.725 143.513 100.721 143.489C100.714 143.439 100.702 143.37 100.686 143.28C100.654 143.102 100.604 142.845 100.528 142.519C100.377 141.867 100.126 140.937 99.7209 139.796C98.9107 137.515 97.485 134.391 95.0168 130.97C90.0699 124.113 80.9816 116.128 64.4303 111.318L63.8721 113.238C80.0112 117.929 88.7186 125.658 93.3948 132.14C95.7382 135.388 97.0809 138.339 97.8362 140.466C98.2139 141.529 98.4446 142.386 98.5799 142.97C98.6476 143.262 98.6914 143.486 98.7178 143.633C98.731 143.707 98.7398 143.761 98.7451 143.796C98.7478 143.813 98.7496 143.825 98.7505 143.832C98.751 143.835 98.7513 143.837 98.7514 143.838C98.7515 143.838 98.7515 143.839 98.7515 143.838C98.7515 143.838 98.7514 143.838 98.7514 143.838C98.7513 143.837 98.7512 143.837 99.7426 143.705Z" fill="black"/>
<path d="M246.59 177.687C275.847 153.891 289.55 84.7315 292.37 68.7806C292.684 67.0056 291.353 65.4328 289.55 65.4226C273.976 65.3345 208.503 66.5029 176.211 91.4163C141.778 117.981 126.926 185.544 123.813 201.64C123.46 203.465 124.834 205.104 126.692 205.058C143.649 204.643 217.337 201.48 246.59 177.687Z" fill="#2E8557"/>
<path d="M303.435 73.664L304.423 73.8168C304.467 73.5336 304.387 73.2452 304.204 73.0248C304.021 72.8045 303.752 72.6732 303.466 72.6644L303.435 73.664ZM257.096 185.879L256.465 185.103L256.465 185.103L257.096 185.879ZM133.681 213.312L132.694 213.149C132.646 213.44 132.729 213.737 132.92 213.961C133.111 214.185 133.391 214.314 133.686 214.312L133.681 213.312ZM186.717 99.6085L187.328 100.4L187.328 100.4L186.717 99.6085ZM132.766 211.748C132.383 212.146 132.396 212.779 132.794 213.161C133.192 213.544 133.825 213.531 134.208 213.133L132.766 211.748ZM303.325 75.3007C303.81 75.037 303.99 74.4298 303.726 73.9445C303.462 73.4593 302.855 73.2798 302.37 73.5435L303.325 75.3007ZM232.005 121.934C231.481 122.106 231.195 122.671 231.367 123.196C231.539 123.721 232.104 124.007 232.628 123.835L232.005 121.934ZM290.009 127.831C290.48 128.12 291.096 127.973 291.385 127.503C291.675 127.033 291.528 126.417 291.058 126.127L290.009 127.831ZM207.326 142.043C207.077 142.537 207.276 143.138 207.769 143.386C208.262 143.635 208.863 143.436 209.112 142.943L207.326 142.043ZM206.987 88.2034C206.686 87.7404 206.067 87.6094 205.604 87.9106C205.141 88.2118 205.01 88.8313 205.311 89.2942L206.987 88.2034ZM179.649 167.585C179.131 167.777 178.868 168.353 179.06 168.871C179.253 169.388 179.828 169.652 180.346 169.459L179.649 167.585ZM259.294 183.733C259.73 184.072 260.358 183.995 260.698 183.559C261.038 183.124 260.96 182.495 260.524 182.156L259.294 183.733ZM208.332 140.919C207.826 141.139 207.594 141.728 207.814 142.235C208.034 142.741 208.624 142.973 209.13 142.753L208.332 140.919ZM279.89 152.8C280.366 153.08 280.979 152.922 281.259 152.446C281.54 151.971 281.381 151.357 280.906 151.077L279.89 152.8ZM181.837 164.547C181.454 164.945 181.466 165.578 181.864 165.961C182.262 166.344 182.895 166.332 183.278 165.934L181.837 164.547ZM186.61 100.384C186.397 99.8743 185.812 99.6335 185.302 99.8462C184.792 100.059 184.552 100.644 184.764 101.154L186.61 100.384ZM303.435 73.664C302.447 73.5112 302.447 73.5114 302.447 73.5118C302.447 73.5124 302.446 73.5133 302.446 73.5144C302.446 73.5168 302.445 73.5205 302.445 73.5254C302.443 73.5353 302.441 73.5504 302.437 73.5705C302.431 73.6107 302.422 73.6711 302.409 73.7513C302.383 73.9116 302.344 74.1507 302.292 74.4643C302.188 75.0915 302.031 76.0164 301.819 77.204C301.396 79.5792 300.753 83.0049 299.879 87.2009C298.129 95.5943 295.452 107.063 291.743 119.369C288.033 131.679 283.296 144.804 277.432 156.52C271.561 168.249 264.596 178.49 256.465 185.103L257.727 186.655C266.176 179.783 273.294 169.255 279.22 157.415C285.153 145.562 289.929 132.32 293.658 119.946C297.389 107.57 300.079 96.0419 301.837 87.609C302.716 83.3919 303.362 79.9471 303.788 77.5551C304.002 76.3591 304.16 75.4262 304.265 74.7915C304.318 74.4741 304.357 74.2313 304.384 74.0674C304.397 73.9854 304.407 73.9232 304.413 73.8812C304.416 73.8603 304.419 73.8444 304.421 73.8336C304.421 73.8282 304.422 73.8241 304.423 73.8213C304.423 73.8199 304.423 73.8188 304.423 73.8181C304.423 73.8172 304.423 73.8168 303.435 73.664ZM256.465 185.103C248.327 191.723 236.617 196.762 223.542 200.584C210.485 204.4 196.149 206.978 182.824 208.718C169.502 210.457 157.211 211.356 148.25 211.82C143.77 212.052 140.123 212.175 137.598 212.24C136.335 212.273 135.353 212.291 134.688 212.301C134.355 212.306 134.101 212.309 133.931 212.31C133.846 212.311 133.782 212.312 133.739 212.312C133.718 212.312 133.702 212.312 133.691 212.312C133.686 212.312 133.682 212.312 133.679 212.312C133.678 212.312 133.677 212.312 133.676 212.312C133.676 212.312 133.676 212.312 133.681 213.312C133.686 214.312 133.686 214.312 133.687 214.312C133.688 214.312 133.689 214.312 133.691 214.312C133.694 214.312 133.698 214.312 133.704 214.312C133.715 214.312 133.732 214.312 133.754 214.312C133.798 214.312 133.864 214.311 133.951 214.31C134.124 214.308 134.381 214.305 134.717 214.3C135.39 214.29 136.379 214.272 137.65 214.239C140.19 214.174 143.854 214.05 148.353 213.817C157.351 213.351 169.696 212.449 183.083 210.701C196.467 208.954 210.912 206.359 224.104 202.503C237.278 198.653 249.285 193.521 257.727 186.655L256.465 185.103ZM133.681 213.312C134.667 213.476 134.667 213.476 134.668 213.475C134.668 213.475 134.668 213.474 134.668 213.473C134.668 213.47 134.669 213.467 134.67 213.462C134.671 213.452 134.674 213.438 134.677 213.418C134.684 213.379 134.694 213.32 134.707 213.242C134.734 213.085 134.775 212.851 134.83 212.544C134.94 211.93 135.107 211.024 135.333 209.858C135.785 207.527 136.476 204.161 137.427 200.025C139.33 191.753 142.274 180.41 146.439 168.128C154.788 143.505 167.971 115.334 187.328 100.4L186.106 98.8167C166.243 114.141 152.908 142.821 144.545 167.486C140.353 179.848 137.391 191.258 135.478 199.577C134.521 203.737 133.826 207.126 133.369 209.477C133.141 210.653 132.973 211.568 132.861 212.192C132.805 212.503 132.764 212.741 132.736 212.902C132.722 212.983 132.712 213.044 132.705 213.085C132.702 213.106 132.699 213.122 132.697 213.132C132.696 213.138 132.696 213.142 132.695 213.144C132.695 213.146 132.695 213.147 132.695 213.148C132.694 213.148 132.694 213.149 133.681 213.312ZM187.328 100.4C205.499 86.3813 234.436 79.9152 258.997 76.9808C271.248 75.517 282.355 74.9376 290.4 74.7243C294.422 74.6177 297.677 74.6026 299.924 74.6141C301.048 74.6199 301.92 74.6323 302.51 74.6432C302.805 74.6487 303.03 74.6538 303.18 74.6575C303.255 74.6594 303.312 74.6609 303.349 74.6619C303.368 74.6624 303.382 74.6628 303.391 74.6631C303.396 74.6632 303.399 74.6633 303.401 74.6634C303.402 74.6634 303.403 74.6635 303.404 74.6635C303.404 74.6635 303.404 74.6635 303.435 73.664C303.466 72.6644 303.465 72.6644 303.464 72.6644C303.464 72.6644 303.463 72.6644 303.461 72.6643C303.459 72.6642 303.455 72.6641 303.45 72.664C303.439 72.6637 303.424 72.6632 303.405 72.6627C303.365 72.6616 303.307 72.66 303.229 72.6581C303.075 72.6543 302.846 72.6491 302.547 72.6435C301.949 72.6325 301.068 72.6199 299.934 72.6141C297.668 72.6025 294.392 72.6178 290.347 72.725C282.258 72.9395 271.087 73.522 258.759 74.9949C234.162 77.9338 204.741 84.44 186.106 98.8167L187.328 100.4ZM133.487 212.44C134.208 213.133 134.208 213.133 134.209 213.132C134.21 213.131 134.211 213.13 134.212 213.129C134.215 213.126 134.219 213.122 134.224 213.116C134.235 213.105 134.252 213.087 134.274 213.064C134.318 213.018 134.385 212.949 134.473 212.858C134.65 212.676 134.913 212.404 135.26 212.047C135.954 211.334 136.982 210.283 138.318 208.929C140.991 206.221 144.896 202.304 149.824 197.473C159.679 187.811 173.62 174.493 189.965 159.868C222.67 130.605 264.94 96.1654 303.325 75.3007L302.37 73.5435C263.772 94.5237 221.361 129.093 188.631 158.378C172.259 173.027 158.295 186.367 148.424 196.045C143.488 200.884 139.575 204.809 136.895 207.524C135.555 208.881 134.523 209.936 133.826 210.653C133.478 211.011 133.213 211.284 133.035 211.468C132.946 211.56 132.879 211.63 132.834 211.677C132.811 211.7 132.794 211.718 132.783 211.729C132.777 211.735 132.773 211.74 132.77 211.743C132.769 211.744 132.768 211.746 132.767 211.746C132.766 211.747 132.766 211.748 133.487 212.44ZM232.317 122.884C232.628 123.835 232.628 123.835 232.628 123.835C232.628 123.835 232.628 123.835 232.629 123.835C232.629 123.834 232.63 123.834 232.632 123.833C232.635 123.832 232.641 123.831 232.648 123.828C232.663 123.824 232.686 123.816 232.716 123.807C232.777 123.787 232.87 123.758 232.993 123.721C233.238 123.646 233.605 123.537 234.081 123.403C235.034 123.135 236.428 122.768 238.178 122.373C241.68 121.584 246.605 120.687 252.287 120.258C263.676 119.399 277.983 120.429 290.009 127.831L291.058 126.127C278.515 118.408 263.714 117.39 252.137 118.264C246.336 118.702 241.313 119.617 237.738 120.422C235.95 120.825 234.523 121.201 233.54 121.477C233.049 121.616 232.668 121.729 232.409 121.808C232.279 121.847 232.18 121.879 232.112 121.9C232.078 121.911 232.052 121.919 232.035 121.925C232.026 121.928 232.019 121.93 232.014 121.931C232.012 121.932 232.01 121.933 232.008 121.933C232.007 121.934 232.007 121.934 232.006 121.934C232.006 121.934 232.005 121.934 232.317 122.884ZM208.219 142.493C209.112 142.943 209.112 142.943 209.112 142.942C209.112 142.942 209.113 142.941 209.113 142.94C209.114 142.939 209.115 142.937 209.116 142.935C209.118 142.93 209.121 142.924 209.125 142.916C209.133 142.901 209.144 142.878 209.158 142.849C209.187 142.79 209.228 142.704 209.281 142.593C209.386 142.369 209.536 142.042 209.72 141.618C210.089 140.771 210.594 139.537 211.148 137.98C212.253 134.867 213.553 130.452 214.333 125.235C215.891 114.804 215.377 101.096 206.987 88.2034L205.311 89.2942C213.347 101.644 213.868 114.808 212.355 124.939C211.598 130.002 210.336 134.29 209.263 137.311C208.727 138.82 208.239 140.01 207.886 140.82C207.71 141.225 207.568 141.535 207.471 141.741C207.423 141.844 207.385 141.922 207.36 141.972C207.348 141.998 207.339 142.016 207.333 142.028C207.33 142.034 207.328 142.038 207.327 142.041C207.326 142.042 207.326 142.043 207.326 142.043C207.325 142.044 207.325 142.044 207.325 142.044C207.325 142.044 207.326 142.043 208.219 142.493ZM179.997 168.522C180.346 169.459 180.346 169.459 180.346 169.459C180.346 169.459 180.346 169.459 180.346 169.459C180.347 169.459 180.348 169.458 180.35 169.458C180.354 169.456 180.36 169.454 180.369 169.451C180.387 169.444 180.415 169.434 180.452 169.421C180.528 169.394 180.642 169.354 180.794 169.303C181.098 169.201 181.552 169.052 182.147 168.873C183.337 168.516 185.087 168.035 187.308 167.549C191.753 166.578 198.08 165.589 205.592 165.525C220.612 165.396 240.353 168.959 259.294 183.733L260.524 182.156C241.146 167.041 220.931 163.393 205.575 163.525C197.899 163.591 191.433 164.601 186.881 165.595C184.605 166.093 182.806 166.587 181.571 166.958C180.954 167.144 180.478 167.299 180.154 167.408C179.992 167.463 179.868 167.506 179.783 167.536C179.741 167.551 179.709 167.563 179.686 167.571C179.675 167.575 179.666 167.578 179.66 167.581C179.657 167.582 179.654 167.583 179.652 167.583C179.652 167.584 179.651 167.584 179.65 167.584C179.649 167.584 179.649 167.585 179.997 168.522ZM208.731 141.836C209.13 142.753 209.13 142.753 209.129 142.753C209.129 142.753 209.129 142.753 209.129 142.753C209.13 142.753 209.13 142.752 209.132 142.752C209.134 142.751 209.139 142.749 209.145 142.746C209.157 142.741 209.177 142.733 209.205 142.721C209.26 142.698 209.345 142.664 209.459 142.619C209.687 142.529 210.032 142.399 210.487 142.24C211.399 141.922 212.754 141.49 214.51 141.043C218.021 140.149 223.13 139.197 229.49 138.978C242.2 138.541 259.925 141.029 279.89 152.8L280.906 151.077C260.579 139.093 242.471 136.53 229.421 136.98C222.9 137.204 217.647 138.181 214.016 139.105C212.201 139.567 210.79 140.016 209.828 140.351C209.347 140.519 208.979 140.659 208.727 140.757C208.602 140.807 208.506 140.846 208.439 140.873C208.406 140.887 208.381 140.898 208.363 140.905C208.354 140.909 208.347 140.912 208.342 140.915C208.339 140.916 208.337 140.917 208.335 140.917C208.335 140.918 208.334 140.918 208.333 140.918C208.333 140.918 208.332 140.919 208.731 141.836ZM182.558 165.24C183.278 165.934 183.279 165.933 183.279 165.932C183.28 165.932 183.28 165.931 183.281 165.931C183.282 165.929 183.284 165.928 183.286 165.926C183.29 165.922 183.295 165.916 183.301 165.91C183.314 165.896 183.331 165.878 183.353 165.853C183.397 165.805 183.46 165.736 183.54 165.645C183.7 165.463 183.927 165.195 184.206 164.842C184.766 164.137 185.537 163.088 186.401 161.699C188.129 158.922 190.232 154.779 191.766 149.286C194.838 138.281 195.601 121.933 186.61 100.384L184.764 101.154C193.588 122.304 192.786 138.191 189.84 148.748C188.364 154.035 186.344 158.004 184.703 160.643C183.882 161.962 183.155 162.949 182.639 163.6C182.381 163.926 182.175 164.168 182.037 164.326C181.967 164.405 181.915 164.463 181.881 164.5C181.864 164.518 181.852 164.531 181.844 164.539C181.841 164.543 181.838 164.546 181.837 164.547C181.836 164.548 181.836 164.548 181.836 164.548C181.836 164.548 181.836 164.548 181.836 164.548C181.836 164.547 181.837 164.547 182.558 165.24Z" fill="black"/>
</svg>
