<svg width="112" height="27" viewBox="0 0 112 27" fill="none" xmlns="http://www.w3.org/2000/svg">
<path fill-rule="evenodd" clip-rule="evenodd" d="M30.7405 13.2256C30.7405 6.05744 36.4001 0.225586 43.3567 0.225586C50.3129 0.225586 55.9725 6.05744 55.9725 13.2256C55.9725 20.3937 50.3129 26.2256 43.3567 26.2256C36.4001 26.2256 30.7405 20.3937 30.7405 13.2256ZM34.5457 13.2255C34.5457 18.2317 38.4984 22.3045 43.357 22.3045C48.2152 22.3045 52.1679 18.2317 52.1679 13.2255C52.1679 8.21939 48.2152 4.14656 43.357 4.14656C38.4984 4.14656 34.5457 8.21939 34.5457 13.2255ZM86.4708 13.2256C86.4708 6.05744 92.1304 0.225586 99.0871 0.225586C106.043 0.225586 111.703 6.05744 111.703 13.2256C111.703 20.3937 106.043 26.2256 99.0871 26.2256C92.1304 26.2256 86.4708 20.3937 86.4708 13.2256ZM99.087 22.3045C94.2283 22.3045 90.2756 18.2317 90.2756 13.2255C90.2756 8.21939 94.2283 4.14656 99.087 4.14656C103.945 4.14656 107.898 8.21939 107.898 13.2255C107.898 18.2317 103.945 22.3045 99.087 22.3045ZM10.8357 1.14551H14.9809V17.2454H10.8357V1.14551ZM25.1137 1.14551H20.9685V25.0654H25.1137V1.14551ZM0.702881 1.14551H4.84811V25.0654H0.702881V1.14551ZM66.5659 25.0654H62.4207V1.14551H80.3833V25.0654H76.2381V5.28549H66.5659V25.0654Z" fill="#000F1E"/>
</svg>
