<svg width="67" height="19" viewBox="0 0 67 19" fill="none" xmlns="http://www.w3.org/2000/svg">
<path fill-rule="evenodd" clip-rule="evenodd" d="M19.9659 10C19.9659 6.14023 22.9742 3 26.6719 3C30.3693 3 33.3776 6.14023 33.3776 10C33.3776 13.8598 30.3693 17 26.6719 17C22.9742 17 19.9659 13.8598 19.9659 10ZM21.9884 9.99974C21.9884 12.6954 24.0894 14.8886 26.6719 14.8886C29.2541 14.8886 31.3551 12.6954 31.3551 9.99974C31.3551 7.30404 29.2541 5.11092 26.6719 5.11092C24.0894 5.11092 21.9884 7.30404 21.9884 9.99974ZM49.5886 10C49.5886 6.14023 52.5969 3 56.2945 3C59.9919 3 63.0001 6.14023 63.0001 10C63.0001 13.8598 59.9919 17 56.2945 17C52.5969 17 49.5886 13.8598 49.5886 10ZM56.2945 14.8886C53.712 14.8886 51.611 12.6954 51.611 9.99974C51.611 7.30404 53.712 5.11092 56.2945 5.11092C58.8768 5.11092 60.9778 7.30404 60.9778 9.99974C60.9778 12.6954 58.8768 14.8886 56.2945 14.8886ZM9.38574 3.49569H11.5891V12.1651H9.38574V3.49569ZM16.9752 3.49569H14.772V16.3756H16.9752V3.49569ZM4 3.49569H6.20325V16.3756H4V3.49569ZM39.0083 16.3756H36.8049V3.49569H46.3527V16.3756H44.1493V5.72491H39.0083V16.3756Z" fill="white"/>
</svg>
