<?xml version="1.0" encoding="UTF-8" standalone="no"?>
<svg width="16px" height="16px" viewBox="0 0 16 16" version="1.1" xmlns="http://www.w3.org/2000/svg" xmlns:xlink="http://www.w3.org/1999/xlink" xmlns:sketch="http://www.bohemiancoding.com/sketch/ns">
    <!-- Generator: Sketch 3.4 (15588) - http://www.bohemiancoding.com/sketch -->
    <title>add</title>
    <desc>Created with Sketch.</desc>
    <defs></defs>
    <g id="UI-guide" stroke="none" stroke-width="1" fill="none" fill-rule="evenodd" sketch:type="MSPage">
        <g id="ui-08-icons" sketch:type="MSArtboardGroup" transform="translate(-350.000000, -390.000000)">
            <g id="labels" sketch:type="MSLayerGroup" transform="translate(349.000000, 349.000000)"></g>
            <g id="Group" sketch:type="MSLayerGroup" transform="translate(350.000000, 325.000000)" fill="#626262">
                <path d="M8,66 C4.11111111,66 1,69.1111111 1,73 C1,76.8888889 4.11111111,80 8,80 C11.8888889,80 15,76.8888889 15,73 C15,69.1111111 11.8888889,66 8,66 L8,66 L8,66 Z M12.1481481,74.037037 L9.03703704,74.037037 L9.03703704,77.1481481 L6.96296296,77.1481481 L6.96296296,74.037037 L3.85185185,74.037037 L3.85185185,71.962963 L6.96296296,71.962963 L6.96296296,68.8518519 L9.03703704,68.8518519 L9.03703704,71.962963 L12.1481481,71.962963 L12.1481481,74.037037 L12.1481481,74.037037 Z" id="add" sketch:type="MSShapeGroup"></path>
            </g>
        </g>
    </g>
</svg>