<svg width="24" height="24" viewBox="0 0 24 24" fill="none" xmlns="http://www.w3.org/2000/svg">
<path d="M17 11H3C2.448 11 2 10.552 2 10C2 9.448 2.448 9 3 9H17C17.553 9 18 9.448 18 10C18 10.552 17.553 11 17 11Z" fill="black"/>
<path d="M21 7H3C2.448 7 2 6.552 2 6C2 5.448 2.448 5 3 5H21C21.553 5 22 5.448 22 6C22 6.552 21.553 7 21 7Z" fill="black"/>
<path d="M21 15H3C2.448 15 2 14.553 2 14C2 13.447 2.448 13 3 13H21C21.553 13 22 13.447 22 14C22 14.553 21.553 15 21 15Z" fill="black"/>
<path d="M17 19H3C2.448 19 2 18.553 2 18C2 17.447 2.448 17 3 17H17C17.553 17 18 17.447 18 18C18 18.553 17.553 19 17 19Z" fill="black"/>
</svg>
