<svg width="24" height="24" viewBox="0 0 24 24" fill="none" xmlns="http://www.w3.org/2000/svg">
<path d="M21 11H7C6.448 11 6 10.552 6 10C6 9.448 6.448 9 7 9H21C21.553 9 22 9.448 22 10C22 10.552 21.553 11 21 11Z" fill="black"/>
<path d="M21 7H3C2.448 7 2 6.552 2 6C2 5.448 2.448 5 3 5H21C21.553 5 22 5.448 22 6C22 6.552 21.553 7 21 7Z" fill="black"/>
<path d="M21 15H3C2.448 15 2 14.553 2 14C2 13.447 2.448 13 3 13H21C21.553 13 22 13.447 22 14C22 14.553 21.553 15 21 15Z" fill="black"/>
<path d="M21 19H7C6.448 19 6 18.553 6 18C6 17.447 6.448 17 7 17H21C21.553 17 22 17.447 22 18C22 18.553 21.553 19 21 19Z" fill="black"/>
</svg>
