<svg width="24" height="24" viewBox="0 0 24 24" fill="none" xmlns="http://www.w3.org/2000/svg">
<path d="M18 11H6C5.448 11 5 10.552 5 10C5 9.448 5.448 9 6 9H18C18.553 9 19 9.448 19 10C19 10.552 18.553 11 18 11Z" fill="black"/>
<path d="M21 7H3C2.448 7 2 6.552 2 6C2 5.448 2.448 5 3 5H21C21.553 5 22 5.448 22 6C22 6.552 21.553 7 21 7Z" fill="black"/>
<path d="M21 15H3C2.448 15 2 14.553 2 14C2 13.447 2.448 13 3 13H21C21.553 13 22 13.447 22 14C22 14.553 21.553 15 21 15Z" fill="black"/>
<path d="M18 19H6C5.448 19 5 18.553 5 18C5 17.447 5.448 17 6 17H18C18.553 17 19 17.447 19 18C19 18.553 18.553 19 18 19Z" fill="black"/>
</svg>
