<svg width="24" height="24" viewBox="0 0 24 24" fill="none" xmlns="http://www.w3.org/2000/svg">
<path d="M14 13H6C5.448 13 5 12.552 5 12V4C5 3.448 5.448 3 6 3H14C16.757 3 19 5.243 19 8C19 10.757 16.757 13 14 13ZM7 11H14C15.654 11 17 9.654 17 8C17 6.346 15.654 5 14 5H7V11Z" fill="black"/>
<path d="M15 21H6C5.448 21 5 20.553 5 20V12C5 11.448 5.448 11 6 11H15C17.757 11 20 13.243 20 16C20 18.757 17.757 21 15 21ZM7 19H15C16.654 19 18 17.654 18 16C18 14.346 16.654 13 15 13H7V19Z" fill="black"/>
</svg>
