<svg width="24" height="24" viewBox="0 0 24 24" fill="none" xmlns="http://www.w3.org/2000/svg">
<path d="M19 5H10C9.448 5 9 4.552 9 4C9 3.448 9.448 3 10 3H19C19.553 3 20 3.448 20 4C20 4.552 19.553 5 19 5Z" fill="black"/>
<path d="M14 21H5C4.448 21 4 20.553 4 20C4 19.447 4.448 19 5 19H14C14.553 19 15 19.447 15 20C15 20.553 14.553 21 14 21Z" fill="black"/>
<path d="M8.99999 20.9998C8.88299 20.9998 8.76499 20.9788 8.64899 20.9368C8.13199 20.7428 7.86999 20.1658 8.06399 19.6488L14.064 3.64878C14.257 3.13078 14.834 2.87178 15.352 3.06378C15.869 3.25778 16.13 3.83478 15.937 4.35178L9.93699 20.3518C9.78599 20.7528 9.40499 20.9998 8.99999 20.9998Z" fill="black"/>
</svg>
