<svg width="24" height="24" viewBox="0 0 24 24" fill="none" xmlns="http://www.w3.org/2000/svg">
<path d="M17 23H7C3.691 23 1 20.309 1 17V7C1 3.691 3.691 1 7 1H17C20.309 1 23 3.691 23 7V17C23 20.309 20.309 23 17 23ZM7 3C4.794 3 3 4.794 3 7V17C3 19.206 4.794 21 7 21H17C19.206 21 21 19.206 21 17V7C21 4.794 19.206 3 17 3H7Z" fill="black"/>
<path d="M12.0319 16.957C10.9679 16.957 9.93488 16.618 9.06388 15.973C7.99188 15.177 7.29288 14.012 7.09688 12.691C6.69288 9.96303 8.58288 7.41603 11.3089 7.01103C11.7959 6.93903 12.2889 6.93903 12.7759 7.01103C14.9699 7.33603 16.6629 9.02903 16.9889 11.223C17.1849 12.545 16.8539 13.863 16.0589 14.935C15.2629 16.008 14.0969 16.706 12.7759 16.902C12.5279 16.939 12.2789 16.957 12.0319 16.957ZM12.0429 8.95703C11.8959 8.95703 11.7489 8.96803 11.6029 8.99003C9.96688 9.23303 8.83288 10.761 9.07588 12.398C9.31888 14.035 10.8519 15.174 12.4829 14.925C13.2759 14.808 13.9759 14.389 14.4529 13.745C14.9299 13.101 15.1279 12.31 15.0109 11.518C14.8149 10.2 13.7999 9.18403 12.4829 8.98903C12.3369 8.96803 12.1899 8.95703 12.0429 8.95703Z" fill="black"/>
<path d="M17.5 7.5002C17.24 7.5002 16.979 7.3902 16.79 7.2102C16.7 7.1102 16.63 7.0002 16.58 6.8802C16.52 6.7602 16.5 6.6302 16.5 6.5002C16.5 6.2402 16.609 5.9802 16.79 5.7902C17.17 5.4202 17.84 5.4202 18.21 5.7902C18.39 5.9802 18.5 6.2402 18.5 6.5002C18.5 6.6302 18.47 6.7602 18.42 6.8802C18.37 7.0002 18.3 7.1102 18.21 7.2102C18.02 7.3902 17.76 7.5002 17.5 7.5002Z" fill="black"/>
</svg>
