<svg width="24" height="24" viewBox="0 0 24 24" fill="none" xmlns="http://www.w3.org/2000/svg">
<g clip-path="url(#clip0)">
<path d="M8.26403 21.9478C5.66503 21.9478 3.00203 21.2558 0.514029 19.8738C0.109029 19.6488 -0.0879707 19.1758 0.0370293 18.7298C0.162029 18.2828 0.598029 17.9608 1.03903 18.0008C2.74403 18.0698 4.39903 17.7368 5.91603 17.0338C2.20003 14.7418 1.23803 11.5008 1.12603 9.04478C0.992029 6.09278 2.04203 3.69378 2.08603 3.59278C2.23203 3.26478 2.54403 3.03978 2.90303 3.00478C3.26003 2.96878 3.61103 3.12978 3.81803 3.42478C5.49503 5.81178 8.12903 7.29278 11 7.50678C10.986 5.91378 11.671 4.38878 12.884 3.33478C14.988 1.50378 18.106 1.56978 20.134 3.38478C20.946 3.08678 21.713 2.68378 22.424 2.18278C22.765 1.94278 23.218 1.93878 23.563 2.17378C23.908 2.40878 24.071 2.83178 23.972 3.23678C23.629 4.64378 22.944 5.93978 21.977 7.01078C21.992 7.17178 21.999 7.33378 22 7.49678C22 12.9808 19.572 17.5528 15.339 20.0438C13.18 21.3138 10.751 21.9478 8.26403 21.9478ZM4.95903 19.5208C8.20903 20.3568 11.536 19.9608 14.325 18.3198C17.932 16.1968 20 12.2538 20 7.49978C19.999 7.28478 19.979 7.06878 19.938 6.85878C19.875 6.52978 19.979 6.19178 20.217 5.95778C20.44 5.73778 20.647 5.50378 20.835 5.25678C20.608 5.33978 20.38 5.41678 20.147 5.48678C19.774 5.60078 19.363 5.48278 19.104 5.18578C17.846 3.73778 15.643 3.58378 14.195 4.84378C13.422 5.51678 12.986 6.49078 13 7.51678V8.52978C13 9.07178 12.568 9.51478 12.026 9.52978C8.74703 9.62578 5.64303 8.33278 3.39603 6.03678C2.80003 8.58978 2.56403 13.4898 8.40603 16.0858C8.73803 16.2328 8.96403 16.5498 8.99603 16.9108C9.02803 17.2718 8.86203 17.6228 8.56103 17.8268C7.44203 18.5868 6.22903 19.1548 4.95903 19.5208Z" fill="black"/>
</g>
<defs>
<clipPath id="clip0">
<rect width="24" height="24" fill="white"/>
</clipPath>
</defs>
</svg>
